<svg viewBox="0 0 2019 2019" xmlns="http://www.w3.org/2000/svg"><path d="m974.53 232.38-.75-1.5 2.25-3.75 1.5.75 1.5-.75 2.25 3.75-.75 1.5-2.25 2.25 1.5-3.75-2.25-2.25.75 2.25-.75 3.75-.75-3.75.75-2.25-2.25 2.25 1.5 3.75zm0 7.5-.75-1.5 2.25-3.75 1.5.75 1.5-.75 2.25 3.75-.75 1.5-2.25 2.25 1.5-3.75-2.25-2.25.75 2.25-.75 3.75-.75-3.75.75-2.25-2.25 2.25 1.5 3.75zm0 7.5-.75-1.5 2.25-3.75 1.5.75 1.5-.75 2.25 3.75-.75 1.5-2.25 2.25 1.5-3.75-2.25-2.25.75 2.25-.75 3.75-.75-3.75.75-2.25-2.25 2.25 1.5 3.75zm0 7.5-.75-1.5 2.25-3.75 1.5.75 1.5-.75 2.25 3.75-.75 1.5-2.25 2.25 1.5-3.75-2.25-2.25.75 2.25-.75 3.75-.75-3.75.75-2.25-2.25 2.25 1.5 3.75zm7.5-30-.75-1.5 2.25-3.75 1.5.75 1.5-.75 2.25 3.75-.75 1.5-2.25 2.25 1.5-3.75-2.28-2.25.75 2.25-.75 3.75-.75-3.75.75-2.25-2.25 2.25 1.5 3.75zm0 7.5-.75-1.5 2.25-3.75 1.5.75 1.5-.75 2.25 3.75-.75 1.5-2.25 2.25 1.5-3.75-2.28-2.25.75 2.25-.75 3.75-.75-3.75.75-2.25-2.25 2.25 1.5 3.75zm0 7.5-.75-1.5 2.25-3.75 1.5.75 1.5-.75 2.25 3.75-.75 1.5-2.25 2.25 1.5-3.75-2.28-2.25.75 2.25-.75 3.75-.75-3.75.75-2.25-2.25 2.25 1.5 3.75zm0 7.5-.75-1.5 2.25-3.75 1.5.75 1.5-.75 2.25 3.75-.75 1.5-2.25 2.25 1.5-3.75-2.28-2.25.75 2.25-.75 3.75-.75-3.75.75-2.25-2.25 2.25 1.5 3.75zm0 7.5-.75-1.5 2.25-3.75 1.5.75 1.5-.75 2.25 3.75-.75 1.5-2.25 2.25 1.5-3.75-2.28-2.25.75 2.25-.75 3.75-.75-3.75.75-2.25-2.25 2.25 1.5 3.75zm0 7.5-.75-1.5 2.25-3.75 1.5.75 1.5-.75 2.25 3.75-.75 1.5-2.25 2.25 1.5-3.75-2.28-2.25.75 2.25-.75 3.75-.75-3.75.75-2.25-2.25 2.25 1.5 3.75zm7.5-45-.75-1.5 2.25-3.75 1.5.75 1.5-.75 2.25 3.75-.75 1.5-2.25 2.25 1.5-3.75-2.25-2.25.75 2.25-.75 3.75-.75-3.75.75-2.25-2.25 2.25 1.5 3.75zm0 22.5-.75-1.5 2.25-3.75 1.5.75 1.5-.75 2.25 3.75-.75 1.5-2.25 2.25 1.5-3.75-2.25-2.25.75 2.25-.75 3.75-.75-3.75.75-2.25-2.25 2.25 1.5 3.75zm0 15-.75-1.5 2.25-3.75 1.5.75 1.5-.75 2.25 3.75-.75 1.5-2.25 2.25 1.5-3.75-2.25-2.25.75 2.25-.75 3.75-.75-3.75.75-2.25-2.25 2.25 1.5 3.75zm0 7.5-.75-1.5 2.25-3.75 1.5.75 1.5-.75 2.25 3.75-.75 1.5-2.25 2.25 1.5-3.75-2.25-2.25.75 2.25-.75 3.75-.75-3.75.75-2.25-2.25 2.25 1.5 3.75zm0 7.5-.75-1.5 2.25-3.75 1.5.75 1.5-.75 2.25 3.75-.75 1.5-2.25 2.25 1.5-3.75-2.25-2.25.75 2.25-.75 3.75-.75-3.75.75-2.25-2.25 2.25 1.5 3.75zm7.5-60-.75-1.5 2.25-3.75 1.5.75 1.5-.75 2.25 3.75-.75 1.5-2.25 2.25 1.5-3.75-2.25-2.25.75 2.25-.75 3.75-.75-3.75.75-2.25-2.25 2.25 1.5 3.75zm0 30-.75-1.5 2.25-3.75 1.5.75 1.5-.75 2.25 3.75-.75 1.5-2.25 2.25 1.5-3.75-2.25-2.25.75 2.25-.75 3.75-.75-3.75.75-2.25-2.25 2.25 1.5 3.75zm0 22.5-.75-1.5 2.25-3.75 1.5.75 1.5-.75 2.25 3.75-.75 1.5-2.25 2.25 1.5-3.75-2.25-2.25.75 2.25-.75 3.75-.75-3.75.75-2.25-2.25 2.25 1.5 3.75zm0 7.5-.75-1.5 2.25-3.75 1.5.75 1.5-.75 2.25 3.75-.75 1.5-2.25 2.25 1.5-3.75-2.25-2.25.75 2.25-.75 3.75-.75-3.75.75-2.25-2.25 2.25 1.5 3.75zm0 7.5-.75-1.5 2.25-3.75 1.5.75 1.5-.75 2.25 3.75-.75 1.5-2.25 2.25 1.5-3.75-2.25-2.25.75 2.25-.75 3.75-.75-3.75.75-2.25-2.25 2.25 1.5 3.75zm7.5-67.5-.75-1.5 2.25-3.75 1.5.75 1.5-.75 2.25 3.75-.75 1.5-2.25 2.25 1.5-3.75-2.25-2.25.75 2.25-.75 3.75-.75-3.75.75-2.25-2.25 2.25 1.5 3.75zm0 30-.75-1.5 2.25-3.75 1.5.75 1.5-.75 2.25 3.75-.75 1.5-2.25 2.25 1.5-3.75-2.25-2.25.75 2.25-.75 3.75-.75-3.75.75-2.25-2.25 2.25 1.5 3.75zm0 30-.75-1.5 2.25-3.75 1.5.75 1.5-.75 2.25 3.75-.75 1.5-2.25 2.25 1.5-3.75-2.25-2.25.75 2.25-.75 3.75-.75-3.75.75-2.25-2.25 2.25 1.5 3.75zm0 7.5-.75-1.5 2.25-3.75 1.5.75 1.5-.75 2.25 3.75-.75 1.5-2.25 2.25 1.5-3.75-2.25-2.25.75 2.25-.75 3.75-.75-3.75.75-2.25-2.25 2.25 1.5 3.75zm7.5-67.5-.75-1.5 2.25-3.75 1.5.75 1.5-.75 2.25 3.75-.75 1.5-2.25 2.25 1.5-3.75-2.25-2.25.75 2.25-.75 3.75-.75-3.75.75-2.25-2.25 2.25 1.5 3.75zm0 7.5-.75-1.5 2.25-3.75 1.5.75 1.5-.75 2.25 3.75-.75 1.5-2.25 2.25 1.5-3.75-2.25-2.25.75 2.25-.75 3.75-.75-3.75.75-2.25-2.25 2.25 1.5 3.75zm0 22.5-.75-1.5 2.25-3.75 1.5.75 1.5-.75 2.25 3.75-.75 1.5-2.25 2.25 1.5-3.75-2.25-2.25.75 2.25-.75 3.75-.75-3.75.75-2.25-2.25 2.25 1.5 3.75zm0 37.5-.75-1.5 2.25-3.75 1.5.75 1.5-.75 2.25 3.75-.75 1.5-2.25 2.25 1.5-3.75-2.25-2.25.75 2.25-.75 3.75-.75-3.75.75-2.25-2.25 2.25 1.5 3.75zm7.5-67.5-.75-1.5 2.25-3.75 1.5.75 1.5-.75 2.25 3.75-.75 1.5-2.25 2.25 1.5-3.75-2.25-2.25.75 2.25-.75 3.75-.75-3.75.75-2.25-2.25 2.25 1.5 3.75zm0 7.5-.75-1.5 2.25-3.75 1.5.75 1.5-.75 2.25 3.75-.75 1.5-2.25 2.25 1.5-3.75-2.25-2.25.75 2.25-.75 3.75-.75-3.75.75-2.25-2.25 2.25 1.5 3.75zm0 7.5-.75-1.5 2.25-3.75 1.5.75 1.5-.75 2.25 3.75-.75 1.5-2.25 2.25 1.5-3.75-2.25-2.25.75 2.25-.75 3.75-.75-3.75.75-2.25-2.25 2.25 1.5 3.75zm0 15-.75-1.5 2.25-3.75 1.5.75 1.5-.75 2.25 3.75-.75 1.5-2.25 2.25 1.5-3.75-2.25-2.25.75 2.25-.75 3.75-.75-3.75.75-2.25-2.25 2.25 1.5 3.75zm0 37.5-.75-1.5 2.25-3.75 1.5.75 1.5-.75 2.25 3.75-.75 1.5-2.25 2.25 1.5-3.75-2.25-2.25.75 2.25-.75 3.75-.75-3.75.75-2.25-2.25 2.25 1.5 3.75zm7.5-60-.75-1.5 2.25-3.75 1.5.75 1.5-.75 2.25 3.75-.75 1.5-2.25 2.25 1.5-3.75-2.25-2.25.75 2.25-.75 3.75-.75-3.75.75-2.25-2.25 2.25 1.5 3.75zm0 7.5-.75-1.5 2.25-3.75 1.5.75 1.5-.75 2.25 3.75-.75 1.5-2.25 2.25 1.5-3.75-2.25-2.25.75 2.25-.75 3.75-.75-3.75.75-2.25-2.25 2.25 1.5 3.75zm0 7.5-.75-1.5 2.25-3.75 1.5.75 1.5-.75 2.25 3.75-.75 1.5-2.25 2.25 1.5-3.75-2.25-2.25.75 2.25-.75 3.75-.75-3.75.75-2.25-2.25 2.25 1.5 3.75zm0 7.5-.75-1.5 2.25-3.75 1.5.75 1.5-.75 2.25 3.75-.75 1.5-2.25 2.25 1.5-3.75-2.25-2.25.75 2.25-.75 3.75-.75-3.75.75-2.25-2.25 2.25 1.5 3.75zm0 30-.75-1.5 2.25-3.75 1.5.75 1.5-.75 2.25 3.75-.75 1.5-2.25 2.25 1.5-3.75-2.25-2.25.75 2.25-.75 3.75-.75-3.75.75-2.25-2.25 2.25 1.5 3.75zm7.5-45-.75-1.5 2.25-3.75 1.5.75 1.5-.75 2.25 3.75-.75 1.5-2.25 2.25 1.5-3.75-2.25-2.25.75 2.25-.75 3.75-.75-3.75.75-2.25-2.25 2.25 1.5 3.75zm0 7.5-.75-1.5 2.25-3.75 1.5.75 1.5-.75 2.25 3.75-.75 1.5-2.25 2.25 1.5-3.75-2.25-2.25.75 2.25-.75 3.75-.75-3.75.75-2.25-2.25 2.25 1.5 3.75zm0 7.5-.75-1.5 2.25-3.75 1.5.75 1.5-.75 2.25 3.75-.75 1.5-2.25 2.25 1.5-3.75-2.25-2.25.75 2.25-.75 3.75-.75-3.75.75-2.25-2.25 2.25 1.5 3.75zm0 22.5-.75-1.5 2.25-3.75 1.5.75 1.5-.75 2.25 3.75-.75 1.5-2.25 2.25 1.5-3.75-2.25-2.25.75 2.25-.75 3.75-.75-3.75.75-2.25-2.25 2.25 1.5 3.75zm7.5-30-.75-1.5 2.25-3.75 1.5.75 1.5-.75 2.25 3.75-.75 1.5-2.25 2.25 1.5-3.75-2.25-2.25.75 2.25-.75 3.75-.75-3.75.75-2.25-2.25 2.25 1.5 3.75z" fill="darkmagenta"/><path d="m1731.29 981-.75-1.5 2.25-3.75 1.5.75 1.5-.75 2.25 3.75-.75 1.5-2.25 2.25 1.5-3.75-2.25-2.25.75 2.25-.75 3.75-.75-3.75.75-2.25-2.25 2.25 1.5 3.75zm0 7.5-.75-1.5 2.25-3.75 1.5.75 1.5-.75 2.21 3.75-.75 1.5-2.25 2.25 1.5-3.75-2.25-2.25.75 2.25-.75 3.75-.75-3.75.75-2.25-2.25 2.25 1.5 3.75zm7.5 0-.79-1.5 2.25-3.75 1.5.75 1.5-.75 2.25 3.75-.75 1.5-2.25 2.25 1.5-3.75-2.25-2.25.75 2.25-.75 3.75-.75-3.75.75-2.25-2.25 2.25 1.5 3.75zm0 60-.75-1.5 2.25-3.75 1.5.75 1.5-.75 2.25 3.75-.75 1.5-2.25 2.25 1.5-3.75-2.25-2.25.75 2.25-.75 3.75-.79-3.75.75-2.25-2.25 2.25 1.5 3.75zm7.5-60-.75-1.5 2.25-3.75 1.5.75 1.5-.75 2.21 3.75-.75 1.5-2.25 2.25 1.5-3.75-2.25-2.25.75 2.25-.75 3.75-.75-3.75.75-2.25-2.25 2.25 1.5 3.75zm0 60-.75-1.5 2.25-3.75 1.5.75 1.5-.75 2.21 3.75-.75 1.5-2.25 2.25 1.5-3.75-2.25-2.25.75 2.25-.75 3.75-.75-3.75.75-2.25-2.25 2.25 1.5 3.75zm7.5-67.5-.75-1.5 2.25-3.75 1.5.75 1.5-.75 2.25 3.75-.75 1.5-2.25 2.25 1.5-3.75-2.25-2.25.75 2.25-.75 3.75-.75-3.75.75-2.25-2.25 2.25 1.5 3.75zm0 7.5-.79-1.5 2.25-3.75 1.5.75 1.5-.75 2.25 3.75-.75 1.5-2.25 2.25 1.5-3.75-2.25-2.25.75 2.25-.75 3.75-.75-3.75.75-2.25-2.25 2.25 1.5 3.75zm0 7.5-.75-1.5 2.25-3.75 1.5.75 1.5-.75 2.25 3.75-.75 1.5-2.25 2.25 1.5-3.75-2.25-2.25.75 2.25-.75 3.75-.75-3.75.75-2.25-2.25 2.25 1.5 3.75zm0 7.5-.75-1.5 2.25-3.75 1.5.75 1.5-.75 2.25 3.75-.75 1.5-2.25 2.25 1.5-3.75-2.25-2.25.75 2.25-.75 3.75-.79-3.75.75-2.25-2.25 2.25 1.5 3.75zm0 7.5-.75-1.5 2.25-3.75 1.5.75 1.5-.75 2.25 3.75-.75 1.5-2.25 2.25 1.5-3.75-2.25-2.25.75 2.25-.75 3.75-.75-3.75.75-2.25-2.25 2.25 1.5 3.75zm0 7.5-.75-1.5 2.25-3.75 1.5.75 1.5-.75 2.25 3.75-.75 1.5-2.25 2.25 1.5-3.75-2.25-2.25.75 2.25-.75 3.75-.79-3.75.75-2.25-2.25 2.25 1.5 3.75zm0 7.5-.75-1.5 2.25-3.75 1.5.75 1.5-.75 2.25 3.75-.75 1.5-2.25 2.25 1.5-3.75-2.25-2.25.75 2.25-.75 3.75-.75-3.75.75-2.25-2.25 2.25 1.5 3.75zm0 7.5-.75-1.5 2.25-3.75 1.5.75 1.5-.75 2.25 3.75-.75 1.5-2.25 2.25 1.5-3.75-2.25-2.25.75 2.25-.75 3.75-.79-3.75.75-2.25-2.25 2.25 1.5 3.75zm0 7.5-.75-1.5 2.25-3.75 1.5.75 1.5-.75 2.25 3.75-.75 1.5-2.25 2.25 1.5-3.75-2.25-2.25.75 2.25-.75 3.75-.75-3.75.75-2.25-2.25 2.25 1.5 3.75zm0 7.5-.75-1.5 2.25-3.75 1.5.75 1.5-.75 2.25 3.75-.75 1.5-2.25 2.25 1.5-3.75-2.25-2.25.75 2.25-.75 3.75-.79-3.75.75-2.25-2.25 2.25 1.5 3.75zm7.5-67.5-.75-1.5 2.25-3.75 1.5.75 1.5-.75 2.25 3.75-.75 1.5-2.25 2.25 1.5-3.75-2.25-2.25.75 2.25-.75 3.75-.75-3.75.75-2.25-2.25 2.25 1.5 3.75zm0 7.5-.75-1.5 2.25-3.75 1.5.75 1.5-.75 2.21 3.75-.75 1.5-2.25 2.25 1.5-3.75-2.25-2.25.75 2.25-.75 3.75-.75-3.75.75-2.25-2.25 2.25 1.5 3.75zm0 7.5-.75-1.5 2.25-3.75 1.5.75 1.5-.75 2.25 3.75-.75 1.5-2.25 2.25 1.5-3.75-2.25-2.25.75 2.25-.75 3.75-.75-3.75.75-2.25-2.25 2.25 1.5 3.75zm0 7.5-.75-1.5 2.25-3.75 1.5.75 1.5-.75 2.21 3.75-.75 1.5-2.25 2.25 1.5-3.75-2.25-2.25.75 2.25-.75 3.75-.75-3.75.75-2.25-2.25 2.25 1.5 3.75zm0 7.5-.75-1.5 2.25-3.75 1.5.75 1.5-.75 2.25 3.75-.75 1.5-2.25 2.25 1.5-3.75-2.25-2.25.75 2.25-.75 3.75-.75-3.75.75-2.25-2.25 2.25 1.5 3.75zm0 7.5-.75-1.5 2.25-3.75 1.5.75 1.5-.75 2.21 3.75-.75 1.5-2.25 2.25 1.5-3.75-2.25-2.25.75 2.25-.75 3.75-.75-3.75.75-2.25-2.25 2.25 1.5 3.75zm0 7.5-.75-1.5 2.25-3.75 1.5.75 1.5-.75 2.25 3.75-.75 1.5-2.25 2.25 1.5-3.75-2.25-2.25.75 2.25-.75 3.75-.75-3.75.75-2.25-2.25 2.25 1.5 3.75zm0 7.5-.75-1.5 2.25-3.75 1.5.75 1.5-.75 2.21 3.75-.75 1.5-2.25 2.25 1.5-3.75-2.25-2.25.75 2.25-.75 3.75-.75-3.75.75-2.25-2.25 2.25 1.5 3.75zm0 7.5-.75-1.5 2.25-3.75 1.5.75 1.5-.75 2.25 3.75-.75 1.5-2.25 2.25 1.5-3.75-2.25-2.25.75 2.25-.75 3.75-.75-3.75.75-2.25-2.25 2.25 1.5 3.75zm0 7.5-.75-1.5 2.25-3.75 1.5.75 1.5-.75 2.21 3.75-.75 1.5-2.25 2.25 1.5-3.75-2.25-2.25.75 2.25-.75 3.75-.75-3.75.75-2.25-2.25 2.25 1.5 3.75zm7.5-52.5-.75-1.5 2.25-3.75 1.5.75 1.5-.75 2.25 3.75-.75 1.5-2.25 2.25 1.5-3.75-2.25-2.25.75 2.25-.75 3.75-.75-3.75.75-2.25-2.25 2.25 1.5 3.75zm0 45-.75-1.5 2.25-3.75 1.5.75 1.5-.75 2.25 3.75-.75 1.5-2.25 2.25 1.5-3.75-2.25-2.25.75 2.25-.75 3.75-.75-3.75.75-2.25-2.25 2.25 1.5 3.75zm7.5-52.5-.75-1.5 2.25-3.75 1.5.75 1.5-.75 2.21 3.75-.75 1.5-2.25 2.25 1.5-3.75-2.25-2.25.75 2.25-.75 3.75-.75-3.75.75-2.25-2.25 2.25 1.5 3.75zm7.5-7.5-.75-1.5 2.25-3.75 1.5.75 1.5-.75 2.25 3.75-.75 1.5-2.25 2.25 1.5-3.75-2.25-2.25.75 2.25-.75 3.75-.75-3.75.75-2.25-2.25 2.25 1.5 3.75zm7.5 0-.75-1.5 2.25-3.75 1.5.75 1.5-.75 2.25 3.75-.75 1.5-2.25 2.25 1.5-3.75-2.25-2.25.75 2.25-.75 3.75-.75-3.75.75-2.25-2.25 2.25 1.5 3.75zm0 7.5-.75-1.5 2.25-3.75 1.5.75 1.5-.75 2.21 3.75-.75 1.5-2.25 2.25 1.5-3.75-2.25-2.25.75 2.25-.75 3.75-.75-3.75.75-2.25-2.25 2.25 1.5 3.75zm7.5-7.5-.75-1.5 2.25-3.75 1.5.75 1.5-.75 2.25 3.75-.75 1.5-2.25 2.25 1.5-3.75-2.25-2.25.75 2.25-.75 3.75-.75-3.75.75-2.25-2.25 2.25 1.5 3.75zm0 7.5-.79-1.5 2.25-3.75 1.5.75 1.5-.75 2.25 3.75-.75 1.5-2.25 2.25 1.5-3.75-2.25-2.25.75 2.25-.75 3.75-.75-3.75.75-2.25-2.25 2.25 1.5 3.75zm0 7.5-.75-1.5 2.25-3.75 1.5.75 1.5-.75 2.25 3.75-.75 1.5-2.25 2.25 1.5-3.75-2.25-2.25.75 2.25-.75 3.75-.75-3.75.75-2.25-2.25 2.25 1.5 3.75zm0 7.5-.75-1.5 2.25-3.75 1.5.75 1.5-.75 2.25 3.75-.75 1.5-2.25 2.25 1.5-3.75-2.25-2.25.75 2.25-.75 3.75-.79-3.75.75-2.25-2.25 2.25 1.5 3.75zm0 7.5-.75-1.5 2.25-3.75 1.5.75 1.5-.75 2.25 3.75-.75 1.5-2.25 2.25 1.5-3.75-2.25-2.25.75 2.25-.75 3.75-.75-3.75.75-2.25-2.25 2.25 1.5 3.75zm0 7.5-.75-1.5 2.25-3.75 1.5.75 1.5-.75 2.25 3.75-.75 1.5-2.25 2.25 1.5-3.75-2.25-2.25.75 2.25-.75 3.75-.79-3.75.75-2.25-2.25 2.25 1.5 3.75zm0 7.5-.75-1.5 2.25-3.75 1.5.75 1.5-.75 2.25 3.75-.75 1.5-2.25 2.25 1.5-3.75-2.25-2.25.75 2.25-.75 3.75-.75-3.75.75-2.25-2.25 2.25 1.5 3.75zm0 7.5-.75-1.5 2.25-3.75 1.5.75 1.5-.75 2.25 3.75-.75 1.5-2.25 2.25 1.5-3.75-2.25-2.25.75 2.25-.75 3.75-.79-3.75.75-2.25-2.25 2.25 1.5 3.75zm0 7.5-.75-1.5 2.25-3.75 1.5.75 1.5-.75 2.25 3.75-.75 1.5-2.25 2.25 1.5-3.75-2.25-2.25.75 2.25-.75 3.75-.75-3.75.75-2.25-2.25 2.25 1.5 3.75zm0 7.5-.75-1.5 2.25-3.75 1.5.75 1.5-.75 2.25 3.75-.75 1.5-2.25 2.25 1.5-3.75-2.25-2.25.75 2.25-.75 3.75-.79-3.75.75-2.25-2.25 2.25 1.5 3.75zm7.5-60-.75-1.5 2.25-3.75 1.5.75 1.5-.75 2.21 3.75-.75 1.5-2.25 2.25 1.5-3.75-2.25-2.25.75 2.25-.75 3.75-.75-3.75.75-2.25-2.25 2.25 1.5 3.75zm0 7.5-.75-1.5 2.25-3.75 1.5.75 1.5-.75 2.25 3.75-.75 1.5-2.25 2.25 1.5-3.75-2.25-2.25.75 2.25-.75 3.75-.75-3.75.75-2.25-2.25 2.25 1.5 3.75zm0 7.5-.75-1.5 2.25-3.75 1.5.75 1.5-.75 2.21 3.75-.75 1.5-2.25 2.25 1.5-3.75-2.25-2.25.75 2.25-.75 3.75-.75-3.75.75-2.25-2.25 2.25 1.5 3.75zm0 7.5-.75-1.5 2.25-3.75 1.5.75 1.5-.75 2.25 3.75-.75 1.5-2.25 2.25 1.5-3.75-2.25-2.25.75 2.25-.75 3.75-.75-3.75.75-2.25-2.25 2.25 1.5 3.75zm0 7.5-.75-1.5 2.25-3.75 1.5.75 1.5-.75 2.21 3.75-.75 1.5-2.25 2.25 1.5-3.75-2.25-2.25.75 2.25-.75 3.75-.75-3.75.75-2.25-2.25 2.25 1.5 3.75zm0 7.5-.75-1.5 2.25-3.75 1.5.75 1.5-.75 2.25 3.75-.75 1.5-2.25 2.25 1.5-3.75-2.25-2.25.75 2.25-.75 3.75-.75-3.75.75-2.25-2.25 2.25 1.5 3.75zm0 7.5-.75-1.5 2.25-3.75 1.5.75 1.5-.75 2.21 3.75-.75 1.5-2.25 2.25 1.5-3.75-2.25-2.25.75 2.25-.75 3.75-.75-3.75.75-2.25-2.25 2.25 1.5 3.75zm0 7.5-.75-1.5 2.25-3.75 1.5.75 1.5-.75 2.25 3.75-.75 1.5-2.25 2.25 1.5-3.75-2.25-2.25.75 2.25-.75 3.75-.75-3.75.75-2.25-2.25 2.25 1.5 3.75zm0 7.5-.75-1.5 2.25-3.75 1.5.75 1.5-.75 2.21 3.75-.75 1.5-2.25 2.25 1.5-3.75-2.25-2.25.75 2.25-.75 3.75-.75-3.75.75-2.25-2.25 2.25 1.5 3.75zm7.5 0-.75-1.5 2.25-3.75 1.5.75 1.5-.75 2.25 3.75-.75 1.5-2.25 2.25 1.5-3.75-2.25-2.25.75 2.25-.75 3.75-.79-3.75.75-2.25-2.25 2.25 1.5 3.75zm7.5 0-.75-1.5 2.25-3.75 1.5.75 1.5-.75 2.21 3.75-.75 1.5-2.25 2.25 1.5-3.75-2.25-2.25.75 2.25-.75 3.75-.75-3.75.75-2.25-2.25 2.25 1.5 3.75zm7.5-7.5-.75-1.5 2.25-3.75 1.5.75 1.5-.75 2.25 3.75-.75 1.5-2.25 2.25 1.5-3.75-2.25-2.25.75 2.25-.75 3.75-.75-3.75.75-2.25-2.25 2.25 1.5 3.75z" fill="darkmagenta"/><path d="m193.05 970-.75-1.5 2.25-3.75 1.5.75 1.5-.75 2.25 3.75-.75 1.5-2.25 2.25 1.5-3.75-2.25-2.25.75 2.25-.75 3.75-.75-3.75.75-2.25-2.25 2.25 1.5 3.75zm7.5 0-.75-1.5 2.25-3.75 1.5.75 1.5-.75 2.25 3.75-.75 1.5-2.25 2.25 1.5-3.75-2.25-2.25.75 2.25-.75 3.75-.75-3.75.75-2.25-2.25 2.25 1.5 3.75zm7.5 0-.75-1.5 2.25-3.75 1.5.75 1.5-.75 2.25 3.75-.75 1.5-2.25 2.25 1.5-3.75-2.25-2.25.75 2.25-.75 3.75-.75-3.75.75-2.25-2.25 2.25 1.5 3.75zm0 7.5-.75-1.5 2.25-3.75 1.5.75 1.5-.75 2.25 3.75-.75 1.5-2.25 2.25 1.5-3.75-2.25-2.25.75 2.25-.75 3.75-.75-3.75.75-2.25-2.25 2.25 1.5 3.75zm0 7.5-.75-1.5 2.25-3.75 1.5.75 1.5-.75 2.25 3.75-.75 1.5-2.25 2.25 1.5-3.75-2.25-2.25.75 2.25-.75 3.75-.75-3.75.75-2.25-2.25 2.25 1.5 3.75zm0 7.5-.75-1.5 2.25-3.75 1.5.75 1.5-.75 2.25 3.75-.75 1.5-2.25 2.25 1.5-3.75-2.25-2.25.75 2.25-.75 3.75-.75-3.75.75-2.25-2.25 2.25 1.5 3.75zm0 7.5-.75-1.5 2.25-3.75 1.5.75 1.5-.75 2.25 3.75-.75 1.5-2.25 2.25 1.5-3.75-2.25-2.25.75 2.25-.75 3.75-.75-3.75.75-2.25-2.25 2.25 1.5 3.75zm0 7.5-.75-1.5 2.25-3.75 1.5.75 1.5-.75 2.25 3.75-.75 1.5-2.25 2.25 1.5-3.75-2.25-2.25.75 2.25-.75 3.75-.75-3.75.75-2.25-2.25 2.25 1.5 3.75zm0 7.5-.75-1.5 2.25-3.75 1.5.75 1.5-.75 2.25 3.75-.75 1.5-2.25 2.25 1.5-3.75-2.25-2.25.75 2.25-.75 3.75-.75-3.75.75-2.25-2.25 2.25 1.5 3.75zm0 7.5-.75-1.5 2.25-3.75 1.5.75 1.5-.75 2.25 3.75-.75 1.5-2.25 2.25 1.5-3.75-2.25-2.25.75 2.25-.75 3.75-.75-3.75.75-2.25-2.25 2.25 1.5 3.75zm0 30-.75-1.5 2.25-3.75 1.5.75 1.5-.75 2.25 3.75-.75 1.5-2.25 2.25 1.5-3.75-2.25-2.25.75 2.25-.75 3.75-.75-3.75.75-2.25-2.25 2.25 1.5 3.75zm0 7.5-.75-1.5 2.25-3.75 1.5.75 1.5-.75 2.25 3.75-.75 1.5-2.25 2.25 1.5-3.75-2.25-2.25.75 2.25-.75 3.75-.75-3.75.75-2.25-2.25 2.25 1.5 3.75zm7.5-90-.75-1.5 2.25-3.75 1.5.75 1.5-.75 2.25 3.75-.75 1.5-2.25 2.25 1.5-3.75-2.25-2.25.75 2.25-.75 3.75-.75-3.75.75-2.25-2.25 2.25 1.5 3.75zm0 7.5-.75-1.5 2.25-3.75 1.5.75 1.5-.75 2.25 3.75-.75 1.5-2.25 2.25 1.5-3.75-2.25-2.25.75 2.25-.75 3.75-.75-3.75.75-2.25-2.25 2.25 1.5 3.75zm0 7.5-.75-1.5 2.25-3.75 1.5.75 1.5-.75 2.25 3.75-.75 1.5-2.25 2.25 1.5-3.75-2.25-2.25.75 2.25-.75 3.75-.75-3.75.75-2.25-2.25 2.25 1.5 3.75zm0 7.5-.75-1.5 2.25-3.75 1.5.75 1.5-.75 2.25 3.75-.75 1.5-2.25 2.25 1.5-3.75-2.25-2.25.75 2.25-.75 3.75-.75-3.75.75-2.25-2.25 2.25 1.5 3.75zm0 7.5-.75-1.5 2.25-3.75 1.5.75 1.5-.75 2.25 3.75-.75 1.5-2.25 2.25 1.5-3.75-2.25-2.25.75 2.25-.75 3.75-.75-3.75.75-2.25-2.25 2.25 1.5 3.75zm0 7.5-.75-1.5 2.25-3.75 1.5.75 1.5-.75 2.25 3.75-.75 1.5-2.25 2.25 1.5-3.75-2.25-2.25.75 2.25-.75 3.75-.75-3.75.75-2.25-2.25 2.25 1.5 3.75zm0 7.5-.75-1.5 2.25-3.75 1.5.75 1.5-.75 2.25 3.75-.75 1.5-2.25 2.25 1.5-3.75-2.25-2.25.75 2.25-.75 3.75-.75-3.75.75-2.25-2.25 2.25 1.5 3.75zm0 7.5-.75-1.5 2.25-3.75 1.5.75 1.5-.75 2.25 3.75-.75 1.5-2.25 2.25 1.5-3.75-2.25-2.25.75 2.25-.75 3.75-.75-3.75.75-2.25-2.25 2.25 1.5 3.75zm0 7.5-.75-1.5 2.25-3.75 1.5.75 1.5-.75 2.25 3.75-.75 1.5-2.25 2.25 1.5-3.75-2.25-2.25.75 2.25-.75 3.75-.75-3.75.75-2.25-2.25 2.25 1.5 3.75zm0 30-.75-1.5 2.25-3.75 1.5.75 1.5-.75 2.25 3.75-.75 1.5-2.25 2.25 1.5-3.75-2.25-2.25.75 2.25-.75 3.75-.75-3.75.75-2.25-2.25 2.25 1.5 3.75zm0 7.5-.75-1.5 2.25-3.75 1.5.75 1.5-.75 2.25 3.75-.75 1.5-2.25 2.25 1.5-3.75-2.25-2.25.75 2.25-.75 3.75-.75-3.75.75-2.25-2.25 2.25 1.5 3.75zm7.5-90-.75-1.5 2.25-3.75 1.5.75 1.5-.75 2.25 3.75-.75 1.5-2.25 2.25 1.5-3.75-2.25-2.25.75 2.25-.75 3.75-.75-3.75.75-2.25-2.25 2.25 1.5 3.75zm0 52.5-.75-1.5 2.25-3.75 1.5.75 1.5-.75 2.25 3.75-.75 1.5-2.25 2.25 1.5-3.75-2.25-2.25.75 2.25-.75 3.75-.75-3.75.75-2.25-2.25 2.25 1.5 3.75zm0 7.5-.75-1.5 2.25-3.75 1.5.75 1.5-.75 2.25 3.75-.75 1.5-2.25 2.25 1.5-3.75-2.25-2.25.75 2.25-.75 3.75-.75-3.75.75-2.25-2.25 2.25 1.5 3.75zm0 30-.75-1.5 2.25-3.75 1.5.75 1.5-.75 2.25 3.75-.75 1.5-2.25 2.25 1.5-3.75-2.25-2.25.75 2.25-.75 3.75-.75-3.75.75-2.25-2.25 2.25 1.5 3.75zm7.5-30-.75-1.5 2.25-3.75 1.5.75 1.5-.75 2.25 3.75-.75 1.5-2.25 2.25 1.5-3.75-2.25-2.25.75 2.25-.75 3.75-.75-3.75.75-2.25-2.25 2.25 1.5 3.75zm0 30-.75-1.5 2.25-3.75 1.5.75 1.5-.75 2.25 3.75-.75 1.5-2.25 2.25 1.5-3.75-2.25-2.25.75 2.25-.75 3.75-.75-3.75.75-2.25-2.25 2.25 1.5 3.75zm7.5-30-.75-1.5 2.25-3.75 1.5.75 1.5-.75 2.25 3.75-.75 1.5-2.25 2.25 1.5-3.75-2.25-2.25.75 2.25-.75 3.75-.75-3.75.75-2.25-2.25 2.25 1.5 3.75zm0 30-.75-1.5 2.25-3.75 1.5.75 1.5-.75 2.25 3.75-.75 1.5-2.25 2.25 1.5-3.75-2.25-2.25.75 2.25-.75 3.75-.75-3.75.75-2.25-2.25 2.25 1.5 3.75zm7.5-97.5-.75-1.5 2.25-3.75 1.5.75 1.5-.75 2.25 3.75-.75 1.5-2.25 2.25 1.5-3.75-2.25-2.25.75 2.25-.75 3.75-.75-3.75.75-2.25-2.25 2.25 1.5 3.75zm0 60-.75-1.5 2.25-3.75 1.5.75 1.5-.75 2.25 3.75-.75 1.5-2.25 2.25 1.5-3.75-2.25-2.25.75 2.25-.75 3.75-.75-3.75.75-2.25-2.25 2.25 1.5 3.75zm0 30-.75-1.5 2.25-3.75 1.5.75 1.5-.75 2.25 3.75-.75 1.5-2.25 2.25 1.5-3.75-2.25-2.25.75 2.25-.75 3.75-.75-3.75.75-2.25-2.25 2.25 1.5 3.75zm0 7.5-.75-1.5 2.25-3.75 1.5.75 1.5-.75 2.25 3.75-.75 1.5-2.25 2.25 1.5-3.75-2.25-2.25.75 2.25-.75 3.75-.75-3.75.75-2.25-2.25 2.25 1.5 3.75zm7.5-97.5-.75-1.5 2.25-3.75 1.5.75 1.5-.75 2.25 3.75-.75 1.5-2.25 2.25 1.5-3.75-2.25-2.25.75 2.25-.75 3.75-.75-3.75.75-2.25-2.25 2.25 1.5 3.75zm0 7.5-.75-1.5 2.25-3.75 1.5.75 1.5-.75 2.25 3.75-.75 1.5-2.25 2.25 1.5-3.75-2.25-2.25.75 2.25-.75 3.75-.75-3.75.75-2.25-2.25 2.25 1.5 3.75zm0 7.5-.75-1.5 2.25-3.75 1.5.75 1.5-.75 2.25 3.75-.75 1.5-2.25 2.25 1.5-3.75-2.25-2.25.75 2.25-.75 3.75-.75-3.75.75-2.25-2.25 2.25 1.5 3.75zm0 7.5-.75-1.5 2.25-3.75 1.5.75 1.5-.75 2.25 3.75-.75 1.5-2.25 2.25 1.5-3.75-2.25-2.25.75 2.25-.75 3.75-.75-3.75.75-2.25-2.25 2.25 1.5 3.75zm0 7.5-.75-1.5 2.25-3.75 1.5.75 1.5-.75 2.25 3.75-.75 1.5-2.25 2.25 1.5-3.75-2.25-2.25.75 2.25-.75 3.75-.75-3.75.75-2.25-2.25 2.25 1.5 3.75zm0 7.5-.75-1.5 2.25-3.75 1.5.75 1.5-.75 2.25 3.75-.75 1.5-2.25 2.25 1.5-3.75-2.25-2.25.75 2.25-.75 3.75-.75-3.75.75-2.25-2.25 2.25 1.5 3.75zm0 7.5-.75-1.5 2.25-3.75 1.5.75 1.5-.75 2.25 3.75-.75 1.5-2.25 2.25 1.5-3.75-2.25-2.25.75 2.25-.75 3.75-.75-3.75.75-2.25-2.25 2.25 1.5 3.75zm0 7.5-.75-1.5 2.25-3.75 1.5.75 1.5-.75 2.25 3.75-.75 1.5-2.25 2.25 1.5-3.75-2.25-2.25.75 2.25-.75 3.75-.75-3.75.75-2.25-2.25 2.25 1.5 3.75zm0 7.5-.75-1.5 2.25-3.75 1.5.75 1.5-.75 2.25 3.75-.75 1.5-2.25 2.25 1.5-3.75-2.25-2.25.75 2.25-.75 3.75-.75-3.75.75-2.25-2.25 2.25 1.5 3.75zm0 7.5-.75-1.5 2.25-3.75 1.5.75 1.5-.75 2.25 3.75-.75 1.5-2.25 2.25 1.5-3.75-2.25-2.25.75 2.25-.75 3.75-.75-3.75.75-2.25-2.25 2.25 1.5 3.75zm0 7.5-.75-1.5 2.25-3.75 1.5.75 1.5-.75 2.25 3.75-.75 1.5-2.25 2.25 1.5-3.75-2.25-2.25.75 2.25-.75 3.75-.75-3.75.75-2.25-2.25 2.25 1.5 3.75zm0 7.5-.75-1.5 2.25-3.75 1.5.75 1.5-.75 2.25 3.75-.75 1.5-2.25 2.25 1.5-3.75-2.25-2.25.75 2.25-.75 3.75-.75-3.75.75-2.25-2.25 2.25 1.5 3.75zm0 7.5-.75-1.5 2.25-3.75 1.5.75 1.5-.75 2.25 3.75-.75 1.5-2.25 2.25 1.5-3.75-2.25-2.25.75 2.25-.75 3.75-.75-3.75.75-2.25-2.25 2.25 1.5 3.75zm7.5-90-.75-1.5 2.25-3.75 1.5.75 1.5-.75 2.25 3.75-.75 1.5-2.25 2.25 1.5-3.75-2.25-2.25.75 2.25-.75 3.75-.75-3.75.75-2.25-2.25 2.25 1.5 3.75zm0 7.5-.75-1.5 2.25-3.75 1.5.75 1.5-.75 2.25 3.75-.75 1.5-2.25 2.25 1.5-3.75-2.25-2.25.75 2.25-.75 3.75-.75-3.75.75-2.25-2.25 2.25 1.5 3.75zm0 7.5-.75-1.5 2.25-3.75 1.5.75 1.5-.75 2.25 3.75-.75 1.5-2.25 2.25 1.5-3.75-2.25-2.25.75 2.25-.75 3.75-.75-3.75.75-2.25-2.25 2.25 1.5 3.75zm0 7.5-.75-1.5 2.25-3.75 1.5.75 1.5-.75 2.25 3.75-.75 1.5-2.25 2.25 1.5-3.75-2.25-2.25.75 2.25-.75 3.75-.75-3.75.75-2.25-2.25 2.25 1.5 3.75zm0 7.5-.75-1.5 2.25-3.75 1.5.75 1.5-.75 2.25 3.75-.75 1.5-2.25 2.25 1.5-3.75-2.25-2.25.75 2.25-.75 3.75-.75-3.75.75-2.25-2.25 2.25 1.5 3.75zm0 7.5-.75-1.5 2.25-3.75 1.5.75 1.5-.75 2.25 3.75-.75 1.5-2.25 2.25 1.5-3.75-2.25-2.25.75 2.25-.75 3.75-.75-3.75.75-2.25-2.25 2.25 1.5 3.75zm0 7.5-.75-1.5 2.25-3.75 1.5.75 1.5-.75 2.25 3.75-.75 1.5-2.25 2.25 1.5-3.75-2.25-2.25.75 2.25-.75 3.75-.75-3.75.75-2.25-2.25 2.25 1.5 3.75zm0 7.5-.75-1.5 2.25-3.75 1.5.75 1.5-.75 2.25 3.75-.75 1.5-2.25 2.25 1.5-3.75-2.25-2.25.75 2.25-.75 3.75-.75-3.75.75-2.25-2.25 2.25 1.5 3.75zm0 7.5-.75-1.5 2.25-3.75 1.5.75 1.5-.75 2.25 3.75-.75 1.5-2.25 2.25 1.5-3.75-2.25-2.25.75 2.25-.75 3.75-.75-3.75.75-2.25-2.25 2.25 1.5 3.75zm0 7.5-.75-1.5 2.25-3.75 1.5.75 1.5-.75 2.25 3.75-.75 1.5-2.25 2.25 1.5-3.75-2.25-2.25.75 2.25-.75 3.75-.75-3.75.75-2.25-2.25 2.25 1.5 3.75zm0 7.5-.75-1.5 2.25-3.75 1.5.75 1.5-.75 2.25 3.75-.75 1.5-2.25 2.25 1.5-3.75-2.25-2.25.75 2.25-.75 3.75-.75-3.75.75-2.25-2.25 2.25 1.5 3.75zm0 7.5-.75-1.5 2.25-3.75 1.5.75 1.5-.75 2.25 3.75-.75 1.5-2.25 2.25 1.5-3.75-2.25-2.25.75 2.25-.75 3.75-.75-3.75.75-2.25-2.25 2.25 1.5 3.75zm7.5-75-.75-1.5 2.25-3.75 1.5.75 1.5-.75 2.25 3.75-.75 1.5-2.25 2.25 1.5-3.75-2.25-2.25.75 2.25-.75 3.75-.75-3.75.75-2.25-2.25 2.25 1.5 3.75z" fill="darkmagenta"/><path d="m968 1753.31-.76-1.5 2.26-3.75 1.5.75 1.51-.75 2.25 3.75-.75 1.5-2.26 2.25 1.51-3.75-2.26-2.25.75 2.25-.75 3.75-.75-3.75.75-2.25-2.25 2.25 1.5 3.75zm7.51 0-.75-1.5 2.26-3.75 1.5.75 1.5-.75 2.26 3.75-.76 1.5-2.25 2.25 1.5-3.75-2.25-2.25.75 2.25-.75 3.75-.75-3.75.75-2.25-2.26 2.25 1.51 3.75zm7.52 0-.75-1.5 2.25-3.75 1.5.75 1.51-.75 2.25 3.75-.75 1.5-2.25 2.25 1.5-3.75-2.26-2.25.76 2.25-.76 3.75-.75-3.75.75-2.25-2.25 2.25 1.5 3.75zm0 7.5-.75-1.5 2.25-3.75 1.5.75 1.51-.75 2.25 3.75-.75 1.5-2.25 2.25 1.5-3.75-2.26-2.25.76 2.25-.76 3.75-.75-3.75.75-2.25-2.25 2.25 1.5 3.75zm0 7.5-.75-1.5 2.25-3.75 1.5.75 1.51-.75 2.25 3.75-.75 1.5-2.25 2.25 1.5-3.75-2.26-2.25.76 2.25-.76 3.75-.75-3.75.75-2.25-2.25 2.25 1.5 3.75zm0 7.5-.75-1.5 2.25-3.75 1.5.75 1.51-.75 2.25 3.75-.75 1.5-2.25 2.25 1.5-3.75-2.26-2.25.76 2.25-.76 3.75-.75-3.75.75-2.25-2.25 2.25 1.5 3.75zm0 7.5-.75-1.5 2.25-3.75 1.5.75 1.51-.75 2.25 3.75-.75 1.5-2.25 2.25 1.5-3.75-2.26-2.25.76 2.25-.76 3.75-.75-3.75.75-2.25-2.25 2.25 1.5 3.75zm0 7.5-.75-1.5 2.25-3.75 1.5.75 1.51-.75 2.25 3.75-.75 1.5-2.25 2.25 1.5-3.75-2.26-2.25.76 2.25-.76 3.75-.75-3.75.75-2.25-2.25 2.25 1.5 3.75zm0 7.5-.75-1.5 2.25-3.75 1.5.75 1.51-.75 2.25 3.75-.75 1.5-2.25 2.25 1.5-3.75-2.26-2.25.76 2.25-.76 3.75-.75-3.75.75-2.25-2.25 2.25 1.5 3.75zm7.51-45-.75-1.5 2.26-3.75 1.5.75 1.5-.75 2.26 3.75-.75 1.5-2.26 2.25 1.51-3.75-2.26-2.25.75 2.25-.75 3.75-.75-3.75.75-2.25-2.25 2.25 1.5 3.75zm0 7.5-.75-1.5 2.26-3.75 1.5.75 1.5-.75 2.26 3.75-.75 1.5-2.26 2.25 1.51-3.75-2.26-2.25.75 2.25-.75 3.75-.75-3.75.75-2.25-2.25 2.25 1.5 3.75zm0 7.5-.75-1.5 2.26-3.75 1.5.75 1.5-.75 2.26 3.75-.75 1.5-2.26 2.25 1.51-3.75-2.26-2.25.75 2.25-.75 3.75-.75-3.75.75-2.25-2.25 2.25 1.5 3.75zm0 7.5-.75-1.5 2.26-3.75 1.5.75 1.5-.75 2.26 3.75-.75 1.5-2.26 2.25 1.51-3.75-2.26-2.25.75 2.25-.75 3.75-.75-3.75.75-2.25-2.25 2.25 1.5 3.75zm0 7.5-.75-1.5 2.26-3.75 1.5.75 1.5-.75 2.26 3.75-.75 1.5-2.26 2.25 1.51-3.75-2.26-2.25.75 2.25-.75 3.75-.75-3.75.75-2.25-2.25 2.25 1.5 3.75zm0 7.5-.75-1.5 2.26-3.75 1.5.75 1.5-.75 2.26 3.75-.75 1.5-2.26 2.25 1.51-3.75-2.26-2.25.75 2.25-.75 3.75-.75-3.75.75-2.25-2.25 2.25 1.5 3.75zm0 7.5-.75-1.5 2.26-3.75 1.5.75 1.5-.75 2.26 3.75-.75 1.5-2.26 2.25 1.51-3.75-2.26-2.25.75 2.25-.75 3.75-.75-3.75.75-2.25-2.25 2.25 1.5 3.75zm0 7.5-.75-1.5 2.26-3.75 1.5.75 1.5-.75 2.26 3.75-.75 1.5-2.26 2.25 1.51-3.75-2.26-2.25.75 2.25-.75 3.75-.75-3.75.75-2.25-2.25 2.25 1.5 3.75zm7.52-45-.75-1.5 2.25-3.75 1.51.75 1.5-.75 2.26 3.75-.76 1.5-2.25 2.25 1.5-3.75-2.25-2.25.75 2.25-.75 3.75-.75-3.75.75-2.25-2.26 2.25 1.51 3.75zm0 37.5-.75-1.5 2.25-3.75 1.51.75 1.5-.75 2.26 3.75-.76 1.5-2.25 2.25 1.5-3.75-2.25-2.25.75 2.25-.75 3.75-.75-3.75.75-2.25-2.26 2.25 1.51 3.75zm0 7.5-.75-1.5 2.25-3.75 1.51.75 1.5-.75 2.26 3.75-.76 1.5-2.25 2.25 1.5-3.75-2.25-2.25.75 2.25-.75 3.75-.75-3.75.75-2.25-2.26 2.25 1.51 3.75zm0 7.5-.75-1.5 2.25-3.75 1.51.75 1.5-.75 2.26 3.75-.76 1.5-2.25 2.25 1.5-3.75-2.25-2.25.75 2.25-.75 3.75-.75-3.75.75-2.25-2.26 2.25 1.51 3.75zm7.52-7.5-.75-1.5 2.25-3.75 1.5.75 1.51-.75 2.25 3.75-.75 1.5-2.25 2.25 1.5-3.75-2.26-2.25.76 2.25-.76 3.75-.75-3.75.75-2.25-2.25 2.25 1.5 3.75zm0 7.5-.75-1.5 2.25-3.75 1.5.75 1.51-.75 2.25 3.75-.75 1.5-2.25 2.25 1.5-3.75-2.26-2.25.76 2.25-.76 3.75-.75-3.75.75-2.25-2.25 2.25 1.5 3.75zm0 7.5-.75-1.5 2.25-3.75 1.5.75 1.51-.75 2.25 3.75-.75 1.5-2.25 2.25 1.5-3.75-2.26-2.25.76 2.25-.76 3.75-.75-3.75.75-2.25-2.25 2.25 1.5 3.75zm7.51-7.5-.75-1.5 2.26-3.75 1.5.75 1.5-.75 2.26 3.75-.75 1.5-2.26 2.25 1.5-3.75-2.25-2.25.75 2.25-.75 3.75-.75-3.75.75-2.25-2.26 2.25 1.51 3.75zm0 7.5-.75-1.5 2.26-3.75 1.5.75 1.5-.75 2.26 3.75-.75 1.5-2.26 2.25 1.5-3.75-2.25-2.25.75 2.25-.75 3.75-.75-3.75.75-2.25-2.26 2.25 1.51 3.75zm7.52-67.5-.75-1.5 2.25-3.75 1.51.75 1.5-.75 2.26 3.75-.76 1.5-2.25 2.25 1.5-3.75-2.25-2.25.75 2.25-.75 3.75-.76-3.75.76-2.25-2.26 2.25 1.5 3.75zm0 60-.75-1.5 2.25-3.75 1.51.75 1.5-.75 2.26 3.75-.76 1.5-2.25 2.25 1.5-3.75-2.25-2.25.75 2.25-.75 3.75-.76-3.75.76-2.25-2.26 2.25 1.5 3.75zm7.52-60-.75-1.5 2.25-3.75 1.5.75 1.51-.75 2.25 3.75-.75 1.5-2.25 2.25 1.5-3.75-2.26-2.25.76 2.25-.76 3.75-.75-3.75.75-2.25-2.25 2.25 1.5 3.75zm0 7.5-.75-1.5 2.25-3.75 1.5.75 1.51-.75 2.25 3.75-.75 1.5-2.25 2.25 1.5-3.75-2.26-2.25.76 2.25-.76 3.75-.75-3.75.75-2.25-2.25 2.25 1.5 3.75zm0 7.5-.75-1.5 2.25-3.75 1.5.75 1.51-.75 2.25 3.75-.75 1.5-2.25 2.25 1.5-3.75-2.26-2.25.76 2.25-.76 3.75-.75-3.75.75-2.25-2.25 2.25 1.5 3.75zm0 7.5-.75-1.5 2.25-3.75 1.5.75 1.51-.75 2.25 3.75-.75 1.5-2.25 2.25 1.5-3.75-2.26-2.25.76 2.25-.76 3.75-.75-3.75.75-2.25-2.25 2.25 1.5 3.75zm0 7.5-.75-1.5 2.25-3.75 1.5.75 1.51-.75 2.25 3.75-.75 1.5-2.25 2.25 1.5-3.75-2.26-2.25.76 2.25-.76 3.75-.75-3.75.75-2.25-2.25 2.25 1.5 3.75zm0 7.5-.75-1.5 2.25-3.75 1.5.75 1.51-.75 2.25 3.75-.75 1.5-2.25 2.25 1.5-3.75-2.26-2.25.76 2.25-.76 3.75-.75-3.75.75-2.25-2.25 2.25 1.5 3.75zm0 7.5-.75-1.5 2.25-3.75 1.5.75 1.51-.75 2.25 3.75-.75 1.5-2.25 2.25 1.5-3.75-2.26-2.25.76 2.25-.76 3.75-.75-3.75.75-2.25-2.25 2.25 1.5 3.75zm0 7.5-.75-1.5 2.25-3.75 1.5.75 1.51-.75 2.25 3.75-.75 1.5-2.25 2.25 1.5-3.75-2.26-2.25.76 2.25-.76 3.75-.75-3.75.75-2.25-2.25 2.25 1.5 3.75zm7.51-52.5-.75-1.5 2.26-3.75 1.5.75 1.5-.75 2.26 3.75-.75 1.5-2.26 2.25 1.51-3.75-2.26-2.25.75 2.25-.75 3.75-.75-3.75.75-2.25-2.25 2.25 1.5 3.75zm0 7.5-.75-1.5 2.26-3.75 1.5.75 1.5-.75 2.26 3.75-.75 1.5-2.26 2.25 1.51-3.75-2.26-2.25.75 2.25-.75 3.75-.75-3.75.75-2.25-2.25 2.25 1.5 3.75zm0 7.5-.75-1.5 2.26-3.75 1.5.75 1.5-.75 2.26 3.75-.75 1.5-2.26 2.25 1.51-3.75-2.26-2.25.75 2.25-.75 3.75-.75-3.75.75-2.25-2.25 2.25 1.5 3.75zm0 7.5-.75-1.5 2.26-3.75 1.5.75 1.5-.75 2.26 3.75-.75 1.5-2.26 2.25 1.51-3.75-2.26-2.25.75 2.25-.75 3.75-.75-3.75.75-2.25-2.25 2.25 1.5 3.75zm0 7.5-.75-1.5 2.26-3.75 1.5.75 1.5-.75 2.26 3.75-.75 1.5-2.26 2.25 1.51-3.75-2.26-2.25.75 2.25-.75 3.75-.75-3.75.75-2.25-2.25 2.25 1.5 3.75zm0 7.5-.75-1.5 2.26-3.75 1.5.75 1.5-.75 2.26 3.75-.75 1.5-2.26 2.25 1.51-3.75-2.26-2.25.75 2.25-.75 3.75-.75-3.75.75-2.25-2.25 2.25 1.5 3.75zm0 7.5-.75-1.5 2.26-3.75 1.5.75 1.5-.75 2.26 3.75-.75 1.5-2.26 2.25 1.51-3.75-2.26-2.25.75 2.25-.75 3.75-.75-3.75.75-2.25-2.25 2.25 1.5 3.75zm7.52-37.5-.75-1.5 2.25-3.75 1.51.75 1.5-.75 2.25 3.75-.75 1.5-2.25 2.25 1.5-3.75-2.25-2.25.75 2.25-.75 3.75-.75-3.75.75-2.25-2.26 2.25 1.51 3.75z" fill="darkmagenta"/><g fill="none" stroke="darkmagenta" stroke-miterlimit="10" stroke-width="3"><circle cx="1009.5" cy="1009.5" r="1008"/><path d="m647 146.28c-336.9 141.65-573.5 474.8-573.5 863.22"/><path d="m142.8 1363.61-1.96 4.75 4.76 1.97"/><path d="m1366.84 144.15 2.49-1.04 1.03 2.5"/><path d="m1875.03 1366.41.86-.35-.36-.86"/><path d="m647.04 146.28.36-.87.86.36"/><path d="m958.22 313.4a89.7 89.7 0 0 0 32.47 13.49"/><path d="m697.68 421.32 84.25-34.9"/><path d="m697.68 421.32-45.99 45.99"/><path d="m697.68 421.32 34.9-34.9"/><path d="m590.24 492.76-94.34 94.34"/><path d="m495.9 587.1-25.46 61.46"/><path d="m523.53 520.39-27.63 66.71"/><path d="m442.2 640.8 43.36-104.68"/><path d="m1484.73 492.25-43.84-105.83"/><path d="m1229.25 386.42 97.6 40.43"/><path d="m1484.73 492.25-96.42-39.94"/><path d="m1484.73 492.25 12.95 31.27"/><path d="m846.96 386.42 60.17-24.92"/><path d="m1229.25 386.42h57.17"/><path d="m1229.25 386.42h-62.55"/><path d="m386.42 696.58 55.78-55.78"/><path d="m416.74 702.26 25.46-61.46"/><path d="m1056.28 314.78a89.49 89.49 0 0 1 -32.39 12.49"/><path d="m1106.53 361.5h62.55"/><path d="m937.21 1726.7a90.23 90.23 0 0 1 20-20.18"/><path d="m1025 1690.36a89.56 89.56 0 0 1 35 13.67"/><path d="m696.58 1632.58-58.09-58.09"/><path d="m859.07 1759.07-101.57-101.57"/><path d="m1532.95 538.13 41.59 100.41"/><path d="m361.5 757.5-102.22 102.22"/><path d="m1372.67 1546.33-48.08 48.08"/><path d="m1386.04 1568.96 48.09-48.09"/><path d="m1386.04 1568.96-63.62 63.62"/><path d="m1386.04 1568.96 97.56-40.41"/><path d="m1324.59 1594.41-92.14 38.17"/><path d="m1324.59 1594.41-38.17 38.17"/><path d="m386.42 775.46v75.93"/><path d="m361.5 757.5 24.92-24.92"/><path d="m361.5 835.63v-78.13"/><path d="m538.13 1532.92 100.36 41.57"/><path d="m638.49 1574.49 61.45 25.45"/><path d="m236.76 1136.76 16.14-38.94"/><path d="m361.5 835.63-50.15 121.07"/><path d="m361.5 835.63v75.93"/><path d="m361.5 911.56v194.94"/><path d="m361.5 911.56-34.5 83.29"/><path d="m523.53 1497.67 65.11 26.97"/><path d="m588.64 1524.64 61.46 25.46"/><path d="m588.64 1524.64-92.08-92.08"/><path d="m1526.23 1482.72 106.35-44.05"/><path d="m386.42 1166.67v-157.17"/><path d="m650.1 1550.1 199.12 82.48"/><path d="m471.1 1371.1 179 179"/><path d="m1023.89 327.27a90.59 90.59 0 0 1 -33.2-.38"/><path d="m990.69 326.89-83.56 34.61"/><path d="m1106.53 361.5h-199.4"/><path d="m1106.53 361.5-82.64-34.23"/><path d="m838.9 1657.5h-81.4"/><path d="m1104.28 1657.5 60.17-24.92"/><path d="m757.5 1657.5-24.92-24.92"/><path d="m849.22 1632.58h-70.49"/><path d="m1009.5 1632.58h-160.28"/><path d="m1497.68 523.52 26.99 65.15"/><path d="m1497.68 523.52-65.15-26.99"/><path d="m416.74 702.26-30.32 73.2"/><path d="m386.42 732.58 30.32-30.32"/><path d="m386.42 732.58v42.88"/><path d="m622.89 1011.25c0-213.52 173.09-386.61 386.61-386.61"/><path d="m1009.5 1397.87c213.52 0 386.61-173.1 386.61-386.62s-173.11-386.61-386.61-386.61"/><path d="m1524.01 1430.99-89.88 89.88"/><path d="m1434.13 1520.87 63.55-26.32"/><path d="m1025 1690.36a90.47 90.47 0 0 0 -34 .93"/><path d="m1024.95 1690.36 79.33-32.86"/><path d="m1104.28 1657.5h-194.89"/><path d="m361.5 721.5-112.76 112.76"/><path d="m1470.11 386.42 49.88 120.43"/><path d="m1166.7 386.42 204.38 84.66"/><path d="m1166.7 386.42h-157.2"/><path d="m1271.38 617.47-23.44-182.96-149.06 115.21"/><path d="m991 1691.29a89.59 89.59 0 0 0 -33.72 15.23"/><path d="m838.9 1657.5 118.34 49.02"/><path d="m909.39 1657.5h-70.49"/><path d="m909.39 1657.5 81.57 33.79"/><path d="m699.94 1599.94 32.64 32.64"/><path d="m699.94 1599.94 78.79 32.64"/><path d="m732.58 1632.58h46.15"/><path d="m1692.49 993.83a90.7 90.7 0 0 0 -.5 31.62"/><path d="m1461.07 1457.93 88.39-88.39"/><path d="m1401.72 1272.1 183.43-23.5-115.77-149.77"/><path d="m1164.45 1632.58 208.22-86.25"/><path d="m1372.67 1546.33 88.4-88.4"/><path d="m1164.45 1632.58h-154.95"/><path d="m1268.04 1400.62-20.1 185.19-147.79-118.85"/><path d="m651.69 467.31 195.27-80.89"/><path d="m651.69 467.31-90.62 90.62"/><path d="m1009.5 386.42h-162.54"/><path d="m751.1 618.42 19.96-183.91 147.28 118.45"/><path d="m1875.53 1365.2a933.24 933.24 0 0 0 70-355.7"/><path d="m1524.67 588.67 49.87 49.87"/><path d="m1371.08 471.08 61.45 25.45"/><path d="m1574.54 638.54 58.04 58.04"/><path d="m1432.53 496.53 92.14 92.14"/><path d="m1460.6 560.6-89.52-89.52"/><path d="m1599.99 699.99 32.59 32.59"/><path d="m1692.49 993.83a89.43 89.43 0 0 1 14.84-34.71"/><path d="m1692.49 993.83-34.99-84.47"/><path d="m1599.99 699.99-49.87-49.87"/><path d="m1599.99 699.99 32.59 78.67"/><path d="m1466.87 918.8 118.28-147.08-184.72-20.05"/><path d="m1460.6 560.6 89.52 89.52"/><path d="m1632.58 849.19-82.46-199.07"/><path d="m1632.58 1466.84-120.43 49.88"/><path d="m1757.63 924.08a90 90 0 0 1 90 147.31"/><path d="m833.61 1769.61-112.11-112.11"/><path d="m561.07 557.93-90.63 90.63"/><path d="m470.44 648.56-84.02 202.83"/><path d="m386.42 1009.5v-158.11"/><path d="m617.62 748.18-183.77 23.54 115.04 148.85"/><path d="m622.89 1011.25c0 213.52 173.09 386.62 386.61 386.62"/><path d="m552.87 1100.61-119.02 147.99 184.37 20.02"/><path d="m920.63 1470.21-149.57 115.6-23.6-184.24"/><path d="m1757.63 924.08a89.39 89.39 0 0 0 -29.44 14"/><path d="m1777.09 877.09-19.46 46.99"/><path d="m647.04 146.28-89.15 215.22"/><path d="m647 146.28 1.22-.51"/><path d="m589.34 361.5 75.75-182.85 169.18 70.08"/><path d="m538.13 1532.92 41.28 99.66"/><path d="m386.42 1166.67-24.92-60.17"/><path d="m538.13 1532.92-14.6-35.25"/><path d="m361.5 1106.5-34.5-83.28"/><path d="m523.53 1497.67-26.97-65.11"/><path d="m471.1 1371.1 25.46 61.46"/><path d="m386.42 1166.67 84.68 204.43"/><path d="m386.42 1229.18 40.48 97.72"/><path d="m553.52 1632.58-46.65-112.61"/><path d="m1099.36 1765.39a88.91 88.91 0 0 0 -13-34.59"/><path d="m579.41 1632.58h117.17"/><path d="m721.5 1657.5-24.92-24.92"/><path d="m589.73 1657.5h131.77"/><path d="m553.51 1632.58h-167.09v-162.5"/><path d="m579.41 1632.58h-25.89"/><path d="m922.18 1761.1a89.29 89.29 0 0 1 15-34.4"/><path d="m859.07 1759.07 78.14-32.37"/><path d="m833.61 1769.61 25.46-10.54"/><path d="m589.73 1657.5 75.36 181.92 168.52-69.81"/><path d="m589.73 1657.5h-25.89"/><path d="m1099.36 1765.39a90 90 0 1 1 -177.18-4.29"/><path d="m1099.36 1765.39 38.36 15.89"/><path d="m878.99 1778.99 43.19-17.89"/><path d="m167.75 915.25 62.68-62.68"/><path d="m205.46 913.54 35.51-35.51"/><path d="m258.96 921.46-17.99-43.43"/><path d="m361.5 560.57-215.12 89.1 84.05 202.9"/><path d="m248.74 834.26 10.54 25.46"/><path d="m290.94 936.17-31.66-76.45"/><path d="m248.74 834.26-70.73-170.75 183.49-76"/><path d="m240.97 878.03-10.54-25.46"/><path d="m103.55 979.45-30.05 30.05"/><path d="m386.42 1229.18v57.24"/><path d="m386.42 1229.18-24.92-60.17"/><path d="m361.5 1430.56v-133.06"/><path d="m192.3 1092.3 44.46 44.46"/><path d="m236.76 1136.76 22.25 22.25"/><path d="m248.46 1184.46 113.04 113.04"/><path d="m361.5 1297.5v-36"/><path d="m492.27 1484.73-39.91-96.37"/><path d="m386.42 1322.42v118.46"/><path d="m1524.01 1430.99 25.45-61.45"/><path d="m1526.23 1482.72-28.55 11.83"/><path d="m1526.23 1482.72 38.15-92.1"/><path d="m1524.01 1430.99-26.33 63.56"/><path d="m1632.58 1168.88-83.12 200.66"/><path d="m1370.36 145.61c337.79 141.27 575.14 474.85 575.14 863.89"/><path d="m1083.17 288.58a89.33 89.33 0 0 0 13.44-32.5"/><path d="m1366.83 144.15 3.53 1.46"/><path d="m1459.78 361.5-89.42-215.89"/><path d="m721.5 361.5 112.77-112.77"/><path d="m834.27 248.73 18.32-18.32"/><path d="m1164.12 228.12-25.46 10.54"/><path d="m1366.83 144.15a933.09 933.09 0 0 0 -357.33-70.65"/><path d="m1366.83 144.15-202.71 83.97"/><path d="m1009.5 73.5 154.62 154.62"/><path d="m1791.84 1163.16 153.66-153.66"/><path d="m1777.09 877.09 132.41 132.41-61.89 61.89"/><path d="m1777.09 877.09-16.72-16.72"/><path d="m1787.64 851.64 157.86 157.86"/><path d="m1702.93 1056.13a90.62 90.62 0 0 0 27.61 29.57"/><path d="m361.5 560.57v-199.07h196.39"/><path d="m386.42 696.58v-119.4"/><path d="m361.5 721.5 24.92-24.92"/><path d="m361.5 721.5v-133.99"/><path d="m557.89 361.5-10.32 24.92"/><path d="m361.5 587.51v-26.94"/><path d="m1172.28 1657.5 60.17-24.92"/><path d="m1286.42 1632.58h36"/><path d="m1322.42 1632.58h118.09"/><path d="m1232.45 1632.58h53.97"/><path d="m1430.18 1657.5h-132.68"/><path d="m1086.34 1730.8a90.37 90.37 0 0 0 -26.34-26.8"/><path d="m1059.96 1704.03 112.32-46.53"/><path d="m1086.34 1730.8 72.03 29.83"/><path d="m1172.28 1657.5h89.22"/><path d="m648.26 145.77a933.18 933.18 0 0 1 361.24-72.27"/><path d="m648.26 145.77 204.33 84.64"/><path d="m852.59 230.41 156.91-156.91"/><path d="m1512.15 1516.72-28.55 11.83"/><path d="m1440.51 1632.58 43.09-104.03"/><path d="m1512.15 1516.72-47.99 115.86"/><path d="m1430.18 1657.5 10.33-24.92"/><path d="m1183.83 1771.17 170.08 70.46 76.27-184.13"/><path d="m1632.58 1322.42-68.2 68.2"/><path d="m1589.84 1329.16-25.46 61.46"/><path d="m1760.64 1158.36-103.14 103.14"/><path d="m1771.19 1183.81-113.69 113.69"/><path d="m1632.58 1466.84v-28.17"/><path d="m1632.58 1438.67v-116.25"/><path d="m1632.58 1466.84v165.74h-168.42"/><path d="m1464.16 1632.58-10.32 24.92"/><path d="m1657.5 1428.35v-130.85"/><path d="m1657.5 1297.5-24.92 24.92"/><path d="m1632.58 579.39v117.19"/><path d="m1632.58 732.58v-36"/><path d="m1632.58 778.66v-46.08"/><path d="m1657.5 838.83-24.92-60.17"/><path d="m1657.5 721.5v36"/><path d="m1707.33 959.12a90.5 90.5 0 0 1 20.86-21.07"/><path d="m1707.33 959.12-49.83-120.29"/><path d="m1728.19 938.05 32.18-77.68"/><path d="m1760.37 860.37-102.87-102.87"/><path d="m1657.5 757.5v81.33"/><path d="m1765.58 1099.76a91.35 91.35 0 0 0 15.26 1.29 89.68 89.68 0 0 0 60.34-23.23"/><path d="m1781.3 1137.7 59.88-59.88"/><path d="m142.8 1363.61c.92 2.24 1.86 4.48 2.8 6.72"/><path d="m506.87 1519.97-120.45-49.89"/><path d="m506.87 1519.97-14.6-35.24"/><path d="m361.5 1459.76 24.92 10.32"/><path d="m248.46 1184.46-70.45 170.09 183.49 76.01"/><path d="m386.42 1440.88-24.92-10.32"/><path d="m226.22 1162.22 22.24 22.24"/><path d="m386.42 1440.88 105.85 43.85"/><path d="m73.5 1009.5a933.45 933.45 0 0 0 69.3 354.11"/><path d="m73.5 1009.5 41.24 41.24"/><path d="m226.22 1162.22-84.03-84.03"/><path d="m226.22 1162.22-83.42 201.39"/><path d="m1440.89 386.42h-118.47"/><path d="m1470.11 386.42h-29.22"/><path d="m1470.11 386.42h162.47v167.07"/><path d="m1657.5 563.81v-202.31h-197.71"/><path d="m1430.57 361.5h29.21"/><path d="m1770.91 834.91-113.41-113.41"/><path d="m1657.5 589.72v131.78"/><path d="m1519.99 506.85 12.96 31.28"/><path d="m1532.95 538.13 99.63 41.26"/><path d="m1519.99 506.85 112.59 46.64"/><path d="m1657.5 563.81 212.84 88.16-82.71 199.66"/><path d="m1770.91 834.91 16.73 16.73"/><path d="m1657.5 589.72-24.92-10.33"/><path d="m1657.5 563.81-24.92-10.32"/><path d="m1770.91 834.91 70.08-169.19-183.49-76"/><path d="m1430.57 361.5-76.66-185.06-170.75 70.72"/><path d="m1430.57 361.5h-133.07"/><path d="m1765.58 1099.76a89.68 89.68 0 0 1 -35-14.06"/><path d="m1875 1366.41c.17-.4.34-.8.5-1.21"/><path d="m1791.84 1163.16 83.69 202.04"/><path d="m1781.3 1137.7 10.54 25.46"/><path d="m1730.54 1085.7 30.1 72.66"/><path d="m1657.5 1428.35 183.49-76.01-69.81-168.52"/><path d="m1771.19 1183.81-10.55-25.45"/><path d="m1657.5 1456.52v-28.17"/><path d="m1765.58 1099.76 15.72 37.94"/><path d="m1657.5 909.36v199.35"/><path d="m1632.58 1168.88v-159.38"/><path d="m1632.58 849.19 24.92 60.17"/><path d="m1632.58 1009.5v-160.31"/><path d="m1632.58 1225.98v-57.1"/><path d="m1657.5 1261.5v-95.69"/><path d="m1632.58 1286.42 24.92-24.92"/><path d="m1589.84 1329.16 42.74-103.18"/><path d="m1632.58 1286.42-42.74 42.74"/><path d="m1632.58 1286.42v-60.44"/><path d="m1009.5 1945.5c-389 0-722.65-237.37-863.9-575.17"/><path d="m563.84 1657.5h-202.34v-197.74"/><path d="m853.53 1789.53-200.59 83.09-89.1-215.12"/><path d="m361.5 1459.76-215.9-89.43"/><path d="m259.01 1159.01 31.94-77.11"/><path d="m361.5 1169.01-46.73-112.8"/><path d="m361.5 1169.01v92.49"/><path d="m361.5 1261.5-102.49-102.49"/><path d="m1137.72 1781.28 20.65-20.65"/><path d="m853.53 1789.53 25.46-10.54"/><path d="m1137.72 1781.28-128.22 128.22-130.51-130.51"/><path d="m1297.5 1657.5h-36"/><path d="m1183.82 1771.18 113.68-113.68"/><path d="m1158.37 1760.63 103.13-103.13"/><path d="m1163.18 1791.82 20.64-20.64"/><path d="m853.53 1789.53 155.97 155.97"/><path d="m1875 1366.41c-140.31 339.89-475 579.09-865.53 579.09"/><path d="m1163.18 1791.82 200.6 83.09 90.06-217.41"/><path d="m1657.5 1456.52v200.98h-203.66"/><path d="m1657.5 1456.52 217.53-90.11"/><path d="m1009.5 1945.5 153.68-153.68"/><path d="m1692 1025.45a89.43 89.43 0 0 0 10.94 30.68"/><path d="m1691.99 1025.45-34.49 83.26"/><path d="m1702.93 1056.13-45.43 109.68"/><path d="m1657.5 1108.71v57.1"/><path d="m920.53 258.55a89.56 89.56 0 0 0 14.09 31.74"/><path d="m878.05 240.95-18.32 18.32"/><path d="m781.93 386.42 60.17-24.92"/><path d="m781.93 386.42h-49.35"/><path d="m696.58 386.42h36"/><path d="m589.34 361.5h132.16"/><path d="m589.34 361.5-10.32 24.92"/><path d="m721.5 361.5h36"/><path d="m934.62 290.29a90.67 90.67 0 0 0 23.6 23.11"/><path d="m958.22 313.4-116.12 48.1"/><path d="m757.5 361.5 102.23-102.23"/><path d="m934.62 290.29-74.89-31.02"/><path d="m842.1 361.5h-84.6"/><path d="m696.58 386.42-60.35 60.35"/><path d="m579.02 386.42-42.02 101.46"/><path d="m696.58 386.42h-117.56"/><path d="m547.57 386.42-48.54 117.18"/><path d="m547.57 386.42h-161.15v163.83"/><path d="m636.23 446.77-45.99 45.99"/><path d="m590.24 492.76-66.71 27.63"/><path d="m386.42 577.18 99.14-41.06"/><path d="m523.53 520.39-37.97 15.73"/><path d="m537 487.88-37.97 15.72"/><path d="m386.42 550.25v26.93"/><path d="m636.23 446.77-99.23 41.11"/><path d="m386.42 550.25 112.61-46.65"/><path d="m920.53 258.55a90 90 0 1 1 176.08-2.47"/><path d="m1138.66 238.66-42.05 17.42"/><path d="m878.05 240.95 131.45-131.45 129.16 129.16"/><path d="m920.53 258.55-42.48-17.6"/><path d="m1326.85 426.85-40.43-40.43"/><path d="m1322.42 386.42 65.89 65.89"/><path d="m1326.85 426.85 61.46 25.46"/><path d="m1286.42 386.42-24.92-24.92"/><path d="m1183.16 247.16-25.45 10.55"/><path d="m1297.5 361.5 24.92 24.92"/><path d="m1183.16 247.16 114.34 114.34"/><path d="m1056.28 314.78a90.65 90.65 0 0 0 26.89-26.2"/><path d="m1169.08 361.5h92.42"/><path d="m1169.08 361.5-112.8-46.72"/><path d="m1157.71 257.71-74.54 30.87"/><path d="m1261.5 361.5-103.79-103.79"/><path d="m426.9 1326.9-40.48-40.48"/><path d="m426.9 1326.9 25.46 61.46"/><path d="m386.42 1286.42v36"/><path d="m386.42 1322.42 65.94 65.94"/><path d="m1841.18 1077.82 6.43-6.43"/><path d="m1841.18 1077.82a90.71 90.71 0 0 0 6.43-6.43"/><path d="m561.44 1459.76 186.02-58.19"/><path d="m732.01 1280.97 15.45 120.6"/><path d="m561.44 1459.76 56.78-191.14"/><path d="m732.01 1280.97-113.79-12.35"/><path d="m732.01 1280.97-170.57 178.79"/><path d="m1009.5 624.64-91.16-71.68"/><path d="m1009.5 386.42-91.16 166.54"/><path d="m1098.88 549.72-89.38 74.92"/><path d="m1098.88 549.72-89.38-163.3"/><path d="m1009.5 386.42v238.22"/><path d="m552.87 1100.61-166.45-91.11"/><path d="m552.87 1100.61 70.02-89.36"/><path d="m622.89 1011.25-73.99-90.68"/><path d="m548.9 920.57-162.48 88.93"/><path d="m622.89 1011.25-236.47-1.75"/><path d="m1009.5 1397.87 90.65 69.09"/><path d="m1009.5 1632.58 90.65-165.62"/><path d="m920.63 1470.21 88.87 162.37"/><path d="m920.63 1470.21 88.87-72.34"/><path d="m1009.5 1397.87v234.71"/><path d="m1280.3 1287.65 121.42-15.55"/><path d="m1461.07 1457.93-59.35-185.83"/><path d="m1280.3 1287.65-12.26 112.97"/><path d="m1461.07 1457.93-193.03-57.31"/><path d="m1280.3 1287.65 180.77 170.28"/><path d="m617.62 748.18 121.08-15.51"/><path d="m561.07 557.93 56.55 190.25"/><path d="m751.1 618.42-12.4 114.25"/><path d="m751.1 618.42-190.03-60.49"/><path d="m561.07 557.93 177.63 174.74"/><path d="m1396.11 1009.5 73.28 89.33"/><path d="m1632.58 1009.5-163.19 89.33"/><path d="m1396.11 1009.5 70.76-90.7"/><path d="m1632.58 1009.5-165.71-90.7"/><path d="m1632.58 1009.5h-236.47"/><path d="m1286.99 739.36 113.44 12.31"/><path d="m1400.43 751.67 60.17-191.07"/><path d="m1271.38 617.47 15.61 121.89"/><path d="m1271.38 617.47 189.22-56.87"/><path d="m1286.99 739.36 173.61-178.76"/><path d="m1009.5 860.05-50.4 151.21 50.4 251.99 50.4-251.99z"/><path d="m1009.5 860.05 151.2 151.21-100.8 251.99 151.2-151.19 50.4-100.8-151.2-252.01-100.8 50.4-100.8-50.4-151.2 252.01 50.4 100.8 151.2 151.19-100.8-251.99z"/><path d="m142.19 1078.19-27.45-27.45"/><path d="m167.75 915.25-64.2 64.2"/><path d="m205.46 913.54-89.32 89.32-6.64 6.64 82.8 82.8"/><path d="m290.94 936.17a89.51 89.51 0 0 0 -32-14.71"/><path d="m252.9 1097.82a89.56 89.56 0 0 0 38-15.92"/><path d="m327 1023.22a90.39 90.39 0 0 0 0-28.37"/><path d="m327 1023.22a89.41 89.41 0 0 1 -12.23 33"/><path d="m290.94 936.17a90.37 90.37 0 0 1 20.41 20.53"/><path d="m314.77 1056.21a90.51 90.51 0 0 1 -23.77 25.69"/><path d="m259 921.46a90 90 0 1 0 -6.06 176.36"/><path d="m311.35 956.7a89.49 89.49 0 0 1 15.65 38.15"/></g></svg>