<svg xmlns="http://www.w3.org/2000/svg" viewBox="0 0 2019 2019"><defs><style>.cls-1{fill:gold;}.cls-2{fill:none;stroke:gold;stroke-miterlimit:10;stroke-width:3px;}</style></defs><g id="Layer_2" data-name="Layer 2"><g id="Layer_1-2" data-name="Layer 1"><path class="cls-1" d="M186,978l-.75,1.5-.75-2.25,2.25-1.5H189l1.5.75.75.75.75,2.25-.75,2.25-.75.75-1.5.75h-2.25l-1.5-.75-.75-2.25,1.5,1.5,3.75-4.5Zm0,7.5-.75,1.5-.75-2.25,2.25-1.5H189l1.5.75.75.75L192,987l-.75,2.25-.75.75-1.5.75h-2.25l-1.5-.75-.75-2.25,1.5,1.5,3.75-4.5Zm7.5,0-.75,1.5-.75-2.25,2.25-1.5h2.25l1.5.75.75.75.75,2.25-.75,2.25L198,990l-1.5.75h-2.25l-1.5-.75-.75-2.25,1.5,1.5,3.75-4.5Zm0,60-.75,1.5-.75-2.25,2.25-1.5h2.25l1.5.75.75.75.75,2.25-.75,2.25-.75.75-1.5.75h-2.25l-1.5-.75-.75-2.25,1.5,1.5,3.75-4.5Zm7.5-60-.75,1.5-.75-2.25,2.25-1.5H204l1.5.75.75.75L207,987l-.75,2.25-.75.75-1.5.75h-2.25l-1.5-.75-.75-2.25,1.5,1.5,3.75-4.5Zm0,60-.75,1.5-.75-2.25,2.25-1.5H204l1.5.75.75.75L207,1047l-.75,2.25-.75.75-1.5.75h-2.25l-1.5-.75-.75-2.25,1.5,1.5,3.75-4.5Zm7.5-67.5-.75,1.5-.75-2.25,2.25-1.5h2.25l1.5.75.75.75.75,2.25-.75,2.25-.75.75-1.5.75h-2.25l-1.5-.75-.75-2.25,1.5,1.5,3.75-4.5Zm0,7.5-.75,1.5-.75-2.25,2.25-1.5h2.25l1.5.75.75.75.75,2.25-.75,2.25L213,990l-1.5.75h-2.25l-1.5-.75-.75-2.25,1.5,1.5,3.75-4.5Zm0,7.5-.75,1.5-.75-2.25,2.25-1.5h2.25l1.5.75.75.75.75,2.25-.75,2.25-.75.75-1.5.75h-2.25l-1.5-.75-.75-2.25,1.5,1.5,3.75-4.5Zm0,7.5-.75,1.5-.75-2.25,2.25-1.5h2.25l1.5.75.75.75.75,2.25-.75,2.25-.75.75-1.5.75h-2.25l-1.5-.75-.75-2.25,1.5,1.5,3.75-4.5Zm0,7.5-.75,1.5-.75-2.25,2.25-1.5h2.25l1.5.75.75.75.75,2.25-.75,2.25-.75.75-1.5.75h-2.25l-1.5-.75-.75-2.25,1.5,1.5,3.75-4.5Zm0,7.5-.75,1.5-.75-2.25,2.25-1.5h2.25l1.5.75.75.75.75,2.25-.75,2.25-.75.75-1.5.75h-2.25l-1.5-.75-.75-2.25,1.5,1.5,3.75-4.5Zm0,7.5-.75,1.5-.75-2.25,2.25-1.5h2.25l1.5.75.75.75.75,2.25-.75,2.25-.75.75-1.5.75h-2.25l-1.5-.75-.75-2.25,1.5,1.5,3.75-4.5Zm0,7.5-.75,1.5-.75-2.25,2.25-1.5h2.25l1.5.75.75.75.75,2.25-.75,2.25-.75.75-1.5.75h-2.25l-1.5-.75-.75-2.25,1.5,1.5,3.75-4.5Zm0,7.5-.75,1.5-.75-2.25,2.25-1.5h2.25l1.5.75.75.75.75,2.25-.75,2.25-.75.75-1.5.75h-2.25l-1.5-.75-.75-2.25,1.5,1.5,3.75-4.5Zm0,7.5-.75,1.5-.75-2.25,2.25-1.5h2.25l1.5.75.75.75.75,2.25-.75,2.25-.75.75-1.5.75h-2.25l-1.5-.75-.75-2.25,1.5,1.5,3.75-4.5ZM216,978l-.75,1.5-.75-2.25,2.25-1.5H219l1.5.75.75.75.75,2.25-.75,2.25-.75.75-1.5.75h-2.25l-1.5-.75-.75-2.25,1.5,1.5,3.75-4.5Zm0,7.5-.75,1.5-.75-2.25,2.25-1.5H219l1.5.75.75.75L222,987l-.75,2.25-.75.75-1.5.75h-2.25l-1.5-.75-.75-2.25,1.5,1.5,3.75-4.5Zm0,7.5-.75,1.5-.75-2.25,2.25-1.5H219l1.5.75.75.75.75,2.25-.75,2.25-.75.75-1.5.75h-2.25l-1.5-.75-.75-2.25,1.5,1.5,3.75-4.5Zm0,7.5-.75,1.5-.75-2.25,2.25-1.5H219l1.5.75.75.75L222,1002l-.75,2.25-.75.75-1.5.75h-2.25l-1.5-.75-.75-2.25,1.5,1.5,3.75-4.5Zm0,7.5-.75,1.5-.75-2.25,2.25-1.5H219l1.5.75.75.75.75,2.25-.75,2.25-.75.75-1.5.75h-2.25l-1.5-.75-.75-2.25,1.5,1.5,3.75-4.5Zm0,7.5-.75,1.5-.75-2.25,2.25-1.5H219l1.5.75.75.75L222,1017l-.75,2.25-.75.75-1.5.75h-2.25l-1.5-.75-.75-2.25,1.5,1.5,3.75-4.5Zm0,7.5-.75,1.5-.75-2.25,2.25-1.5H219l1.5.75.75.75.75,2.25-.75,2.25-.75.75-1.5.75h-2.25l-1.5-.75-.75-2.25,1.5,1.5,3.75-4.5Zm0,7.5-.75,1.5-.75-2.25,2.25-1.5H219l1.5.75.75.75L222,1032l-.75,2.25-.75.75-1.5.75h-2.25l-1.5-.75-.75-2.25,1.5,1.5,3.75-4.5Zm0,7.5-.75,1.5-.75-2.25,2.25-1.5H219l1.5.75.75.75.75,2.25-.75,2.25-.75.75-1.5.75h-2.25l-1.5-.75-.75-2.25,1.5,1.5,3.75-4.5Zm0,7.5-.75,1.5-.75-2.25,2.25-1.5H219l1.5.75.75.75L222,1047l-.75,2.25-.75.75-1.5.75h-2.25l-1.5-.75-.75-2.25,1.5,1.5,3.75-4.5Zm7.5-52.5-.75,1.5-.75-2.25,2.25-1.5h2.25l1.5.75.75.75.75,2.25-.75,2.25-.75.75-1.5.75h-2.25l-1.5-.75-.75-2.25,1.5,1.5,3.75-4.5Zm0,45-.75,1.5-.75-2.25,2.25-1.5h2.25l1.5.75.75.75.75,2.25-.75,2.25-.75.75-1.5.75h-2.25l-1.5-.75-.75-2.25,1.5,1.5,3.75-4.5Zm7.5-52.5-.75,1.5-.75-2.25,2.25-1.5H234l1.5.75.75.75L237,987l-.75,2.25-.75.75-1.5.75h-2.25l-1.5-.75-.75-2.25,1.5,1.5,3.75-4.5Zm7.5-7.5-.75,1.5-.75-2.25,2.25-1.5h2.25l1.5.75.75.75.75,2.25-.75,2.25-.75.75-1.5.75h-2.25l-1.5-.75-.75-2.25,1.5,1.5,3.75-4.5Zm7.5,0-.75,1.5-.75-2.25,2.25-1.5H249l1.5.75.75.75.75,2.25-.75,2.25-.75.75-1.5.75h-2.25l-1.5-.75-.75-2.25,1.5,1.5,3.75-4.5Zm0,7.5-.75,1.5-.75-2.25,2.25-1.5H249l1.5.75.75.75L252,987l-.75,2.25-.75.75-1.5.75h-2.25l-1.5-.75-.75-2.25,1.5,1.5,3.75-4.5Zm7.5-7.5-.75,1.5-.75-2.25,2.25-1.5h2.25l1.5.75.75.75.75,2.25-.75,2.25-.75.75-1.5.75h-2.25l-1.5-.75-.75-2.25,1.5,1.5,3.75-4.5Zm0,7.5-.75,1.5-.75-2.25,2.25-1.5h2.25l1.5.75.75.75.75,2.25-.75,2.25L258,990l-1.5.75h-2.25l-1.5-.75-.75-2.25,1.5,1.5,3.75-4.5Zm0,7.5-.75,1.5-.75-2.25,2.25-1.5h2.25l1.5.75.75.75.75,2.25-.75,2.25-.75.75-1.5.75h-2.25l-1.5-.75-.75-2.25,1.5,1.5,3.75-4.5Zm0,7.5-.75,1.5-.75-2.25,2.25-1.5h2.25l1.5.75.75.75.75,2.25-.75,2.25-.75.75-1.5.75h-2.25l-1.5-.75-.75-2.25,1.5,1.5,3.75-4.5Zm0,7.5-.75,1.5-.75-2.25,2.25-1.5h2.25l1.5.75.75.75.75,2.25-.75,2.25-.75.75-1.5.75h-2.25l-1.5-.75-.75-2.25,1.5,1.5,3.75-4.5Zm0,7.5-.75,1.5-.75-2.25,2.25-1.5h2.25l1.5.75.75.75.75,2.25-.75,2.25-.75.75-1.5.75h-2.25l-1.5-.75-.75-2.25,1.5,1.5,3.75-4.5Zm0,7.5-.75,1.5-.75-2.25,2.25-1.5h2.25l1.5.75.75.75.75,2.25-.75,2.25-.75.75-1.5.75h-2.25l-1.5-.75-.75-2.25,1.5,1.5,3.75-4.5Zm0,7.5-.75,1.5-.75-2.25,2.25-1.5h2.25l1.5.75.75.75.75,2.25-.75,2.25-.75.75-1.5.75h-2.25l-1.5-.75-.75-2.25,1.5,1.5,3.75-4.5Zm0,7.5-.75,1.5-.75-2.25,2.25-1.5h2.25l1.5.75.75.75.75,2.25-.75,2.25-.75.75-1.5.75h-2.25l-1.5-.75-.75-2.25,1.5,1.5,3.75-4.5Zm0,7.5-.75,1.5-.75-2.25,2.25-1.5h2.25l1.5.75.75.75.75,2.25-.75,2.25-.75.75-1.5.75h-2.25l-1.5-.75-.75-2.25,1.5,1.5,3.75-4.5Zm7.5-60-.75,1.5-.75-2.25,2.25-1.5H264l1.5.75.75.75L267,987l-.75,2.25-.75.75-1.5.75h-2.25l-1.5-.75-.75-2.25,1.5,1.5,3.75-4.5Zm0,7.5-.75,1.5-.75-2.25,2.25-1.5H264l1.5.75.75.75.75,2.25-.75,2.25-.75.75-1.5.75h-2.25l-1.5-.75-.75-2.25,1.5,1.5,3.75-4.5Zm0,7.5-.75,1.5-.75-2.25,2.25-1.5H264l1.5.75.75.75L267,1002l-.75,2.25-.75.75-1.5.75h-2.25l-1.5-.75-.75-2.25,1.5,1.5,3.75-4.5Zm0,7.5-.75,1.5-.75-2.25,2.25-1.5H264l1.5.75.75.75.75,2.25-.75,2.25-.75.75-1.5.75h-2.25l-1.5-.75-.75-2.25,1.5,1.5,3.75-4.5Zm0,7.5-.75,1.5-.75-2.25,2.25-1.5H264l1.5.75.75.75L267,1017l-.75,2.25-.75.75-1.5.75h-2.25l-1.5-.75-.75-2.25,1.5,1.5,3.75-4.5Zm0,7.5-.75,1.5-.75-2.25,2.25-1.5H264l1.5.75.75.75.75,2.25-.75,2.25-.75.75-1.5.75h-2.25l-1.5-.75-.75-2.25,1.5,1.5,3.75-4.5Zm0,7.5-.75,1.5-.75-2.25,2.25-1.5H264l1.5.75.75.75L267,1032l-.75,2.25-.75.75-1.5.75h-2.25l-1.5-.75-.75-2.25,1.5,1.5,3.75-4.5Zm0,7.5-.75,1.5-.75-2.25,2.25-1.5H264l1.5.75.75.75.75,2.25-.75,2.25-.75.75-1.5.75h-2.25l-1.5-.75-.75-2.25,1.5,1.5,3.75-4.5Zm0,7.5-.75,1.5-.75-2.25,2.25-1.5H264l1.5.75.75.75L267,1047l-.75,2.25-.75.75-1.5.75h-2.25l-1.5-.75-.75-2.25,1.5,1.5,3.75-4.5Zm7.5,0-.75,1.5-.75-2.25,2.25-1.5h2.25l1.5.75.75.75.75,2.25-.75,2.25-.75.75-1.5.75h-2.25l-1.5-.75-.75-2.25,1.5,1.5,3.75-4.5Zm7.5,0-.75,1.5-.75-2.25,2.25-1.5H279l1.5.75.75.75L282,1047l-.75,2.25-.75.75-1.5.75h-2.25l-1.5-.75-.75-2.25,1.5,1.5,3.75-4.5Zm7.5-7.5-.75,1.5-.75-2.25,2.25-1.5h2.25l1.5.75.75.75.75,2.25-.75,2.25-.75.75-1.5.75h-2.25l-1.5-.75-.75-2.25,1.5,1.5,3.75-4.5Z"/><path class="cls-1" d="M435.35,432.78l-.75,1.5-.75-2.25,2.25-1.5h2.25l1.5.75.75.75.75,2.25-.75,2.25-.75.75-1.5.75H436.1l-1.5-.75-.75-2.25,1.5,1.5,3.75-4.5Zm7.5,0-.75,1.5-.75-2.25,2.25-1.5h2.25l1.5.75.75.75.75,2.25-.75,2.25-.75.75-1.5.75H443.6l-1.5-.75-.75-2.25,1.5,1.5,3.75-4.5Zm7.5,0-.75,1.5-.75-2.25,2.25-1.5h2.25l1.5.75.75.75.75,2.25-.75,2.25-.75.75-1.5.75H451.1l-1.5-.75-.75-2.25,1.5,1.5,3.75-4.5Zm0,7.5-.75,1.5-.75-2.25,2.25-1.5h2.25l1.5.75.75.75.75,2.25L455.6,444l-.75.75-1.5.75H451.1l-1.5-.75-.75-2.25,1.5,1.5,3.75-4.5Zm0,7.5-.75,1.5-.75-2.25,2.25-1.5h2.25l1.5.75.75.75.75,2.25-.75,2.25-.75.75-1.5.75H451.1l-1.5-.75-.75-2.25,1.5,1.5,3.75-4.5Zm0,7.5-.75,1.5-.75-2.25,2.25-1.5h2.25l1.5.75.75.75.75,2.25L455.6,459l-.75.75-1.5.75H451.1l-1.5-.75-.75-2.25,1.5,1.5,3.75-4.5Zm0,7.5-.75,1.5-.75-2.25,2.25-1.5h2.25l1.5.75.75.75.75,2.25-.75,2.25-.75.75-1.5.75H451.1l-1.5-.75-.75-2.25,1.5,1.5,3.75-4.5Zm0,7.5-.75,1.5-.75-2.25,2.25-1.5h2.25l1.5.75.75.75.75,2.25L455.6,474l-.75.75-1.5.75H451.1l-1.5-.75-.75-2.25,1.5,1.5,3.75-4.5Zm0,7.5-.75,1.5-.75-2.25,2.25-1.5h2.25l1.5.75.75.75.75,2.25-.75,2.25-.75.75-1.5.75H451.1l-1.5-.75-.75-2.25,1.5,1.5,3.75-4.5Zm0,7.5-.75,1.5-.75-2.25,2.25-1.5h2.25l1.5.75.75.75.75,2.25L455.6,489l-.75.75-1.5.75H451.1l-1.5-.75-.75-2.25,1.5,1.5,3.75-4.5Zm0,30-.75,1.5-.75-2.25,2.25-1.5h2.25l1.5.75.75.75.75,2.25L455.6,519l-.75.75-1.5.75H451.1l-1.5-.75-.75-2.25,1.5,1.5,3.75-4.5Zm0,7.5-.75,1.5-.75-2.25,2.25-1.5h2.25l1.5.75.75.75.75,2.25-.75,2.25-.75.75-1.5.75H451.1l-1.5-.75-.75-2.25,1.5,1.5,3.75-4.5Zm7.5-90-.75,1.5-.75-2.25,2.25-1.5h2.25l1.5.75.75.75.75,2.25-.75,2.25-.75.75-1.5.75H458.6l-1.5-.75-.75-2.25,1.5,1.5,3.75-4.5Zm0,7.5-.75,1.5-.75-2.25,2.25-1.5h2.25l1.5.75.75.75.75,2.25L463.1,444l-.75.75-1.5.75H458.6l-1.5-.75-.75-2.25,1.5,1.5,3.75-4.5Zm0,7.5-.75,1.5-.75-2.25,2.25-1.5h2.25l1.5.75.75.75.75,2.25-.75,2.25-.75.75-1.5.75H458.6l-1.5-.75-.75-2.25,1.5,1.5,3.75-4.5Zm0,7.5-.75,1.5-.75-2.25,2.25-1.5h2.25l1.5.75.75.75.75,2.25L463.1,459l-.75.75-1.5.75H458.6l-1.5-.75-.75-2.25,1.5,1.5,3.75-4.5Zm0,7.5-.75,1.5-.75-2.25,2.25-1.5h2.25l1.5.75.75.75.75,2.25-.75,2.25-.75.75-1.5.75H458.6l-1.5-.75-.75-2.25,1.5,1.5,3.75-4.5Zm0,7.5-.75,1.5-.75-2.25,2.25-1.5h2.25l1.5.75.75.75.75,2.25L463.1,474l-.75.75-1.5.75H458.6l-1.5-.75-.75-2.25,1.5,1.5,3.75-4.5Zm0,7.5-.75,1.5-.75-2.25,2.25-1.5h2.25l1.5.75.75.75.75,2.25-.75,2.25-.75.75-1.5.75H458.6l-1.5-.75-.75-2.25,1.5,1.5,3.75-4.5Zm0,7.5-.75,1.5-.75-2.25,2.25-1.5h2.25l1.5.75.75.75.75,2.25L463.1,489l-.75.75-1.5.75H458.6l-1.5-.75-.75-2.25,1.5,1.5,3.75-4.5Zm0,7.5-.75,1.5-.75-2.25,2.25-1.5h2.25l1.5.75.75.75.75,2.25-.75,2.25-.75.75-1.5.75H458.6l-1.5-.75-.75-2.25,1.5,1.5,3.75-4.5Zm0,30-.75,1.5-.75-2.25,2.25-1.5h2.25l1.5.75.75.75.75,2.25-.75,2.25-.75.75-1.5.75H458.6l-1.5-.75-.75-2.25,1.5,1.5,3.75-4.5Zm0,7.5-.75,1.5-.75-2.25,2.25-1.5h2.25l1.5.75.75.75.75,2.25L463.1,534l-.75.75-1.5.75H458.6l-1.5-.75-.75-2.25,1.5,1.5,3.75-4.5Zm7.5-90-.75,1.5-.75-2.25,2.25-1.5h2.25l1.5.75.75.75.75,2.25L470.6,444l-.75.75-1.5.75H466.1l-1.5-.75-.75-2.25,1.5,1.5,3.75-4.5Zm0,52.5-.75,1.5-.75-2.25,2.25-1.5h2.25l1.5.75.75.75.75,2.25-.75,2.25-.75.75-1.5.75H466.1l-1.5-.75-.75-2.25,1.5,1.5,3.75-4.5Zm0,7.5-.75,1.5-.75-2.25,2.25-1.5h2.25l1.5.75.75.75.75,2.25L470.6,504l-.75.75-1.5.75H466.1l-1.5-.75-.75-2.25,1.5,1.5,3.75-4.5Zm0,30-.75,1.5-.75-2.25,2.25-1.5h2.25l1.5.75.75.75.75,2.25L470.6,534l-.75.75-1.5.75H466.1l-1.5-.75-.75-2.25,1.5,1.5,3.75-4.5Zm7.5-30-.75,1.5-.75-2.25,2.25-1.5h2.25l1.5.75.75.75.75,2.25L478.1,504l-.75.75-1.5.75H473.6l-1.5-.75-.75-2.25,1.5,1.5,3.75-4.5Zm0,30-.75,1.5-.75-2.25,2.25-1.5h2.25l1.5.75.75.75.75,2.25L478.1,534l-.75.75-1.5.75H473.6l-1.5-.75-.75-2.25,1.5,1.5,3.75-4.5Zm7.5-30-.75,1.5-.75-2.25,2.25-1.5h2.25l1.5.75.75.75.75,2.25L485.6,504l-.75.75-1.5.75H481.1l-1.5-.75-.75-2.25,1.5,1.5,3.75-4.5Zm0,30-.75,1.5-.75-2.25,2.25-1.5h2.25l1.5.75.75.75.75,2.25L485.6,534l-.75.75-1.5.75H481.1l-1.5-.75-.75-2.25,1.5,1.5,3.75-4.5Zm7.5-97.5-.75,1.5-.75-2.25,2.25-1.5h2.25l1.5.75.75.75.75,2.25-.75,2.25-.75.75-1.5.75H488.6l-1.5-.75-.75-2.25,1.5,1.5,3.75-4.5Zm0,60-.75,1.5-.75-2.25,2.25-1.5h2.25l1.5.75.75.75.75,2.25-.75,2.25-.75.75-1.5.75H488.6l-1.5-.75-.75-2.25,1.5,1.5,3.75-4.5Zm0,30-.75,1.5-.75-2.25,2.25-1.5h2.25l1.5.75.75.75.75,2.25-.75,2.25-.75.75-1.5.75H488.6l-1.5-.75-.75-2.25,1.5,1.5,3.75-4.5Zm0,7.5-.75,1.5-.75-2.25,2.25-1.5h2.25l1.5.75.75.75.75,2.25L493.1,534l-.75.75-1.5.75H488.6l-1.5-.75-.75-2.25,1.5,1.5,3.75-4.5Zm7.5-97.5-.75,1.5-.75-2.25,2.25-1.5h2.25l1.5.75.75.75.75,2.25-.75,2.25-.75.75-1.5.75H496.1l-1.5-.75-.75-2.25,1.5,1.5,3.75-4.5Zm0,7.5-.75,1.5-.75-2.25,2.25-1.5h2.25l1.5.75.75.75.75,2.25L500.6,444l-.75.75-1.5.75H496.1l-1.5-.75-.75-2.25,1.5,1.5,3.75-4.5Zm0,7.5-.75,1.5-.75-2.25,2.25-1.5h2.25l1.5.75.75.75.75,2.25-.75,2.25-.75.75-1.5.75H496.1l-1.5-.75-.75-2.25,1.5,1.5,3.75-4.5Zm0,7.5-.75,1.5-.75-2.25,2.25-1.5h2.25l1.5.75.75.75.75,2.25L500.6,459l-.75.75-1.5.75H496.1l-1.5-.75-.75-2.25,1.5,1.5,3.75-4.5Zm0,7.5-.75,1.5-.75-2.25,2.25-1.5h2.25l1.5.75.75.75.75,2.25-.75,2.25-.75.75-1.5.75H496.1l-1.5-.75-.75-2.25,1.5,1.5,3.75-4.5Zm0,7.5-.75,1.5-.75-2.25,2.25-1.5h2.25l1.5.75.75.75.75,2.25L500.6,474l-.75.75-1.5.75H496.1l-1.5-.75-.75-2.25,1.5,1.5,3.75-4.5Zm0,7.5-.75,1.5-.75-2.25,2.25-1.5h2.25l1.5.75.75.75.75,2.25-.75,2.25-.75.75-1.5.75H496.1l-1.5-.75-.75-2.25,1.5,1.5,3.75-4.5Zm0,7.5-.75,1.5-.75-2.25,2.25-1.5h2.25l1.5.75.75.75.75,2.25L500.6,489l-.75.75-1.5.75H496.1l-1.5-.75-.75-2.25,1.5,1.5,3.75-4.5Zm0,7.5-.75,1.5-.75-2.25,2.25-1.5h2.25l1.5.75.75.75.75,2.25-.75,2.25-.75.75-1.5.75H496.1l-1.5-.75-.75-2.25,1.5,1.5,3.75-4.5Zm0,7.5-.75,1.5-.75-2.25,2.25-1.5h2.25l1.5.75.75.75.75,2.25L500.6,504l-.75.75-1.5.75H496.1l-1.5-.75-.75-2.25,1.5,1.5,3.75-4.5Zm0,7.5-.75,1.5-.75-2.25,2.25-1.5h2.25l1.5.75.75.75.75,2.25-.75,2.25-.75.75-1.5.75H496.1l-1.5-.75-.75-2.25,1.5,1.5,3.75-4.5Zm0,7.5-.75,1.5-.75-2.25,2.25-1.5h2.25l1.5.75.75.75.75,2.25L500.6,519l-.75.75-1.5.75H496.1l-1.5-.75-.75-2.25,1.5,1.5,3.75-4.5Zm0,7.5-.75,1.5-.75-2.25,2.25-1.5h2.25l1.5.75.75.75.75,2.25-.75,2.25-.75.75-1.5.75H496.1l-1.5-.75-.75-2.25,1.5,1.5,3.75-4.5Zm7.5-90-.75,1.5-.75-2.25,2.25-1.5h2.25l1.5.75.75.75.75,2.25-.75,2.25-.75.75-1.5.75H503.6l-1.5-.75-.75-2.25,1.5,1.5,3.75-4.5Zm0,7.5-.75,1.5-.75-2.25,2.25-1.5h2.25l1.5.75.75.75.75,2.25L508.1,444l-.75.75-1.5.75H503.6l-1.5-.75-.75-2.25,1.5,1.5,3.75-4.5Zm0,7.5-.75,1.5-.75-2.25,2.25-1.5h2.25l1.5.75.75.75.75,2.25-.75,2.25-.75.75-1.5.75H503.6l-1.5-.75-.75-2.25,1.5,1.5,3.75-4.5Zm0,7.5-.75,1.5-.75-2.25,2.25-1.5h2.25l1.5.75.75.75.75,2.25L508.1,459l-.75.75-1.5.75H503.6l-1.5-.75-.75-2.25,1.5,1.5,3.75-4.5Zm0,7.5-.75,1.5-.75-2.25,2.25-1.5h2.25l1.5.75.75.75.75,2.25-.75,2.25-.75.75-1.5.75H503.6l-1.5-.75-.75-2.25,1.5,1.5,3.75-4.5Zm0,7.5-.75,1.5-.75-2.25,2.25-1.5h2.25l1.5.75.75.75.75,2.25L508.1,474l-.75.75-1.5.75H503.6l-1.5-.75-.75-2.25,1.5,1.5,3.75-4.5Zm0,7.5-.75,1.5-.75-2.25,2.25-1.5h2.25l1.5.75.75.75.75,2.25-.75,2.25-.75.75-1.5.75H503.6l-1.5-.75-.75-2.25,1.5,1.5,3.75-4.5Zm0,7.5-.75,1.5-.75-2.25,2.25-1.5h2.25l1.5.75.75.75.75,2.25L508.1,489l-.75.75-1.5.75H503.6l-1.5-.75-.75-2.25,1.5,1.5,3.75-4.5Zm0,7.5-.75,1.5-.75-2.25,2.25-1.5h2.25l1.5.75.75.75.75,2.25-.75,2.25-.75.75-1.5.75H503.6l-1.5-.75-.75-2.25,1.5,1.5,3.75-4.5Zm0,7.5-.75,1.5-.75-2.25,2.25-1.5h2.25l1.5.75.75.75.75,2.25L508.1,504l-.75.75-1.5.75H503.6l-1.5-.75-.75-2.25,1.5,1.5,3.75-4.5Zm0,7.5-.75,1.5-.75-2.25,2.25-1.5h2.25l1.5.75.75.75.75,2.25-.75,2.25-.75.75-1.5.75H503.6l-1.5-.75-.75-2.25,1.5,1.5,3.75-4.5Zm0,7.5-.75,1.5-.75-2.25,2.25-1.5h2.25l1.5.75.75.75.75,2.25L508.1,519l-.75.75-1.5.75H503.6l-1.5-.75-.75-2.25,1.5,1.5,3.75-4.5Zm7.5-75-.75,1.5-.75-2.25,2.25-1.5h2.25l1.5.75.75.75.75,2.25L515.6,444l-.75.75-1.5.75H511.1l-1.5-.75-.75-2.25,1.5,1.5,3.75-4.5Z"/><circle class="cls-2" cx="1009.5" cy="1009.5" r="1008"/><path class="cls-2" d="M647,146.28C310.1,287.93,73.5,621.08,73.5,1009.5"/><polyline class="cls-2" points="142.8 1363.61 140.84 1368.35 145.6 1370.33"/><polyline class="cls-2" points="1370.36 145.61 1369.33 143.11 1366.84 144.15"/><polyline class="cls-2" points="1875.03 1366.41 1875.89 1366.06 1875.53 1365.2"/><polyline class="cls-2" points="647.04 146.28 647.4 145.41 648.26 145.77"/><path class="cls-2" d="M958.22,313.4a89.7,89.7,0,0,0,32.47,13.49"/><line class="cls-2" x1="697.68" y1="421.32" x2="781.93" y2="386.42"/><line class="cls-2" x1="651.69" y1="467.31" x2="697.68" y2="421.32"/><line class="cls-2" x1="697.68" y1="421.32" x2="732.58" y2="386.42"/><line class="cls-2" x1="590.24" y1="492.76" x2="495.9" y2="587.1"/><line class="cls-2" x1="495.9" y1="587.1" x2="470.44" y2="648.56"/><line class="cls-2" x1="506.46" y1="561.59" x2="495.9" y2="587.1"/><line class="cls-2" x1="442.2" y1="640.8" x2="473.05" y2="566.33"/><line class="cls-2" x1="1461.18" y1="435.4" x2="1440.89" y2="386.42"/><line class="cls-2" x1="1326.85" y1="426.85" x2="1229.25" y2="386.42"/><line class="cls-2" x1="1388.31" y1="452.31" x2="1451.26" y2="478.38"/><line class="cls-2" x1="907.13" y1="361.5" x2="846.96" y2="386.42"/><line class="cls-2" x1="1286.42" y1="386.42" x2="1229.25" y2="386.42"/><line class="cls-2" x1="1166.7" y1="386.42" x2="1229.25" y2="386.42"/><line class="cls-2" x1="386.42" y1="696.58" x2="442.2" y2="640.8"/><line class="cls-2" x1="416.74" y1="702.26" x2="442.2" y2="640.8"/><path class="cls-2" d="M1056.28,314.78a89.49,89.49,0,0,1-32.39,12.49"/><line class="cls-2" x1="1106.53" y1="361.5" x2="1169.08" y2="361.5"/><path class="cls-2" d="M937.21,1726.7a90.23,90.23,0,0,1,20-20.18"/><path class="cls-2" d="M1025,1690.36a89.56,89.56,0,0,1,35,13.67"/><line class="cls-2" x1="696.58" y1="1632.58" x2="638.49" y2="1574.49"/><line class="cls-2" x1="859.07" y1="1759.07" x2="757.5" y2="1657.5"/><line class="cls-2" x1="1574.54" y1="638.54" x2="1544.65" y2="566.38"/><line class="cls-2" x1="259.28" y1="859.72" x2="361.5" y2="757.5"/><line class="cls-2" x1="1372.67" y1="1546.33" x2="1324.59" y2="1594.41"/><line class="cls-2" x1="1386.04" y1="1568.96" x2="1434.13" y2="1520.87"/><line class="cls-2" x1="1386.04" y1="1568.96" x2="1322.42" y2="1632.58"/><line class="cls-2" x1="1386.04" y1="1568.96" x2="1451.24" y2="1541.95"/><line class="cls-2" x1="1324.59" y1="1594.41" x2="1232.45" y2="1632.58"/><line class="cls-2" x1="1324.59" y1="1594.41" x2="1286.42" y2="1632.58"/><line class="cls-2" x1="386.42" y1="775.46" x2="386.42" y2="851.39"/><line class="cls-2" x1="386.42" y1="732.58" x2="361.5" y2="757.5"/><line class="cls-2" x1="361.5" y1="757.5" x2="361.5" y2="835.63"/><line class="cls-2" x1="567.72" y1="1545.18" x2="638.49" y2="1574.49"/><line class="cls-2" x1="638.49" y1="1574.49" x2="699.94" y2="1599.94"/><line class="cls-2" x1="236.76" y1="1136.76" x2="252.9" y2="1097.82"/><line class="cls-2" x1="311.35" y1="956.7" x2="361.5" y2="835.63"/><line class="cls-2" x1="361.5" y1="911.56" x2="361.5" y2="835.63"/><line class="cls-2" x1="361.5" y1="1106.5" x2="361.5" y2="911.56"/><line class="cls-2" x1="327" y1="994.85" x2="361.5" y2="911.56"/><line class="cls-2" x1="563.12" y1="1514.07" x2="588.64" y2="1524.64"/><line class="cls-2" x1="588.64" y1="1524.64" x2="650.1" y2="1550.1"/><line class="cls-2" x1="588.64" y1="1524.64" x2="496.56" y2="1432.56"/><line class="cls-2" x1="1632.58" y1="1438.67" x2="1579.5" y2="1460.66"/><line class="cls-2" x1="386.42" y1="1009.5" x2="386.42" y2="1166.67"/><line class="cls-2" x1="849.22" y1="1632.58" x2="650.1" y2="1550.1"/><line class="cls-2" x1="471.1" y1="1371.1" x2="650.1" y2="1550.1"/><path class="cls-2" d="M1023.89,327.27a90.59,90.59,0,0,1-33.2-.38"/><line class="cls-2" x1="990.69" y1="326.89" x2="907.13" y2="361.5"/><line class="cls-2" x1="907.13" y1="361.5" x2="1106.53" y2="361.5"/><line class="cls-2" x1="1023.89" y1="327.27" x2="1106.53" y2="361.5"/><line class="cls-2" x1="838.9" y1="1657.5" x2="757.5" y2="1657.5"/><line class="cls-2" x1="1104.28" y1="1657.5" x2="1164.45" y2="1632.58"/><line class="cls-2" x1="757.5" y1="1657.5" x2="732.58" y2="1632.58"/><line class="cls-2" x1="849.22" y1="1632.58" x2="778.73" y2="1632.58"/><line class="cls-2" x1="1009.5" y1="1632.58" x2="849.22" y2="1632.58"/><line class="cls-2" x1="1524.67" y1="588.67" x2="1513.6" y2="561.94"/><line class="cls-2" x1="1432.53" y1="496.53" x2="1456.4" y2="506.42"/><line class="cls-2" x1="416.74" y1="702.26" x2="386.42" y2="775.46"/><line class="cls-2" x1="416.74" y1="702.26" x2="386.42" y2="732.58"/><line class="cls-2" x1="386.42" y1="732.58" x2="386.42" y2="775.46"/><path class="cls-2" d="M1009.5,624.64c-213.52,0-386.61,173.09-386.61,386.61"/><path class="cls-2" d="M1009.5,1397.87c213.52,0,386.61-173.1,386.61-386.62S1223,624.64,1009.5,624.64"/><line class="cls-2" x1="1524.01" y1="1430.99" x2="1434.13" y2="1520.87"/><line class="cls-2" x1="1434.13" y1="1520.87" x2="1456.8" y2="1511.48"/><path class="cls-2" d="M1025,1690.36a90.47,90.47,0,0,0-34,.93"/><line class="cls-2" x1="1024.95" y1="1690.36" x2="1104.28" y2="1657.5"/><line class="cls-2" x1="1104.28" y1="1657.5" x2="909.39" y2="1657.5"/><line class="cls-2" x1="248.74" y1="834.26" x2="361.5" y2="721.5"/><line class="cls-2" x1="1470.11" y1="386.42" x2="1480.11" y2="410.57"/><line class="cls-2" x1="1166.7" y1="386.42" x2="1371.08" y2="471.08"/><line class="cls-2" x1="1009.5" y1="386.42" x2="1166.7" y2="386.42"/><polyline class="cls-2" points="1098.88 549.72 1247.94 434.51 1271.38 617.47"/><path class="cls-2" d="M991,1691.29a89.59,89.59,0,0,0-33.72,15.23"/><line class="cls-2" x1="838.9" y1="1657.5" x2="957.24" y2="1706.52"/><line class="cls-2" x1="909.39" y1="1657.5" x2="838.9" y2="1657.5"/><line class="cls-2" x1="909.39" y1="1657.5" x2="990.96" y2="1691.29"/><line class="cls-2" x1="699.94" y1="1599.94" x2="732.58" y2="1632.58"/><line class="cls-2" x1="699.94" y1="1599.94" x2="778.73" y2="1632.58"/><line class="cls-2" x1="732.58" y1="1632.58" x2="778.73" y2="1632.58"/><path class="cls-2" d="M1692.49,993.83a90.7,90.7,0,0,0-.5,31.62"/><line class="cls-2" x1="1549.46" y1="1369.54" x2="1461.07" y2="1457.93"/><polyline class="cls-2" points="1401.72 1272.1 1585.15 1248.6 1469.38 1098.83"/><line class="cls-2" x1="1164.45" y1="1632.58" x2="1372.67" y2="1546.33"/><line class="cls-2" x1="1372.67" y1="1546.33" x2="1461.07" y2="1457.93"/><line class="cls-2" x1="1164.45" y1="1632.58" x2="1009.5" y2="1632.58"/><polyline class="cls-2" points="1100.15 1466.96 1247.94 1585.81 1268.04 1400.62"/><line class="cls-2" x1="651.69" y1="467.31" x2="846.96" y2="386.42"/><line class="cls-2" x1="651.69" y1="467.31" x2="561.07" y2="557.93"/><line class="cls-2" x1="846.96" y1="386.42" x2="1009.5" y2="386.42"/><polyline class="cls-2" points="751.1 618.42 771.06 434.51 918.34 552.96"/><path class="cls-2" d="M1945.5,1009.5a933.24,933.24,0,0,1-70,355.7"/><line class="cls-2" x1="1524.67" y1="588.67" x2="1574.54" y2="638.54"/><line class="cls-2" x1="1432.53" y1="496.53" x2="1371.08" y2="471.08"/><line class="cls-2" x1="1632.58" y1="696.58" x2="1574.54" y2="638.54"/><line class="cls-2" x1="1524.67" y1="588.67" x2="1432.53" y2="496.53"/><line class="cls-2" x1="1460.6" y1="560.6" x2="1371.08" y2="471.08"/><line class="cls-2" x1="1599.99" y1="699.99" x2="1632.58" y2="732.58"/><path class="cls-2" d="M1692.49,993.83a89.43,89.43,0,0,1,14.84-34.71"/><line class="cls-2" x1="1692.49" y1="993.83" x2="1657.5" y2="909.36"/><line class="cls-2" x1="1599.99" y1="699.99" x2="1550.12" y2="650.12"/><line class="cls-2" x1="1632.58" y1="778.66" x2="1599.99" y2="699.99"/><polyline class="cls-2" points="1466.87 918.8 1585.15 771.72 1400.43 751.67"/><line class="cls-2" x1="1550.12" y1="650.12" x2="1460.6" y2="560.6"/><line class="cls-2" x1="1632.58" y1="849.19" x2="1550.12" y2="650.12"/><line class="cls-2" x1="1632.58" y1="1466.84" x2="1605.23" y2="1478.17"/><path class="cls-2" d="M1847.61,1071.39a90,90,0,0,0-90-147.31"/><line class="cls-2" x1="833.61" y1="1769.61" x2="721.5" y2="1657.5"/><line class="cls-2" x1="561.07" y1="557.93" x2="470.44" y2="648.56"/><line class="cls-2" x1="470.44" y1="648.56" x2="386.42" y2="851.39"/><line class="cls-2" x1="386.42" y1="1009.5" x2="386.42" y2="851.39"/><polyline class="cls-2" points="617.62 748.18 433.85 771.72 548.89 920.57"/><path class="cls-2" d="M622.89,1011.25c0,213.52,173.09,386.62,386.61,386.62"/><polyline class="cls-2" points="552.87 1100.61 433.85 1248.6 618.22 1268.62"/><polyline class="cls-2" points="920.63 1470.21 771.06 1585.81 747.46 1401.57"/><path class="cls-2" d="M1728.19,938.05a89.39,89.39,0,0,1,29.44-14"/><line class="cls-2" x1="1777.09" y1="877.09" x2="1757.63" y2="924.08"/><line class="cls-2" x1="557.89" y1="361.5" x2="647.04" y2="146.28"/><path class="cls-2" d="M647,146.28l1.22-.51"/><polyline class="cls-2" points="834.27 248.73 665.09 178.65 589.34 361.5"/><line class="cls-2" x1="579.41" y1="1632.58" x2="558.53" y2="1582.18"/><line class="cls-2" x1="386.42" y1="1166.67" x2="361.5" y2="1106.5"/><line class="cls-2" x1="327" y1="1023.22" x2="361.5" y2="1106.5"/><line class="cls-2" x1="506.92" y1="1457.56" x2="496.56" y2="1432.56"/><line class="cls-2" x1="471.1" y1="1371.1" x2="496.56" y2="1432.56"/><line class="cls-2" x1="471.1" y1="1371.1" x2="386.42" y2="1166.67"/><line class="cls-2" x1="426.9" y1="1326.9" x2="386.42" y2="1229.18"/><line class="cls-2" x1="542.18" y1="1605.22" x2="553.52" y2="1632.58"/><path class="cls-2" d="M1099.36,1765.39a88.91,88.91,0,0,0-13-34.59"/><line class="cls-2" x1="579.41" y1="1632.58" x2="696.58" y2="1632.58"/><line class="cls-2" x1="721.5" y1="1657.5" x2="696.58" y2="1632.58"/><line class="cls-2" x1="589.73" y1="1657.5" x2="721.5" y2="1657.5"/><line class="cls-2" x1="553.52" y1="1632.58" x2="477.09" y2="1632.58"/><line class="cls-2" x1="386.42" y1="1470.08" x2="386.42" y2="1542.58"/><polyline class="cls-2" points="477.09 1632.58 386.42 1632.58 386.42 1542.58"/><line class="cls-2" x1="579.41" y1="1632.58" x2="553.52" y2="1632.58"/><path class="cls-2" d="M922.18,1761.1a89.29,89.29,0,0,1,15-34.4"/><line class="cls-2" x1="859.07" y1="1759.07" x2="937.21" y2="1726.7"/><line class="cls-2" x1="833.61" y1="1769.61" x2="859.07" y2="1759.07"/><polyline class="cls-2" points="589.73 1657.5 665.09 1839.42 833.61 1769.61"/><line class="cls-2" x1="589.73" y1="1657.5" x2="563.84" y2="1657.5"/><path class="cls-2" d="M1099.36,1765.39a90,90,0,1,1-177.18-4.29"/><line class="cls-2" x1="1099.36" y1="1765.39" x2="1137.72" y2="1781.28"/><line class="cls-2" x1="878.99" y1="1778.99" x2="922.18" y2="1761.1"/><line class="cls-2" x1="167.75" y1="915.25" x2="230.43" y2="852.57"/><line class="cls-2" x1="240.97" y1="878.03" x2="205.46" y2="913.54"/><line class="cls-2" x1="240.97" y1="878.03" x2="258.96" y2="921.46"/><polyline class="cls-2" points="230.43 852.57 146.38 649.67 361.5 560.57"/><line class="cls-2" x1="248.74" y1="834.26" x2="259.28" y2="859.72"/><line class="cls-2" x1="290.94" y1="936.17" x2="259.28" y2="859.72"/><polyline class="cls-2" points="361.5 587.51 178.01 663.51 248.74 834.26"/><line class="cls-2" x1="240.97" y1="878.03" x2="230.43" y2="852.57"/><line class="cls-2" x1="103.55" y1="979.45" x2="73.5" y2="1009.5"/><line class="cls-2" x1="386.42" y1="1229.18" x2="386.42" y2="1286.42"/><line class="cls-2" x1="361.5" y1="1169.01" x2="386.42" y2="1229.18"/><line class="cls-2" x1="361.5" y1="1430.56" x2="361.5" y2="1297.5"/><line class="cls-2" x1="192.3" y1="1092.3" x2="236.76" y2="1136.76"/><line class="cls-2" x1="236.76" y1="1136.76" x2="259.01" y2="1159.01"/><line class="cls-2" x1="248.46" y1="1184.46" x2="361.5" y2="1297.5"/><line class="cls-2" x1="361.5" y1="1297.5" x2="361.5" y2="1261.5"/><line class="cls-2" x1="478.97" y1="1452.6" x2="452.36" y2="1388.36"/><line class="cls-2" x1="386.42" y1="1440.88" x2="386.42" y2="1322.42"/><line class="cls-2" x1="1524.01" y1="1430.99" x2="1549.46" y2="1369.54"/><line class="cls-2" x1="1564.38" y1="1390.62" x2="1538.69" y2="1452.64"/><line class="cls-2" x1="1524.01" y1="1430.99" x2="1513.15" y2="1457.2"/><line class="cls-2" x1="1549.46" y1="1369.54" x2="1632.58" y2="1168.88"/><path class="cls-2" d="M1945.5,1009.5c0-389-237.35-722.62-575.14-863.89"/><path class="cls-2" d="M1096.61,256.08a89.33,89.33,0,0,1-13.44,32.5"/><path class="cls-2" d="M1366.83,144.15l3.53,1.46"/><line class="cls-2" x1="1370.36" y1="145.61" x2="1459.78" y2="361.5"/><line class="cls-2" x1="834.27" y1="248.73" x2="721.5" y2="361.5"/><line class="cls-2" x1="834.27" y1="248.73" x2="852.59" y2="230.41"/><line class="cls-2" x1="1138.66" y1="238.66" x2="1164.12" y2="228.11"/><path class="cls-2" d="M1366.83,144.15A933.09,933.09,0,0,0,1009.5,73.5"/><line class="cls-2" x1="1164.12" y1="228.11" x2="1366.83" y2="144.15"/><line class="cls-2" x1="1009.5" y1="73.5" x2="1164.12" y2="228.11"/><line class="cls-2" x1="1945.5" y1="1009.5" x2="1791.84" y2="1163.16"/><polyline class="cls-2" points="1777.09 877.09 1909.5 1009.5 1847.61 1071.39"/><line class="cls-2" x1="1777.09" y1="877.09" x2="1760.37" y2="860.37"/><line class="cls-2" x1="1945.5" y1="1009.5" x2="1787.64" y2="851.64"/><path class="cls-2" d="M1702.93,1056.13a90.62,90.62,0,0,0,27.61,29.57"/><polyline class="cls-2" points="361.5 560.57 361.5 361.5 557.89 361.5"/><line class="cls-2" x1="386.42" y1="696.58" x2="386.42" y2="577.18"/><line class="cls-2" x1="386.42" y1="696.58" x2="361.5" y2="721.5"/><line class="cls-2" x1="361.5" y1="587.51" x2="361.5" y2="721.5"/><line class="cls-2" x1="557.89" y1="361.5" x2="547.57" y2="386.42"/><line class="cls-2" x1="361.5" y1="587.51" x2="361.5" y2="560.57"/><line class="cls-2" x1="1172.28" y1="1657.5" x2="1232.45" y2="1632.58"/><line class="cls-2" x1="1286.42" y1="1632.58" x2="1322.42" y2="1632.58"/><line class="cls-2" x1="1322.42" y1="1632.58" x2="1440.51" y2="1632.58"/><line class="cls-2" x1="1232.45" y1="1632.58" x2="1286.42" y2="1632.58"/><line class="cls-2" x1="1430.18" y1="1657.5" x2="1297.5" y2="1657.5"/><path class="cls-2" d="M1086.34,1730.8A90.37,90.37,0,0,0,1060,1704"/><line class="cls-2" x1="1059.96" y1="1704.03" x2="1172.28" y2="1657.5"/><line class="cls-2" x1="1086.34" y1="1730.8" x2="1158.37" y2="1760.63"/><line class="cls-2" x1="1172.28" y1="1657.5" x2="1261.5" y2="1657.5"/><path class="cls-2" d="M1009.5,73.5a933.18,933.18,0,0,0-361.24,72.27"/><line class="cls-2" x1="648.26" y1="145.77" x2="852.59" y2="230.41"/><line class="cls-2" x1="852.59" y1="230.41" x2="1009.5" y2="73.5"/><line class="cls-2" x1="1440.51" y1="1632.58" x2="1460.97" y2="1583.18"/><line class="cls-2" x1="1464.16" y1="1632.58" x2="1475.89" y2="1604.26"/><line class="cls-2" x1="1440.51" y1="1632.58" x2="1430.18" y2="1657.5"/><polyline class="cls-2" points="1183.83 1771.17 1353.91 1841.63 1430.18 1657.5"/><line class="cls-2" x1="1632.58" y1="1322.42" x2="1564.38" y2="1390.62"/><line class="cls-2" x1="1564.38" y1="1390.62" x2="1589.84" y2="1329.16"/><line class="cls-2" x1="1657.5" y1="1261.5" x2="1760.64" y2="1158.36"/><line class="cls-2" x1="1657.5" y1="1297.5" x2="1771.19" y2="1183.81"/><line class="cls-2" x1="1632.58" y1="1438.67" x2="1632.58" y2="1466.84"/><line class="cls-2" x1="1632.58" y1="1438.67" x2="1632.58" y2="1322.42"/><polyline class="cls-2" points="1541.91 1632.58 1632.58 1632.58 1632.58 1542.58"/><line class="cls-2" x1="1464.16" y1="1632.58" x2="1541.91" y2="1632.58"/><line class="cls-2" x1="1632.58" y1="1466.84" x2="1632.58" y2="1542.58"/><line class="cls-2" x1="1453.84" y1="1657.5" x2="1464.16" y2="1632.58"/><line class="cls-2" x1="1657.5" y1="1428.35" x2="1657.5" y2="1297.5"/><line class="cls-2" x1="1632.58" y1="1322.42" x2="1657.5" y2="1297.5"/><line class="cls-2" x1="1632.58" y1="579.39" x2="1632.58" y2="696.58"/><line class="cls-2" x1="1632.58" y1="732.58" x2="1632.58" y2="696.58"/><line class="cls-2" x1="1632.58" y1="778.66" x2="1632.58" y2="732.58"/><line class="cls-2" x1="1632.58" y1="778.66" x2="1657.5" y2="838.83"/><line class="cls-2" x1="1657.5" y1="721.5" x2="1657.5" y2="757.5"/><path class="cls-2" d="M1707.33,959.12a90.5,90.5,0,0,1,20.86-21.07"/><line class="cls-2" x1="1657.5" y1="838.83" x2="1707.33" y2="959.12"/><line class="cls-2" x1="1760.37" y1="860.37" x2="1728.19" y2="938.05"/><line class="cls-2" x1="1657.5" y1="757.5" x2="1760.37" y2="860.37"/><line class="cls-2" x1="1657.5" y1="757.5" x2="1657.5" y2="838.83"/><path class="cls-2" d="M1841.18,1077.82a90,90,0,0,1-75.6,21.93"/><line class="cls-2" x1="1781.3" y1="1137.7" x2="1841.18" y2="1077.82"/><path class="cls-2" d="M142.8,1363.61c.92,2.24,1.86,4.48,2.8,6.72"/><line class="cls-2" x1="386.42" y1="1470.08" x2="411.48" y2="1480.46"/><line class="cls-2" x1="361.5" y1="1459.76" x2="386.42" y2="1470.08"/><polyline class="cls-2" points="361.5 1430.56 178.01 1354.55 248.46 1184.46"/><line class="cls-2" x1="361.5" y1="1430.56" x2="386.42" y2="1440.88"/><line class="cls-2" x1="248.46" y1="1184.46" x2="226.22" y2="1162.22"/><line class="cls-2" x1="437.01" y1="1461.83" x2="386.42" y2="1440.88"/><path class="cls-2" d="M73.5,1009.5a933.45,933.45,0,0,0,69.3,354.11"/><line class="cls-2" x1="73.5" y1="1009.5" x2="114.74" y2="1050.74"/><line class="cls-2" x1="226.22" y1="1162.22" x2="142.19" y2="1078.19"/><line class="cls-2" x1="226.22" y1="1162.22" x2="142.8" y2="1363.61"/><line class="cls-2" x1="1322.42" y1="386.42" x2="1440.89" y2="386.42"/><line class="cls-2" x1="1470.11" y1="386.42" x2="1440.89" y2="386.42"/><line class="cls-2" x1="1632.58" y1="476.42" x2="1632.58" y2="553.49"/><polyline class="cls-2" points="1632.58 476.42 1632.58 386.42 1541.91 386.42"/><line class="cls-2" x1="1541.91" y1="386.42" x2="1470.11" y2="386.42"/><polyline class="cls-2" points="1657.5 563.81 1657.5 361.5 1459.79 361.5"/><line class="cls-2" x1="1430.57" y1="361.5" x2="1459.78" y2="361.5"/><line class="cls-2" x1="1770.91" y1="834.91" x2="1657.5" y2="721.5"/><line class="cls-2" x1="1657.5" y1="589.72" x2="1657.5" y2="721.5"/><line class="cls-2" x1="1632.58" y1="579.39" x2="1580.56" y2="557.85"/><line class="cls-2" x1="1632.58" y1="553.49" x2="1604.26" y2="541.76"/><polyline class="cls-2" points="1657.5 563.81 1870.34 651.97 1787.63 851.63"/><line class="cls-2" x1="1770.91" y1="834.91" x2="1787.64" y2="851.64"/><line class="cls-2" x1="1657.5" y1="589.72" x2="1632.58" y2="579.39"/><line class="cls-2" x1="1632.58" y1="553.49" x2="1657.5" y2="563.81"/><polyline class="cls-2" points="1770.91 834.91 1840.99 665.72 1657.5 589.72"/><polyline class="cls-2" points="1183.16 247.16 1353.91 176.44 1430.57 361.5"/><line class="cls-2" x1="1297.5" y1="361.5" x2="1430.57" y2="361.5"/><path class="cls-2" d="M1730.54,1085.7a89.51,89.51,0,0,0,35,14"/><path class="cls-2" d="M1875,1366.41c.17-.4.34-.8.5-1.21"/><line class="cls-2" x1="1791.84" y1="1163.16" x2="1875.53" y2="1365.2"/><line class="cls-2" x1="1791.84" y1="1163.16" x2="1781.3" y2="1137.7"/><line class="cls-2" x1="1760.64" y1="1158.36" x2="1730.54" y2="1085.7"/><polyline class="cls-2" points="1657.5 1428.35 1840.99 1352.34 1771.18 1183.82"/><line class="cls-2" x1="1771.19" y1="1183.81" x2="1760.64" y2="1158.36"/><line class="cls-2" x1="1657.5" y1="1428.35" x2="1657.5" y2="1456.52"/><line class="cls-2" x1="1781.3" y1="1137.7" x2="1765.58" y2="1099.75"/><line class="cls-2" x1="1657.5" y1="1108.71" x2="1657.5" y2="909.36"/><line class="cls-2" x1="1632.58" y1="1168.88" x2="1632.58" y2="1009.5"/><line class="cls-2" x1="1632.58" y1="849.19" x2="1657.5" y2="909.36"/><line class="cls-2" x1="1632.58" y1="849.19" x2="1632.58" y2="1009.5"/><line class="cls-2" x1="1632.58" y1="1168.88" x2="1632.58" y2="1225.98"/><line class="cls-2" x1="1657.5" y1="1261.5" x2="1657.5" y2="1165.81"/><line class="cls-2" x1="1657.5" y1="1261.5" x2="1632.58" y2="1286.42"/><line class="cls-2" x1="1589.84" y1="1329.16" x2="1632.58" y2="1225.98"/><line class="cls-2" x1="1589.84" y1="1329.16" x2="1632.58" y2="1286.42"/><line class="cls-2" x1="1632.58" y1="1286.42" x2="1632.58" y2="1225.98"/><path class="cls-2" d="M1009.5,1945.5c-389,0-722.65-237.37-863.9-575.17"/><polyline class="cls-2" points="563.84 1657.5 361.5 1657.5 361.5 1459.76"/><polyline class="cls-2" points="853.53 1789.53 652.94 1872.62 563.84 1657.5"/><line class="cls-2" x1="361.5" y1="1459.76" x2="145.6" y2="1370.33"/><line class="cls-2" x1="259.01" y1="1159.01" x2="290.95" y2="1081.9"/><line class="cls-2" x1="361.5" y1="1169.01" x2="314.77" y2="1056.21"/><line class="cls-2" x1="361.5" y1="1261.5" x2="361.5" y2="1169.01"/><line class="cls-2" x1="361.5" y1="1261.5" x2="259.01" y2="1159.01"/><line class="cls-2" x1="1137.72" y1="1781.28" x2="1158.37" y2="1760.63"/><line class="cls-2" x1="853.53" y1="1789.53" x2="878.99" y2="1778.99"/><polyline class="cls-2" points="1137.72 1781.28 1009.5 1909.5 878.99 1778.99"/><line class="cls-2" x1="1297.5" y1="1657.5" x2="1261.5" y2="1657.5"/><line class="cls-2" x1="1183.82" y1="1771.18" x2="1297.5" y2="1657.5"/><line class="cls-2" x1="1158.37" y1="1760.63" x2="1261.5" y2="1657.5"/><line class="cls-2" x1="1163.18" y1="1791.82" x2="1183.82" y2="1771.18"/><line class="cls-2" x1="853.53" y1="1789.53" x2="1009.5" y2="1945.5"/><path class="cls-2" d="M1875,1366.41c-140.31,339.89-475,579.09-865.53,579.09"/><polyline class="cls-2" points="1453.84 1657.5 1363.78 1874.91 1163.18 1791.82"/><polyline class="cls-2" points="1657.5 1456.52 1657.5 1657.5 1453.84 1657.5"/><line class="cls-2" x1="1657.5" y1="1456.52" x2="1875.03" y2="1366.41"/><line class="cls-2" x1="1009.5" y1="1945.5" x2="1163.18" y2="1791.82"/><path class="cls-2" d="M1702.93,1056.13a89.43,89.43,0,0,1-10.94-30.68"/><line class="cls-2" x1="1691.99" y1="1025.45" x2="1657.5" y2="1108.71"/><line class="cls-2" x1="1702.93" y1="1056.13" x2="1657.5" y2="1165.81"/><line class="cls-2" x1="1657.5" y1="1165.81" x2="1657.5" y2="1108.71"/><path class="cls-2" d="M920.53,258.55a89.56,89.56,0,0,0,14.09,31.74"/><line class="cls-2" x1="859.73" y1="259.27" x2="878.05" y2="240.95"/><line class="cls-2" x1="842.1" y1="361.5" x2="781.93" y2="386.42"/><line class="cls-2" x1="781.93" y1="386.42" x2="732.58" y2="386.42"/><line class="cls-2" x1="696.58" y1="386.42" x2="732.58" y2="386.42"/><line class="cls-2" x1="589.34" y1="361.5" x2="721.5" y2="361.5"/><line class="cls-2" x1="579.02" y1="386.42" x2="589.34" y2="361.5"/><line class="cls-2" x1="721.5" y1="361.5" x2="757.5" y2="361.5"/><path class="cls-2" d="M958.22,313.4a90.67,90.67,0,0,1-23.6-23.11"/><line class="cls-2" x1="958.22" y1="313.4" x2="842.1" y2="361.5"/><line class="cls-2" x1="859.73" y1="259.27" x2="757.5" y2="361.5"/><line class="cls-2" x1="934.62" y1="290.29" x2="859.73" y2="259.27"/><line class="cls-2" x1="757.5" y1="361.5" x2="842.1" y2="361.5"/><line class="cls-2" x1="636.23" y1="446.77" x2="696.58" y2="386.42"/><line class="cls-2" x1="579.02" y1="386.42" x2="558.32" y2="436.4"/><line class="cls-2" x1="579.02" y1="386.42" x2="696.58" y2="386.42"/><line class="cls-2" x1="537.93" y1="409.69" x2="547.57" y2="386.42"/><polyline class="cls-2" points="386.42 476.42 386.42 386.42 477.09 386.42"/><line class="cls-2" x1="477.09" y1="386.42" x2="547.57" y2="386.42"/><line class="cls-2" x1="386.42" y1="476.42" x2="386.42" y2="550.25"/><line class="cls-2" x1="590.24" y1="492.76" x2="636.23" y2="446.77"/><line class="cls-2" x1="590.24" y1="492.76" x2="563.47" y2="503.85"/><line class="cls-2" x1="435.98" y1="556.66" x2="386.42" y2="577.18"/><line class="cls-2" x1="386.42" y1="550.25" x2="386.42" y2="577.18"/><line class="cls-2" x1="636.23" y1="446.77" x2="567.75" y2="475.14"/><line class="cls-2" x1="412.41" y1="539.48" x2="386.42" y2="550.25"/><path class="cls-2" d="M920.53,258.55a90,90,0,1,1,176.08-2.47"/><line class="cls-2" x1="1096.61" y1="256.08" x2="1138.66" y2="238.66"/><polyline class="cls-2" points="1138.66 238.66 1009.5 109.5 878.05 240.95"/><line class="cls-2" x1="920.53" y1="258.55" x2="878.05" y2="240.95"/><line class="cls-2" x1="1326.85" y1="426.85" x2="1286.42" y2="386.42"/><line class="cls-2" x1="1322.42" y1="386.42" x2="1388.31" y2="452.31"/><line class="cls-2" x1="1326.85" y1="426.85" x2="1388.31" y2="452.31"/><line class="cls-2" x1="1261.5" y1="361.5" x2="1286.42" y2="386.42"/><line class="cls-2" x1="1157.71" y1="257.71" x2="1183.16" y2="247.16"/><line class="cls-2" x1="1297.5" y1="361.5" x2="1322.42" y2="386.42"/><line class="cls-2" x1="1183.16" y1="247.16" x2="1297.5" y2="361.5"/><path class="cls-2" d="M1083.17,288.58a90.65,90.65,0,0,1-26.89,26.2"/><line class="cls-2" x1="1169.08" y1="361.5" x2="1261.5" y2="361.5"/><line class="cls-2" x1="1056.28" y1="314.78" x2="1169.08" y2="361.5"/><line class="cls-2" x1="1157.71" y1="257.71" x2="1083.17" y2="288.58"/><line class="cls-2" x1="1157.71" y1="257.71" x2="1261.5" y2="361.5"/><line class="cls-2" x1="426.9" y1="1326.9" x2="386.42" y2="1286.42"/><line class="cls-2" x1="452.36" y1="1388.36" x2="426.9" y2="1326.9"/><line class="cls-2" x1="386.42" y1="1286.42" x2="386.42" y2="1322.42"/><line class="cls-2" x1="452.36" y1="1388.36" x2="386.42" y2="1322.42"/><line class="cls-2" x1="1847.61" y1="1071.39" x2="1841.18" y2="1077.82"/><path class="cls-2" d="M1841.18,1077.82a90.71,90.71,0,0,0,6.43-6.43"/><line class="cls-2" x1="561.44" y1="1459.76" x2="747.46" y2="1401.57"/><line class="cls-2" x1="732.01" y1="1280.97" x2="747.46" y2="1401.57"/><line class="cls-2" x1="618.22" y1="1268.62" x2="561.44" y2="1459.76"/><line class="cls-2" x1="618.22" y1="1268.62" x2="732.01" y2="1280.97"/><line class="cls-2" x1="732.01" y1="1280.97" x2="561.44" y2="1459.76"/><line class="cls-2" x1="1009.5" y1="624.64" x2="918.34" y2="552.96"/><line class="cls-2" x1="918.34" y1="552.96" x2="1009.5" y2="386.42"/><line class="cls-2" x1="1098.88" y1="549.72" x2="1009.5" y2="624.64"/><line class="cls-2" x1="1098.88" y1="549.72" x2="1009.5" y2="386.42"/><line class="cls-2" x1="1009.5" y1="624.64" x2="1009.5" y2="386.42"/><line class="cls-2" x1="552.87" y1="1100.61" x2="386.42" y2="1009.5"/><line class="cls-2" x1="552.87" y1="1100.61" x2="622.89" y2="1011.25"/><line class="cls-2" x1="622.89" y1="1011.25" x2="548.9" y2="920.57"/><line class="cls-2" x1="548.9" y1="920.57" x2="386.42" y2="1009.5"/><line class="cls-2" x1="622.89" y1="1011.25" x2="386.42" y2="1009.5"/><line class="cls-2" x1="1009.5" y1="1397.87" x2="1100.15" y2="1466.96"/><line class="cls-2" x1="1009.5" y1="1632.58" x2="1100.15" y2="1466.96"/><line class="cls-2" x1="920.63" y1="1470.21" x2="1009.5" y2="1632.58"/><line class="cls-2" x1="920.63" y1="1470.21" x2="1009.5" y2="1397.87"/><line class="cls-2" x1="1009.5" y1="1397.87" x2="1009.5" y2="1632.58"/><line class="cls-2" x1="1401.72" y1="1272.1" x2="1280.3" y2="1287.65"/><line class="cls-2" x1="1401.72" y1="1272.1" x2="1461.07" y2="1457.93"/><line class="cls-2" x1="1461.07" y1="1457.93" x2="1461.07" y2="1457.93"/><line class="cls-2" x1="1461.07" y1="1457.93" x2="1461.07" y2="1457.93"/><line class="cls-2" x1="1280.3" y1="1287.65" x2="1268.04" y2="1400.62"/><line class="cls-2" x1="1268.04" y1="1400.62" x2="1461.07" y2="1457.93"/><line class="cls-2" x1="1280.3" y1="1287.65" x2="1461.07" y2="1457.93"/><line class="cls-2" x1="1461.07" y1="1457.93" x2="1461.07" y2="1457.93"/><line class="cls-2" x1="617.62" y1="748.18" x2="738.7" y2="732.67"/><line class="cls-2" x1="561.07" y1="557.93" x2="617.62" y2="748.18"/><line class="cls-2" x1="738.7" y1="732.67" x2="751.1" y2="618.42"/><line class="cls-2" x1="561.07" y1="557.93" x2="751.1" y2="618.42"/><line class="cls-2" x1="561.07" y1="557.93" x2="738.7" y2="732.67"/><line class="cls-2" x1="561.07" y1="557.93" x2="561.07" y2="557.93"/><line class="cls-2" x1="561.07" y1="557.93" x2="561.07" y2="557.93"/><line class="cls-2" x1="561.07" y1="557.93" x2="561.07" y2="557.93"/><line class="cls-2" x1="1396.11" y1="1009.5" x2="1469.39" y2="1098.83"/><line class="cls-2" x1="1469.39" y1="1098.83" x2="1632.58" y2="1009.5"/><line class="cls-2" x1="1466.87" y1="918.8" x2="1396.11" y2="1009.5"/><line class="cls-2" x1="1466.87" y1="918.8" x2="1632.58" y2="1009.5"/><line class="cls-2" x1="1632.58" y1="1009.5" x2="1396.11" y2="1009.5"/><line class="cls-2" x1="1400.43" y1="751.67" x2="1286.99" y2="739.36"/><line class="cls-2" x1="1400.43" y1="751.67" x2="1460.6" y2="560.6"/><line class="cls-2" x1="1286.99" y1="739.36" x2="1271.38" y2="617.47"/><line class="cls-2" x1="1460.6" y1="560.6" x2="1271.38" y2="617.47"/><line class="cls-2" x1="1286.99" y1="739.36" x2="1460.6" y2="560.6"/><line class="cls-2" x1="142.19" y1="1078.19" x2="114.74" y2="1050.74"/><line class="cls-2" x1="167.75" y1="915.25" x2="103.55" y2="979.45"/><polyline class="cls-2" points="205.46 913.54 116.14 1002.86 109.5 1009.5 192.3 1092.3"/><path class="cls-2" d="M259,921.46a89.51,89.51,0,0,1,32,14.71"/><path class="cls-2" d="M291,1081.9a89.56,89.56,0,0,1-38,15.92"/><path class="cls-2" d="M327,1023.22a90.39,90.39,0,0,0,0-28.37"/><path class="cls-2" d="M327,1023.22a89.41,89.41,0,0,1-12.23,33"/><path class="cls-2" d="M290.94,936.17a90.37,90.37,0,0,1,20.41,20.53"/><path class="cls-2" d="M314.77,1056.21A90.51,90.51,0,0,1,291,1081.9"/><path class="cls-2" d="M259,921.46a90,90,0,1,0-6.06,176.36"/><path class="cls-2" d="M311.35,956.7A89.49,89.49,0,0,1,327,994.85"/><path class="cls-2" d="M412.41,539.48a89.37,89.37,0,0,1-26-63.06"/><path class="cls-2" d="M506.46,561.59a90.53,90.53,0,0,0,57-57.74"/><path class="cls-2" d="M558.32,436.4a89.14,89.14,0,0,1,9.43,38.74"/><path class="cls-2" d="M567.75,475.14c0,.43,0,.85,0,1.28a89.47,89.47,0,0,1-4.29,27.43"/><path class="cls-2" d="M386.42,476.42c0-49.7,40.6-90,90.67-90"/><path class="cls-2" d="M537.93,409.69a90.73,90.73,0,0,0-60.84-23.27"/><path class="cls-2" d="M506.46,561.59a91.12,91.12,0,0,1-29.37,4.83c-1.35,0-2.7,0-4-.09"/><path class="cls-2" d="M558.32,436.4a90.3,90.3,0,0,0-20.39-26.71"/><path class="cls-2" d="M412.41,539.48A90.93,90.93,0,0,0,436,556.66"/><path class="cls-2" d="M436,556.66a90.73,90.73,0,0,0,37.07,9.67"/><path class="cls-2" d="M1461.18,435.4a90.38,90.38,0,0,1,18.93-24.83"/><path class="cls-2" d="M1541.91,386.42a90.71,90.71,0,0,0-61.8,24.15"/><path class="cls-2" d="M1544.65,566.38a90.74,90.74,0,0,0,35.91-8.53"/><path class="cls-2" d="M1604.26,541.76a90.93,90.93,0,0,1-23.7,16.09"/><path class="cls-2" d="M1632.58,476.42c0-49.7-40.6-90-90.67-90"/><path class="cls-2" d="M1632.58,476.42a89.43,89.43,0,0,1-28.32,65.34"/><path class="cls-2" d="M1461.18,435.4a89.05,89.05,0,0,0-9.94,41c0,.66,0,1.31,0,2"/><path class="cls-2" d="M1451.26,478.38a89.2,89.2,0,0,0,5.14,28"/><path class="cls-2" d="M1513.6,561.94a91,91,0,0,0,28.31,4.48c.91,0,1.83,0,2.74,0"/><path class="cls-2" d="M1456.4,506.42a90.58,90.58,0,0,0,57.2,55.52"/><path class="cls-2" d="M1461,1583.18a90.43,90.43,0,0,0,14.92,21.08"/><path class="cls-2" d="M1475.89,1604.26a90.72,90.72,0,0,0,66,28.32"/><path class="cls-2" d="M1461,1583.18a89.11,89.11,0,0,1-9.73-40.6V1542"/><path class="cls-2" d="M1579.5,1460.66a90.74,90.74,0,0,1,25.73,17.51"/><path class="cls-2" d="M1456.8,1511.48a89.3,89.3,0,0,0-5.56,30.47"/><path class="cls-2" d="M1513.15,1457.2a90.61,90.61,0,0,0-56.35,54.28"/><path class="cls-2" d="M1579.5,1460.66a90.83,90.83,0,0,0-37.59-8.08c-1.08,0-2.15,0-3.22.06"/><path class="cls-2" d="M1605.23,1478.17a89.4,89.4,0,0,1,27.35,64.41"/><path class="cls-2" d="M1513.15,1457.2a91,91,0,0,1,25.54-4.56"/><path class="cls-2" d="M1541.91,1632.58c50.07,0,90.67-40.3,90.67-90"/><path class="cls-2" d="M479,1452.6l-1.88,0a90.88,90.88,0,0,0-40.08,9.25"/><path class="cls-2" d="M479,1452.6a91.3,91.3,0,0,1,27.95,5"/><path class="cls-2" d="M506.92,1457.56a90.58,90.58,0,0,1,56.2,56.51"/><path class="cls-2" d="M542.18,1605.22a90.7,90.7,0,0,1-65.09,27.36"/><path class="cls-2" d="M567.72,1545.18c0-.87,0-1.73,0-2.6a89.34,89.34,0,0,0-4.64-28.51"/><path class="cls-2" d="M542.18,1605.22a90.11,90.11,0,0,0,16.35-23"/><path class="cls-2" d="M437,1461.83a91,91,0,0,0-25.53,18.63"/><path class="cls-2" d="M477.09,1632.58c-50.07,0-90.67-40.3-90.67-90"/><path class="cls-2" d="M411.48,1480.46a89.37,89.37,0,0,0-25.06,62.12"/><path class="cls-2" d="M567.72,1545.18a89,89,0,0,1-9.19,37"/><path class="cls-1" d="M969.55,271.27l-.74,1.5-.76-2.25,2.25-1.5h2.25l1.5.75.75.75.76,2.24-.75,2.26-.74.75-1.5.75h-2.25l-1.5-.75-.76-2.25,1.5,1.5,3.74-4.51Zm0,7.5-.74,1.5-.76-2.25,2.25-1.5h2.25l1.5.75.75.75.76,2.24-.74,2.26-.75.75-1.5.75h-2.25l-1.5-.75-.76-2.25,1.51,1.5,3.73-4.51Zm0,7.5-.75,1.5-.76-2.25,2.25-1.5h2.25l1.5.75.75.75.76,2.24-.74,2.26-.75.75-1.5.75h-2.25l-1.5-.75-.76-2.25,1.51,1.5,3.73-4.51Zm7.28-75-.74,1.5-.76-2.25,2.25-1.5h2.25l1.5.75.75.75.76,2.24-.75,2.26-.74.75-1.5.75h-2.25l-1.5-.75-.76-2.25,1.5,1.5,3.74-4.51Zm0,7.5-.74,1.5L975.4,218l2.25-1.5h2.25l1.5.75.75.75.76,2.24-.75,2.26-.74.75-1.5.75h-2.25l-1.5-.75-.76-2.25,1.5,1.5,3.74-4.51Zm0,7.5-.75,1.5-.76-2.25,2.25-1.5h2.25l1.5.75.75.75.76,2.24-.74,2.26-.75.75-1.5.75h-2.25l-1.5-.75-.76-2.25,1.51,1.5,3.73-4.51Zm.1,37.5-.74,1.5-.76-2.25,2.25-1.5H980l1.5.75.75.74.76,2.25-.75,2.25-.74.76-1.5.75H977.8l-1.5-.75-.76-2.25,1.5,1.5,3.74-4.51Zm0,15-.74,1.5-.76-2.25,2.25-1.5h2.25l1.5.75.75.74.76,2.25-.74,2.25-.75.76-1.5.75h-2.25l-1.5-.75-.76-2.25,1.51,1.5,3.73-4.51Zm0,7.5-.75,1.5-.76-2.25,2.25-1.5h2.25l1.5.75.75.74.76,2.25-.74,2.25-.75.76-1.5.75h-2.25l-1.5-.75-.76-2.25,1.51,1.5,3.73-4.51Zm0,7.5-.75,1.5-.75-2.25,2.24-1.5h2.25l1.5.75.76.74.75,2.25-.74,2.25-.75.76-1.5.75h-2.25l-1.5-.75-.76-2.25,1.51,1.5,3.74-4.51Zm7.24-90-.74,1.5-.76-2.25,2.24-1.5h2.25l1.51.75.75.74.76,2.25-.75,2.25-.75.76-1.49.75h-2.25l-1.51-.75-.75-2.25,1.5,1.5,3.74-4.51Zm0,7.5-.74,1.5-.76-2.25,2.25-1.5h2.25l1.5.75.75.74.76,2.25-.75,2.25-.74.76-1.5.75h-2.25l-1.5-.75-.76-2.25,1.5,1.5,3.74-4.51Zm0,7.5-.74,1.5L982.9,218l2.25-1.5h2.25l1.5.75.75.74.76,2.25-.75,2.25-.74.76-1.5.75h-2.25l-1.5-.75-.76-2.25,1.5,1.5,3.74-4.51Zm0,7.5-.75,1.5-.76-2.25,2.25-1.5h2.25l1.5.75.75.74.76,2.25-.74,2.25-.75.76-1.5.75h-2.25l-1.5-.75-.76-2.25,1.51,1.5,3.73-4.51Zm0,7.5-.75,1.5-.76-2.25,2.25-1.5h2.25l1.5.75.75.74.76,2.25-.74,2.25-.75.76-1.5.75h-2.25l-1.5-.75L983,236l1.51,1.5,3.73-4.51Zm0,15-.75,1.5L983,248l2.24-1.5h2.25l1.5.75.76.74.75,2.25-.74,2.25-.75.76-1.5.75h-2.25l-1.5-.75L983,251l1.5,1.5,3.74-4.51Zm0,7.5-.75,1.5-.75-2.25,2.24-1.5h2.25l1.51.75.75.74.75,2.25-.74,2.25-.75.76-1.49.75h-2.25l-1.51-.75-.75-2.25,1.5,1.5,3.74-4.51Zm0,7.5-.74,1.5L983,263l2.25-1.5h2.25l1.5.75.75.74.76,2.25-.75,2.25-.74.76-1.5.75H985.3l-1.5-.75L983,266l1.5,1.5,3.74-4.51Zm.07,22.5-.75,1.5-.76-2.25,2.25-1.5h2.25l1.5.75.75.74.76,2.25-.74,2.25-.75.76-1.5.75h-2.25l-1.5-.75-.76-2.25,1.51,1.5,3.73-4.51Zm0,7.5-.75,1.5-.75-2.25,2.24-1.5h2.25l1.5.75.76.74.75,2.25-.74,2.25-.75.76-1.5.75h-2.25l-1.5-.75-.76-2.25,1.51,1.5,3.74-4.51Zm7.22-97.52-.75,1.5-.75-2.25,2.24-1.5h2.25l1.51.74.75.75.75,2.25-.74,2.25-.75.75-1.5.76H992.6l-1.5-.75-.75-2.25,1.5,1.5,3.74-4.51Zm.11,37.5-.75,1.5-.76-2.25,2.25-1.5h2.25l1.5.74.75.75.76,2.25-.74,2.25-.75.75L995,239h-2.25l-1.5-.75-.76-2.25,1.51,1.5,3.73-4.51Zm0,7.5-.75,1.5-.75-2.25,2.24-1.5H995l1.5.74.76.75.75,2.25-.74,2.25-.75.75-1.5.76h-2.25l-1.5-.75-.76-2.25L992,245l3.74-4.51Zm0,15-.75,1.5-.75-2.25,2.24-1.5H995l1.51.74.75.75.75,2.25-.74,2.25-.75.75-1.49.76h-2.25l-1.51-.74-.75-2.25L992,260l3.74-4.51Zm0,7.5-.74,1.5-.76-2.25,2.25-1.51H995l1.5.74.75.75.76,2.25-.75,2.25-.74.75-1.5.76H992.8l-1.5-.74-.76-2.25,1.5,1.5,3.74-4.51Zm.09,30-.75,1.5-.75-2.25,2.24-1.51h2.25l1.5.74.76.75.75,2.25-.74,2.25-.75.75-1.5.76h-2.25l-1.5-.74-.76-2.25,1.51,1.5,3.74-4.51Zm7.22-97.52-.75,1.5-.75-2.25,2.24-1.51h2.25l1.51.74.75.75.75,2.25-.74,2.25-.75.75-1.5.76h-2.25l-1.5-.74-.75-2.25,1.5,1.5,3.74-4.51Zm.13,45-.75,1.5-.75-2.25,2.24-1.51h2.25l1.5.74.76.75.75,2.25-.74,2.25-.75.75-1.5.76h-2.25l-1.5-.74-.76-2.25,1.51,1.5,3.74-4.51Zm0,15-.75,1.5-.75-2.25,2.24-1.51h2.25l1.51.74.75.75.75,2.25-.74,2.25-.75.75-1.49.76h-2.25l-1.51-.74-.75-2.25,1.5,1.5,3.74-4.51Zm0,7.49-.74,1.51-.76-2.25,2.25-1.51h2.25l1.5.74.75.75.76,2.25-.75,2.25-.74.75-1.5.76h-2.25l-1.5-.74-.76-2.25,1.5,1.49,3.74-4.51Zm.09,30-.75,1.51-.75-2.25,2.24-1.51h2.25l1.5.74.75.75.76,2.25-.74,2.25-.75.75-1.5.76h-2.25l-1.5-.74-.76-2.25,1.51,1.49,3.74-4.51Zm7.22-97.51-.75,1.5-.75-2.25,2.24-1.51h2.25l1.51.74.75.75.75,2.25-.74,2.25-.75.75-1.5.76h-2.25l-1.5-.74-.75-2.25,1.5,1.5,3.74-4.52Zm0,7.5-.74,1.5-.76-2.25,2.24-1.51h2.25l1.51.74.75.75.76,2.25-.75,2.25-.75.75-1.49.76h-2.25l-1.51-.74-.75-2.25,1.5,1.5,3.74-4.52Zm.11,37.5-.75,1.5-.75-2.25,2.24-1.51H1010l1.5.74.76.75.75,2.25-.74,2.25-.75.75-1.5.76h-2.25l-1.5-.74-.76-2.25,1.51,1.5,3.74-4.52Zm0,15-.75,1.5-.75-2.25,2.24-1.51H1010l1.51.74.75.75.75,2.25-.74,2.25-.75.75-1.5.76h-2.25l-1.5-.74-.75-2.25,1.5,1.5,3.74-4.52Zm0,7.49-.74,1.51-.76-2.25,2.24-1.51H1010l1.51.74.75.75.76,2.25-.75,2.25-.75.75-1.49.76h-2.25l-1.51-.74-.75-2.25,1.5,1.49,3.74-4.51Zm.09,30-.75,1.51-.76-2.25,2.25-1.51h2.25l1.5.74.75.75.76,2.25-.74,2.25-.75.75-1.5.76h-2.25l-1.5-.74-.76-2.25,1.51,1.49,3.73-4.51Zm7.24-90-.74,1.51-.76-2.25,2.24-1.51h2.25l1.51.74.75.75.76,2.25-.75,2.25-.75.75-1.49.76h-2.25l-1.51-.74-.75-2.25,1.5,1.49,3.74-4.51Zm0,7.5-.74,1.51-.76-2.25,2.25-1.51h2.25l1.5.74.75.75.76,2.25-.75,2.25-.75.75-1.49.76h-2.25l-1.51-.74-.75-2.25,1.5,1.49,3.74-4.51Zm0,7.5-.74,1.51-.76-2.25,2.25-1.51h2.25l1.5.74.75.75.76,2.25-.75,2.25-.74.75-1.5.76h-2.25l-1.5-.74-.76-2.25,1.5,1.49,3.74-4.51Zm0,7.5-.75,1.51-.76-2.25,2.25-1.51h2.25l1.5.74.75.75.76,2.25-.74,2.25-.75.75-1.5.76h-2.25l-1.5-.74-.76-2.25,1.51,1.49,3.73-4.51Zm0,7.5-.75,1.51-.76-2.25,2.25-1.51h2.25l1.5.74.75.75.76,2.25-.74,2.25-.75.75-1.5.76h-2.25l-1.5-.74-.76-2.25,1.51,1.49,3.73-4.51Zm.06,22.5-.75,1.51-.75-2.25,2.24-1.51h2.25l1.51.74.75.75.75,2.25-.74,2.25-.75.75-1.5.75h-2.25l-1.5-.75-.75-2.24,1.5,1.49,3.74-4.51Zm0,7.5-.74,1.5-.76-2.24,2.24-1.51h2.25l1.51.75.75.75.76,2.25-.75,2.25-.75.75-1.49.75h-2.25l-1.51-.75-.75-2.24,1.5,1.49,3.74-4.51Zm.09,30-.75,1.5-.76-2.24,2.25-1.51h2.25l1.5.75.75.75.76,2.25-.74,2.25-.75.75-1.5.75h-2.25l-1.5-.75-.76-2.24,1.51,1.49,3.73-4.51Zm7.22-97.52-.75,1.5-.75-2.24,2.24-1.51h2.25l1.51.75.75.75.75,2.24-.74,2.26-.75.75-1.5.75h-2.25l-1.5-.75-.75-2.24,1.5,1.49,3.74-4.51Zm0,7.5-.74,1.5-.76-2.24,2.24-1.51h2.25l1.51.75.75.75.76,2.24-.75,2.26-.75.75-1.49.75h-2.25l-1.51-.75-.75-2.24,1.5,1.49,3.74-4.51Zm0,7.5-.74,1.5-.76-2.24,2.25-1.51h2.25l1.5.75.75.75.76,2.24-.75,2.26-.75.75-1.49.75h-2.25l-1.51-.75-.75-2.24,1.5,1.49,3.74-4.51Zm0,7.5-.74,1.5-.76-2.24,2.25-1.51h2.25l1.5.75.75.75.76,2.24-.75,2.26-.74.75-1.5.75h-2.25l-1.5-.75-.76-2.24,1.5,1.49,3.74-4.51Zm0,7.5-.75,1.5-.76-2.24,2.25-1.51h2.25l1.5.75.75.75.76,2.24-.74,2.26-.75.75-1.5.75h-2.25l-1.5-.75-.76-2.24,1.51,1.49,3.73-4.51Zm.08,30-.75,1.5-.75-2.24,2.24-1.51H1025l1.51.75.75.75.75,2.24-.74,2.26-.75.75-1.5.75h-2.25l-1.5-.75-.75-2.24,1.5,1.49,3.74-4.51Zm0,7.5-.74,1.5-.76-2.24,2.24-1.51H1025l1.51.75.75.75.76,2.24-.75,2.26-.75.75-1.49.75h-2.25l-1.51-.75-.75-2.24,1.5,1.49,3.74-4.51Zm0,7.5-.74,1.5-.76-2.24,2.25-1.51h2.25l1.5.75.75.75.76,2.24-.75,2.26-.74.75-1.5.75h-2.25l-1.5-.75-.76-2.24,1.5,1.49,3.74-4.51Zm.07,22.5-.75,1.5-.76-2.24,2.25-1.51h2.25l1.5.75.75.75.76,2.24-.74,2.26-.75.75-1.5.75h-2.25l-1.5-.75-.76-2.24,1.51,1.49,3.73-4.51Zm7.22-97.52-.75,1.5-.75-2.25,2.24-1.5h2.25l1.51.75.75.75.75,2.24-.74,2.26-.75.75-1.5.75h-2.25l-1.5-.75-.75-2.25,1.5,1.5,3.74-4.51Zm.19,67.5-.74,1.5-.76-2.25,2.24-1.5h2.25l1.51.75.75.75.76,2.24-.75,2.26-.75.75-1.49.75h-2.25l-1.51-.75-.75-2.25,1.5,1.5,3.74-4.51Zm0,7.5-.74,1.5-.76-2.25,2.25-1.5h2.25l1.5.75.75.75.76,2.24-.75,2.26-.74.75-1.5.75h-2.25l-1.5-.75-.76-2.25,1.5,1.5,3.74-4.51Zm0,7.5-.74,1.5-.76-2.25,2.25-1.5h2.25l1.5.75.75.75.76,2.24-.75,2.26-.74.75-1.5.75h-2.25l-1.5-.75-.76-2.25,1.5,1.5,3.74-4.51Zm0,7.5-.74,1.5-.76-2.25,2.25-1.5h2.25l1.5.75.75.75.76,2.24-.74,2.26-.75.75-1.5.75h-2.25l-1.5-.75-.76-2.25,1.51,1.5,3.73-4.51Zm7.25-90-.75,1.5-.75-2.25,2.24-1.5h2.25l1.51.75.75.74.75,2.25-.74,2.25-.75.76-1.5.75h-2.25l-1.5-.75-.75-2.25,1.5,1.5,3.74-4.51Zm.21,75-.74,1.5-.76-2.25,2.25-1.5h2.25l1.5.75.75.74.76,2.25-.75,2.25-.74.76-1.5.75h-2.25l-1.5-.75-.76-2.25,1.5,1.5,3.74-4.51Zm0,7.5-.74,1.5-.76-2.25,2.25-1.5h2.25l1.5.75.75.74.76,2.25-.75,2.25-.74.76-1.5.75h-2.25l-1.5-.75-.76-2.25,1.5,1.5,3.74-4.51Zm7.25-90-.75,1.5-.75-2.25,2.24-1.5h2.25l1.5.75.76.74.75,2.25-.74,2.25-.75.76-1.5.75h-2.25l-1.5-.75-.76-2.25,1.51,1.5,3.74-4.51Z"/><path class="cls-1" d="M1512.28,421.76l-.74,1.51-.76-2.25,2.24-1.51h2.25l1.51.74.75.75.76,2.25-.75,2.25-.75.75-1.49.76h-2.25l-1.51-.74-.75-2.25,1.5,1.49L1516,421Zm0,7.5-.74,1.51-.76-2.25,2.25-1.51h2.25l1.5.74.75.75.76,2.25-.75,2.25-.75.75-1.49.76h-2.25l-1.5-.74-.76-2.25,1.5,1.49,3.74-4.51Zm7.5,0-.74,1.51-.76-2.25,2.25-1.51h2.25l1.5.75.75.75.76,2.25-.75,2.25-.75.75-1.49.75h-2.25l-1.51-.74-.75-2.25,1.5,1.49,3.74-4.51Zm.3,105-.75,1.5-.75-2.24,2.24-1.51h2.25l1.51.75.75.75.75,2.24-.74,2.26-.75.75-1.49.75h-2.25l-1.51-.75-.75-2.24,1.5,1.49,3.74-4.51Zm7.2-105-.74,1.5-.76-2.24,2.25-1.51h2.25l1.5.75.75.75.76,2.25-.75,2.25-.75.75-1.49.75h-2.25l-1.51-.75-.75-2.24,1.5,1.49,3.74-4.51Zm.3,105-.75,1.5-.75-2.25,2.24-1.5h2.25l1.51.75.75.75.75,2.24-.74,2.26-.75.75-1.49.75h-2.25l-1.51-.75-.75-2.25,1.5,1.5,3.74-4.51Zm7.18-112.52-.74,1.5-.76-2.24,2.24-1.51h2.25l1.51.75.75.75.76,2.24-.75,2.26-.75.75-1.49.75h-2.25l-1.51-.75-.75-2.24,1.5,1.49,3.74-4.51Zm0,7.5-.74,1.5-.76-2.24,2.25-1.51h2.25l1.5.75.75.75.76,2.24-.75,2.26-.75.75-1.49.75h-2.25l-1.51-.75-.75-2.24,1.5,1.49,3.74-4.51Zm0,7.5-.74,1.5-.76-2.24,2.25-1.51h2.25l1.5.75.75.75.76,2.24-.75,2.26-.74.75-1.5.75h-2.25l-1.5-.75-.76-2.24,1.5,1.49,3.74-4.51Zm0,7.5-.74,1.5-.76-2.24,2.25-1.51h2.25l1.5.75.75.75.76,2.24-.74,2.26-.75.75-1.5.75h-2.25l-1.5-.75-.76-2.24,1.51,1.49,3.73-4.51Zm0,7.5-.75,1.5-.76-2.24,2.25-1.51h2.25l1.5.75.75.75.76,2.24-.74,2.26-.75.75-1.5.75h-2.25l-1.5-.75-.76-2.24,1.51,1.49,3.73-4.51Zm0,7.5-.75,1.5-.75-2.24,2.24-1.51h2.25l1.5.75.76.75.75,2.24-.74,2.26-.75.75-1.5.75h-2.25l-1.5-.75-.76-2.24,1.51,1.49,3.74-4.51Zm0,7.5-.75,1.5-.75-2.24,2.24-1.51h2.25l1.5.75.76.75.75,2.24-.74,2.26-.75.75-1.5.75h-2.25l-1.5-.75-.75-2.25,1.5,1.5,3.74-4.51Zm0,7.5-.75,1.5-.75-2.25,2.24-1.5h2.25l1.51.75.75.75.75,2.24-.74,2.26-.75.75-1.5.75h-2.25l-1.5-.75-.75-2.25,1.5,1.5,3.74-4.51Zm0,7.5-.74,1.5-.76-2.25,2.24-1.5h2.25l1.51.75.75.75.76,2.24-.75,2.26-.75.75-1.49.75h-2.25l-1.51-.75-.75-2.25,1.5,1.5,3.74-4.51Zm0,7.5-.74,1.5-.76-2.25,2.25-1.5H1538l1.5.75.75.75.76,2.24-.75,2.26-.74.75-1.5.75h-2.25l-1.5-.75-.76-2.25,1.5,1.5,3.74-4.51Zm0,7.5-.74,1.5-.76-2.25,2.25-1.5H1538l1.5.75.75.75.76,2.24-.74,2.26-.75.75-1.5.75h-2.25l-1.5-.75-.76-2.25,1.51,1.5,3.73-4.51Zm0,7.5-.74,1.5-.76-2.25,2.25-1.5H1538l1.5.75.75.75.76,2.24-.74,2.26-.75.75-1.5.75h-2.25l-1.5-.75-.76-2.25L1535,508l3.73-4.51Zm0,7.5-.75,1.5-.76-2.25,2.25-1.5H1538l1.5.75.75.75.76,2.24-.74,2.25-.75.76-1.5.75h-2.25l-1.5-.75-.76-2.25,1.51,1.5,3.73-4.51Zm0,7.5-.75,1.5-.75-2.25,2.24-1.5h2.25l1.5.75.76.74.75,2.25-.74,2.25-.75.76-1.5.75h-2.25l-1.5-.75-.76-2.25,1.51,1.5,3.74-4.51Zm0,7.5-.75,1.5-.75-2.25,2.24-1.5h2.25l1.5.75.76.74.75,2.25-.74,2.25-.75.76-1.5.75h-2.25l-1.5-.75-.75-2.25,1.5,1.5,3.74-4.51Zm0,7.5-.75,1.5-.75-2.25,2.24-1.5h2.25l1.51.75.75.74.75,2.25-.74,2.25-.75.76-1.49.75h-2.25l-1.51-.75-.75-2.25,1.5,1.5,3.74-4.51Zm7.18-112.52-.74,1.5-.76-2.25,2.24-1.5h2.25l1.51.75.75.74.76,2.25-.75,2.25-.75.76-1.49.75h-2.25l-1.51-.75-.75-2.25,1.5,1.5,3.74-4.51Zm0,7.5-.74,1.5-.76-2.25,2.25-1.5h2.25l1.5.75.75.74.76,2.25-.75,2.25-.75.76-1.49.75h-2.25l-1.51-.75-.75-2.25,1.5,1.5,3.74-4.51Zm0,7.5-.74,1.5-.76-2.25,2.25-1.5h2.25l1.5.75.75.74.76,2.25-.75,2.25-.74.76-1.5.75h-2.25l-1.5-.75-.76-2.25,1.5,1.5,3.74-4.51Zm0,7.5-.74,1.5-.76-2.25,2.25-1.5h2.25l1.5.75.75.74.76,2.25-.74,2.25-.75.76-1.5.75h-2.25l-1.5-.75-.76-2.25,1.51,1.5,3.73-4.51Zm0,7.5-.75,1.5-.76-2.25,2.25-1.5h2.25l1.5.75.75.74.76,2.25-.74,2.25-.75.76-1.5.75h-2.25l-1.5-.75-.76-2.25,1.51,1.5,3.73-4.51Zm0,7.5-.75,1.5-.75-2.25,2.24-1.5h2.25l1.5.75.76.74.75,2.25-.74,2.25-.75.76-1.5.75h-2.25l-1.5-.75-.76-2.25,1.51,1.5,3.74-4.51Zm0,7.5-.75,1.5-.75-2.25,2.24-1.5h2.25l1.5.75.76.74.75,2.25-.74,2.25-.75.76-1.5.75h-2.25l-1.5-.75-.75-2.25,1.5,1.5,3.74-4.51Zm0,7.5-.75,1.5-.75-2.25,2.24-1.5h2.25l1.51.75.75.74.75,2.25-.74,2.25-.75.76-1.5.75h-2.25l-1.5-.75-.75-2.25,1.5,1.5,3.74-4.51Zm0,7.5-.74,1.5-.76-2.25,2.24-1.5h2.25l1.51.75.75.74.76,2.25-.75,2.25-.75.76-1.49.75h-2.25l-1.51-.75-.75-2.25,1.5,1.5,3.74-4.51Zm0,7.5-.74,1.5-.76-2.25,2.25-1.5h2.25l1.5.75.75.74.76,2.25-.75,2.25-.74.76-1.5.75h-2.25l-1.5-.75-.76-2.25,1.5,1.5,3.74-4.51Zm0,7.5-.74,1.5-.76-2.25,2.25-1.5h2.25l1.5.75.75.74.76,2.25-.74,2.25-.75.76-1.5.75h-2.25l-1.5-.75-.76-2.25,1.51,1.5,3.73-4.51Zm0,7.5-.74,1.5-.76-2.25,2.25-1.5h2.25l1.5.75.75.74.76,2.25-.74,2.25-.75.76-1.5.75h-2.25l-1.5-.75-.76-2.25,1.51,1.5,3.73-4.51Zm0,7.5-.75,1.5-.76-2.25,2.25-1.5h2.25l1.5.75.75.74.76,2.25-.74,2.25-.75.76-1.5.75h-2.25l-1.5-.75-.76-2.25,1.51,1.5,3.73-4.51Zm0,7.5-.75,1.5-.75-2.25,2.24-1.5h2.25l1.5.75.76.74.75,2.25-.74,2.25-.75.76-1.5.75h-2.25l-1.5-.75-.76-2.25,1.51,1.5,3.74-4.51Zm0,7.5-.75,1.5-.75-2.25,2.24-1.5h2.25l1.5.75.76.74.75,2.25-.74,2.25-.75.76-1.5.75h-2.25l-1.5-.75-.75-2.25,1.5,1.5,3.74-4.51Zm0,7.5-.75,1.5-.75-2.25,2.24-1.5h2.25l1.51.75.75.74.75,2.25-.74,2.25-.75.76-1.49.75h-2.25l-1.51-.75-.75-2.25,1.5,1.5,3.74-4.51Zm7.5,0-.75,1.5-.75-2.25,2.24-1.5h2.25l1.51.74.75.75.75,2.25-.74,2.25-.75.75-1.49.76h-2.25l-1.51-.75-.75-2.25,1.5,1.5,3.74-4.51Zm7.5,0-.75,1.5-.75-2.25,2.24-1.51h2.25l1.51.74.75.75.75,2.25-.74,2.25-.75.75-1.49.76h-2.25l-1.51-.74-.75-2.25,1.5,1.5,3.74-4.51Zm7.48-7.53-.75,1.51-.75-2.25,2.24-1.51h2.25l1.5.74.76.75.75,2.25-.74,2.25-.75.75-1.5.76h-2.25l-1.5-.74-.75-2.25,1.5,1.49,3.74-4.51Z"/><path class="cls-1" d="M1734.78,983.26l-.75,1.51-.76-2.25,2.25-1.51h2.25l1.5.74.75.75.76,2.25L1740,987l-.75.75-1.5.76h-2.25l-1.5-.74-.76-2.25,1.51,1.49,3.73-4.51Zm7.5,0-.75,1.5-.76-2.24L1743,981h2.25l1.5.75.75.75.76,2.25-.74,2.25-.75.75-1.5.75H1743l-1.5-.75-.76-2.24,1.51,1.49,3.73-4.51Zm7.5,0-.75,1.5-.76-2.24,2.25-1.51h2.25l1.5.75.75.75.76,2.24L1755,987l-.75.75-1.5.75h-2.25l-1.5-.75-.76-2.24,1.51,1.49,3.73-4.51Zm0,7.5-.75,1.5-.75-2.24,2.24-1.51h2.25l1.5.75.76.75.75,2.24-.74,2.26-.75.75-1.5.75h-2.25l-1.5-.75-.76-2.24,1.51,1.49,3.74-4.51Zm0,7.5-.75,1.5-.75-2.24,2.24-1.51h2.25l1.5.75.76.75.75,2.24-.74,2.26-.75.75-1.5.75h-2.25l-1.5-.75-.75-2.24,1.5,1.49,3.74-4.51Zm0,7.5-.75,1.5-.75-2.24,2.24-1.51h2.25l1.51.75.75.75.75,2.24-.74,2.26-.75.75-1.5.75h-2.25l-1.5-.75-.75-2.24,1.5,1.49,3.74-4.51Zm0,7.5-.74,1.5-.76-2.24,2.24-1.51h2.25l1.51.75.75.75.76,2.24-.75,2.26-.75.75-1.49.75h-2.25l-1.51-.75-.75-2.24,1.5,1.49,3.74-4.51Zm0,7.5-.74,1.5-.76-2.24,2.25-1.51h2.25l1.5.75.75.75.76,2.24-.75,2.26-.74.75-1.5.75h-2.25l-1.5-.75-.76-2.24,1.5,1.49,3.74-4.51Zm0,7.5-.74,1.5-.76-2.24,2.25-1.51h2.25l1.5.75.75.75.76,2.24-.75,2.26-.74.75-1.5.75h-2.25l-1.5-.75-.76-2.24,1.5,1.49,3.74-4.51Zm0,7.5-.75,1.5-.76-2.25,2.25-1.5h2.25l1.5.75.75.75.76,2.24-.74,2.26-.75.75-1.5.75h-2.25l-1.5-.75-.76-2.25,1.51,1.5,3.73-4.51Zm7.35-52.52-.75,1.5-.76-2.25L1758,981h2.25l1.5.75.75.74.76,2.25-.74,2.25-.75.76-1.5.75H1758l-1.5-.75-.76-2.25,1.51,1.5,3.73-4.51Zm0,7.5-.75,1.5-.75-2.25,2.24-1.5h2.25l1.5.75.75.74.76,2.25-.74,2.25-.75.76-1.5.75h-2.25l-1.5-.75-.76-2.25,1.51,1.5,3.73-4.51Zm0,7.5-.75,1.5-.75-2.25,2.24-1.5h2.25l1.5.75.76.74.75,2.25-.74,2.25-.75.76-1.5.75h-2.25l-1.5-.75-.75-2.25,1.5,1.5,3.74-4.51Zm0,7.5-.75,1.5-.75-2.25,2.24-1.5h2.25l1.51.75.75.74.75,2.25-.74,2.25-.75.76-1.5.75h-2.25l-1.5-.75-.75-2.25,1.5,1.5,3.74-4.51Zm0,7.5-.74,1.5-.76-2.25,2.24-1.5h2.25l1.51.75.75.74.75,2.25-.74,2.25-.75.76-1.49.75h-2.25l-1.51-.75-.75-2.25,1.5,1.5,3.74-4.51Zm0,7.5-.74,1.5-.76-2.25,2.25-1.5h2.25l1.5.75.75.74.76,2.25-.75,2.25-.75.76-1.49.75h-2.25l-1.5-.75-.76-2.25,1.5,1.5,3.74-4.51Zm0,7.5-.74,1.5-.76-2.25,2.25-1.5h2.25l1.5.75.75.74.76,2.25-.75,2.25-.74.76-1.5.75h-2.25l-1.5-.75-.76-2.25,1.5,1.5,3.74-4.51Zm0,7.5-.75,1.5-.76-2.25,2.25-1.5h2.25l1.5.75.75.74.76,2.25-.75,2.25-.74.76-1.5.75h-2.25l-1.5-.75-.76-2.25,1.5,1.5,3.74-4.51Zm0,7.5-.75,1.5-.76-2.25,2.25-1.5h2.25l1.5.75.75.74.76,2.25-.74,2.25-.75.76-1.5.75h-2.25l-1.5-.75-.76-2.25,1.51,1.5,3.73-4.51Zm7.35-52.52-.75,1.5-.76-2.25,2.25-1.5h2.25l1.5.75.75.74.76,2.25-.74,2.25-.75.76-1.5.75h-2.25l-1.5-.75-.76-2.25,1.51,1.5,3.73-4.51Zm.15,52.5-.75,1.5-.76-2.25,2.25-1.5h2.25l1.5.75.75.74.76,2.25-.74,2.25-.75.76-1.5.75h-2.25l-1.5-.75-.76-2.25,1.51,1.5,3.73-4.51Zm0,7.5-.75,1.5-.75-2.25,2.24-1.5H1768l1.5.75.76.74.75,2.25-.74,2.25-.75.76-1.5.75h-2.25l-1.5-.75-.76-2.25,1.51,1.5,3.74-4.51Zm7.5,0-.75,1.5-.75-2.25,2.24-1.51h2.25l1.5.74.76.75.75,2.25-.74,2.25-.75.75-1.5.76h-2.25l-1.5-.74-.76-2.25,1.51,1.5,3.74-4.51Zm7.5,0-.75,1.5-.75-2.25,2.24-1.51H1783l1.5.74.76.75.75,2.25-.74,2.25-.75.75-1.5.76h-2.25l-1.5-.74-.76-2.25,1.51,1.5,3.74-4.52Zm7.31-67.53-.75,1.51-.76-2.25,2.25-1.51h2.25l1.5.74.75.75.76,2.25-.74,2.25-.75.75-1.5.76H1788l-1.5-.74-.76-2.25,1.51,1.49,3.73-4.51Zm.17,60-.75,1.51-.76-2.25,2.25-1.51h2.25l1.5.74.75.75.76,2.25-.74,2.25-.75.75-1.5.76h-2.25l-1.5-.74-.76-2.25,1.51,1.49,3.73-4.51Zm7.33-60-.75,1.5-.76-2.24,2.25-1.51h2.25l1.5.74.75.75.76,2.25-.74,2.25-.75.75-1.5.76h-2.25l-1.5-.75-.76-2.24,1.51,1.49,3.73-4.51Zm0,7.5-.75,1.5-.76-2.24,2.25-1.51h2.25l1.5.74.75.75.76,2.25-.74,2.25-.75.75-1.5.76h-2.25l-1.5-.75-.76-2.24,1.51,1.49,3.73-4.51Zm0,7.5-.75,1.5-.75-2.24,2.24-1.51h2.25l1.5.74.76.75.75,2.25-.74,2.25-.75.75-1.5.76h-2.25l-1.5-.75-.76-2.24,1.51,1.49,3.74-4.51Zm0,7.5-.75,1.5-.75-2.24,2.24-1.51h2.25l1.51.74.75.75.75,2.25-.74,2.25-.75.75-1.5.76h-2.25l-1.5-.75-.75-2.24,1.5,1.49,3.74-4.51Zm0,7.5-.75,1.5-.75-2.24,2.24-1.51h2.25l1.51.74.75.75.75,2.25-.74,2.25-.75.75-1.49.76h-2.25l-1.51-.75-.75-2.24,1.5,1.49,3.74-4.51Zm0,7.5-.74,1.5-.76-2.24,2.25-1.51h2.25l1.5.74.75.75.76,2.25-.75,2.25-.75.75-1.49.76h-2.25l-1.51-.75-.75-2.24,1.5,1.49,3.74-4.51Zm0,7.5-.74,1.5-.76-2.24,2.25-1.51h2.25l1.5.74.75.75.76,2.25-.75,2.25-.74.75-1.5.75h-2.25l-1.5-.75-.76-2.24,1.5,1.49,3.74-4.51Zm0,7.5-.75,1.5-.76-2.24,2.25-1.51h2.25l1.5.75.75.75.76,2.25-.75,2.25-.74.75-1.5.75h-2.25l-1.5-.75-.76-2.24,1.5,1.49,3.74-4.51Zm0,7.5-.75,1.5-.76-2.24,2.25-1.51h2.25l1.5.75.75.75.76,2.25-.74,2.25-.75.75-1.5.75h-2.25l-1.5-.75-.76-2.24,1.51,1.49,3.73-4.51Zm0,7.5-.75,1.5-.75-2.24,2.24-1.51H1798l1.5.75.76.75.75,2.25-.74,2.25-.75.75-1.5.75h-2.25l-1.5-.75-.76-2.24,1.51,1.49,3.74-4.51Zm7.31-67.52-.75,1.5-.76-2.24,2.25-1.51h2.25l1.5.75.75.75.76,2.24-.74,2.26-.75.75-1.5.75H1803l-1.5-.75-.76-2.24,1.51,1.49,3.73-4.51Zm0,7.5-.75,1.5-.76-2.24,2.25-1.51h2.25l1.5.75.75.75.76,2.24-.74,2.26-.75.75-1.5.75h-2.25l-1.5-.75-.76-2.24,1.51,1.49,3.73-4.51Zm0,7.5-.75,1.5-.75-2.24,2.24-1.51h2.25l1.5.75.76.75.75,2.24-.74,2.26-.75.75-1.5.75h-2.25l-1.5-.75-.76-2.24,1.51,1.49,3.74-4.51Zm0,7.5-.75,1.5-.75-2.24,2.24-1.51h2.25l1.5.75.76.75.75,2.24-.74,2.26-.75.75-1.5.75h-2.25l-1.5-.75-.75-2.24,1.5,1.49,3.74-4.51Zm0,7.5-.75,1.5-.75-2.24,2.24-1.51h2.25l1.51.75.75.75.75,2.24-.74,2.26-.75.75-1.49.75h-2.25l-1.51-.75-.75-2.24,1.5,1.49,3.74-4.51Zm0,7.5-.74,1.5-.76-2.24,2.25-1.51h2.25l1.5.75.75.75.76,2.24-.75,2.26-.75.75-1.49.75h-2.25l-1.51-.75-.75-2.24,1.5,1.49,3.74-4.51Zm0,7.5-.74,1.5-.76-2.24,2.25-1.51h2.25l1.5.75.75.75.76,2.24-.75,2.26-.74.75-1.5.75h-2.25l-1.5-.75-.76-2.24,1.5,1.49,3.74-4.51Zm0,7.5-.75,1.5-.76-2.24,2.25-1.51h2.25l1.5.75.75.75.76,2.24-.75,2.26-.74.75-1.5.75h-2.25l-1.5-.75-.76-2.24,1.5,1.49,3.74-4.51Zm0,7.5-.75,1.5-.76-2.24,2.25-1.51h2.25l1.5.75.75.75.76,2.24-.74,2.26-.75.75-1.5.75h-2.25l-1.5-.75-.76-2.24,1.51,1.49,3.73-4.51Zm0,7.5-.75,1.5-.75-2.24,2.24-1.51h2.25l1.5.75.75.75.76,2.24-.74,2.26-.75.75-1.5.75h-2.25l-1.5-.75-.76-2.24,1.51,1.49,3.73-4.51Zm7.33-60-.75,1.5-.76-2.25,2.25-1.5h2.25l1.5.75.75.75.76,2.24-.74,2.26-.75.75-1.5.75h-2.25l-1.5-.75-.76-2.25,1.51,1.5,3.73-4.51Zm.17,60-.75,1.5-.76-2.25,2.25-1.5H1813l1.5.75.75.75.76,2.24-.74,2.26-.75.75-1.5.75h-2.25l-1.5-.75-.76-2.25,1.51,1.5,3.73-4.51Zm7.5,0-.75,1.5-.76-2.25,2.25-1.5h2.25l1.5.75.75.74.76,2.25-.74,2.25-.75.76-1.5.75h-2.25l-1.5-.75-.76-2.25,1.51,1.5,3.73-4.51ZM1825,1043l-.75,1.5-.76-2.25,2.25-1.5h2.25l1.5.75.75.74.76,2.25-.74,2.25-.75.76-1.5.75h-2.25l-1.5-.75-.76-2.25,1.51,1.5,3.73-4.51Z"/><path class="cls-1" d="M1517,1531.72l-.74,1.5-.76-2.24,2.24-1.51h2.25l1.51.75.75.75.76,2.24-.75,2.26-.75.75-1.49.75h-2.25l-1.51-.75-.75-2.24,1.5,1.49,3.74-4.51Zm7.5,0-.74,1.5L1523,1531l2.24-1.5h2.25l1.51.75.75.75.76,2.24-.75,2.26-.75.75-1.49.75h-2.25l-1.51-.75L1523,1534l1.5,1.5,3.74-4.51Zm7.44-22.52-.75,1.5-.75-2.25,2.24-1.5h2.25l1.5.75.76.75.75,2.24-.74,2.26-.75.75-1.5.75h-2.25l-1.5-.75-.76-2.25,1.51,1.5,3.74-4.51Zm0,7.5-.75,1.5-.75-2.25,2.24-1.5h2.25l1.5.75.76.75.75,2.24-.74,2.25-.75.76-1.5.75h-2.25l-1.5-.75-.75-2.25,1.5,1.5,3.74-4.51Zm0,7.5-.75,1.5-.75-2.25,2.24-1.5h2.25l1.51.75.75.74.75,2.25-.74,2.25-.75.76-1.5.75h-2.25l-1.5-.75-.75-2.25,1.5,1.5,3.74-4.51Zm0,7.5-.74,1.5-.76-2.25,2.24-1.5h2.25l1.51.75.75.74.76,2.25-.75,2.25-.75.76-1.49.75h-2.25l-1.51-.75-.75-2.25,1.5,1.5,3.74-4.51Zm0,7.5-.74,1.5-.76-2.25,2.25-1.5H1535l1.5.75.75.74.76,2.25-.75,2.25-.74.76-1.5.75h-2.25l-1.5-.75-.76-2.25,1.5,1.5,3.74-4.51Zm0,7.5-.74,1.5-.76-2.25,2.25-1.5H1535l1.5.75.75.74.76,2.25-.74,2.25-.75.76-1.5.75h-2.25l-1.5-.75-.76-2.25,1.51,1.5,3.73-4.51Zm0,7.5-.74,1.5-.76-2.25,2.25-1.5H1535l1.5.75.75.74.76,2.25-.74,2.25-.75.76-1.5.75h-2.25l-1.5-.75-.76-2.25,1.51,1.5,3.73-4.51Zm0,7.5-.75,1.5-.76-2.25,2.25-1.5H1535l1.5.75.75.74.76,2.25-.74,2.25-.75.76-1.5.75h-2.25l-1.5-.75-.76-2.25,1.51,1.5,3.73-4.51Zm0,7.5-.75,1.5-.75-2.25,2.24-1.5h2.25l1.5.75.76.74.75,2.25-.74,2.25-.75.76-1.5.75h-2.25l-1.5-.75-.76-2.25,1.51,1.5,3.74-4.51Zm0,7.5-.75,1.5-.75-2.25,2.24-1.5h2.25l1.5.75.76.74.75,2.25-.74,2.25-.75.76-1.5.75h-2.25l-1.5-.75-.75-2.25,1.5,1.5,3.74-4.51Zm7.29-75-.75,1.5-.76-2.25,2.25-1.5h2.25l1.5.75.75.74.76,2.25-.74,2.25-.75.76-1.5.75h-2.25l-1.5-.75-.76-2.25,1.51,1.5,3.73-4.51Zm0,7.5-.75,1.5-.75-2.25,2.24-1.5h2.25l1.5.75.76.74.75,2.25-.74,2.25-.75.76-1.5.75h-2.25l-1.5-.75-.76-2.25,1.51,1.5,3.74-4.51Zm0,7.5-.75,1.5-.75-2.25,2.24-1.5h2.25l1.5.75.76.74.75,2.25-.74,2.25-.75.76-1.5.75h-2.25l-1.5-.75-.75-2.25,1.5,1.5,3.74-4.51Zm0,7.5-.75,1.5-.75-2.25,2.24-1.5h2.25l1.51.75.75.74.75,2.25-.74,2.25-.75.76-1.5.75h-2.25l-1.5-.75-.75-2.25,1.5,1.5,3.74-4.51Zm0,7.5-.74,1.5-.76-2.25,2.24-1.5h2.25l1.51.75.75.74.76,2.25-.75,2.25-.75.76-1.49.75h-2.25l-1.51-.75-.75-2.25,1.5,1.5,3.74-4.51Zm0,7.5-.74,1.5-.76-2.25,2.25-1.5h2.25l1.5.75.75.74.76,2.25-.75,2.25-.74.76-1.5.75h-2.25l-1.5-.75-.76-2.25,1.5,1.5,3.74-4.51Zm0,7.5-.74,1.5-.76-2.25,2.25-1.5h2.25l1.5.75.75.74.76,2.25-.74,2.25-.75.76-1.5.75h-2.25l-1.5-.75-.76-2.25,1.51,1.5,3.73-4.51Zm0,7.5-.74,1.5-.76-2.25,2.25-1.5h2.25l1.5.75.75.74.76,2.25-.74,2.25-.75.76-1.5.75h-2.25l-1.5-.75-.76-2.25,1.51,1.5,3.73-4.51Zm0,7.5-.75,1.5-.76-2.25,2.25-1.5h2.25l1.5.75.75.74.76,2.25-.74,2.25-.75.75-1.5.76h-2.25l-1.5-.75-.76-2.25,1.51,1.5,3.73-4.51Zm0,7.5-.75,1.5-.75-2.25,2.24-1.5h2.25l1.5.74.76.75.75,2.25-.74,2.25-.75.75-1.5.76h-2.25l-1.5-.75-.76-2.25,1.51,1.5,3.74-4.51Zm0,7.5-.75,1.5-.75-2.25,2.24-1.5h2.25l1.5.74.76.75.75,2.25-.74,2.25-.75.75-1.5.76h-2.25l-1.5-.75-.75-2.25,1.5,1.5,3.74-4.51Zm0,7.5-.75,1.5-.75-2.25,2.24-1.5h2.25l1.51.74.75.75.75,2.25-.74,2.25-.75.75-1.5.76h-2.25l-1.5-.75-.75-2.25,1.5,1.5,3.74-4.51Zm7.35-52.52-.74,1.5-.76-2.25,2.24-1.51h2.25l1.51.74.75.75.76,2.25-.75,2.25-.75.75-1.49.76h-2.25l-1.51-.74-.75-2.25,1.5,1.5,3.74-4.51Zm.15,52.5-.75,1.5-.75-2.25,2.24-1.51h2.25l1.51.74.75.75.75,2.25-.74,2.25-.75.75-1.5.76h-2.25l-1.5-.74-.75-2.25,1.5,1.5,3.74-4.51Zm7.35-52.52-.74,1.5-.76-2.25,2.24-1.51h2.25l1.51.74.75.75.76,2.25-.75,2.25-.75.75-1.49.76h-2.25l-1.51-.74-.75-2.25,1.5,1.5,3.74-4.52Zm.15,52.49-.75,1.51-.75-2.25,2.24-1.51h2.25l1.51.74.75.75.75,2.25-.74,2.25-.75.75-1.5.76h-2.25l-1.5-.74-.75-2.25,1.5,1.49,3.74-4.51Zm7.48-7.52-.75,1.5-.75-2.24,2.24-1.51h2.25l1.5.74.76.75.75,2.25-.74,2.25-.75.75-1.5.76h-2.25l-1.5-.75-.75-2.24,1.5,1.49,3.74-4.51Z"/><path class="cls-1" d="M441,1532l-.74,1.5-.76-2.25,2.25-1.5H444l1.5.75.75.74.76,2.25-.74,2.25-.75.76-1.5.75h-2.25l-1.5-.75-.76-2.25,1.51,1.5,3.73-4.51Zm0,7.5-.75,1.5-.76-2.25,2.25-1.5H444l1.5.75.75.74L447,1541l-.74,2.25-.75.76-1.5.75h-2.25l-1.5-.75-.76-2.25,1.51,1.5,3.73-4.51Zm0,7.5-.75,1.5-.75-2.25,2.24-1.5H444l1.5.75.76.74.75,2.25-.74,2.25-.75.76-1.5.75h-2.25l-1.5-.75-.76-2.25,1.51,1.5,3.74-4.51Zm0,7.5-.75,1.5-.75-2.25,2.24-1.5H444l1.5.75.76.74.75,2.25-.74,2.25-.75.75-1.5.76h-2.25l-1.5-.74-.76-2.25,1.51,1.5,3.74-4.51Zm7.41-30-.74,1.5-.76-2.25,2.25-1.51h2.25l1.5.74.75.75.76,2.25-.75,2.25-.74.75-1.5.76h-2.25l-1.5-.74-.76-2.25,1.5,1.5,3.74-4.51Zm0,7.5-.74,1.5-.76-2.25,2.25-1.51h2.25l1.5.74.75.75.76,2.25-.75,2.25-.74.75-1.5.76h-2.25l-1.5-.74-.76-2.25,1.51,1.5,3.73-4.51Zm0,7.5-.75,1.5-.76-2.25,2.25-1.51h2.25l1.5.74.75.75.76,2.25-.74,2.25-.75.75-1.5.76h-2.25l-1.5-.74-.76-2.25,1.51,1.5,3.73-4.51Zm0,7.5-.75,1.5-.75-2.25,2.24-1.51h2.25l1.5.74.75.75.76,2.25-.74,2.25-.75.75-1.5.76h-2.25l-1.5-.74-.76-2.25,1.51,1.5,3.73-4.51Zm0,7.5-.75,1.5-.75-2.25,2.24-1.51h2.25l1.5.74.76.75.75,2.25-.74,2.25-.75.75-1.5.76h-2.25l-1.5-.74-.76-2.25,1.51,1.5,3.74-4.51Zm0,7.5-.75,1.5-.75-2.25,2.24-1.51h2.25l1.51.74.75.75.75,2.25-.74,2.25-.75.75-1.5.76h-2.25l-1.5-.74-.75-2.25,1.5,1.5,3.74-4.51Zm7.37-45-.74,1.51-.76-2.25,2.25-1.51h2.25l1.5.74.75.75.76,2.25-.75,2.25-.75.75-1.49.76h-2.25l-1.51-.74-.75-2.25,1.5,1.49,3.74-4.51Zm.11,37.5-.75,1.51-.75-2.25,2.24-1.51H459l1.5.74.76.75.75,2.25-.74,2.25-.75.75-1.5.76h-2.25l-1.5-.74-.76-2.25,1.51,1.49,3.74-4.51Zm0,7.5-.75,1.51-.75-2.25,2.24-1.51h2.25l1.51.74.75.75.75,2.25-.74,2.25-.75.75-1.5.76h-2.25l-1.5-.74-.75-2.25,1.5,1.49,3.74-4.51Zm0,7.5-.75,1.51-.75-2.25,2.24-1.51h2.25l1.51.74.75.75.75,2.25-.74,2.25-.75.75-1.49.76h-2.25l-1.51-.74-.75-2.25,1.5,1.49,3.74-4.51Zm7.33-60-.75,1.51-.75-2.25,2.24-1.51h2.25l1.51.74.75.75.75,2.25-.74,2.25-.75.75-1.49.76h-2.25l-1.51-.74-.75-2.25,1.5,1.49,3.74-4.51Zm.15,52.5-.75,1.51-.75-2.25,2.24-1.51h2.25l1.51.75.75.75.75,2.25-.74,2.25-.75.75-1.5.75h-2.25l-1.5-.74-.75-2.25,1.5,1.49,3.74-4.51Zm0,7.5-.75,1.51-.75-2.25,2.24-1.51h2.25l1.51.75.75.75.75,2.25-.74,2.25-.75.75-1.49.75h-2.25l-1.51-.74-.75-2.25,1.5,1.49,3.74-4.51Zm0,7.5-.74,1.51-.76-2.25,2.25-1.51h2.25l1.5.75.75.75.76,2.25-.75,2.25-.75.75-1.49.75h-2.25l-1.51-.74-.75-2.25,1.5,1.49,3.74-4.51Zm7.31-67.52-.75,1.5-.75-2.24,2.24-1.51h2.25l1.51.75.75.75.75,2.25-.74,2.25-.75.75-1.49.75h-2.25l-1.51-.75-.75-2.24,1.5,1.49,3.74-4.51Zm.17,60-.75,1.5-.75-2.24,2.24-1.51h2.25l1.51.75.75.75.75,2.25-.74,2.25-.75.75-1.49.75h-2.25l-1.51-.75-.75-2.24,1.5,1.49,3.74-4.51Zm0,7.5-.74,1.5-.76-2.24,2.25-1.51h2.25l1.5.75.75.75.76,2.25-.75,2.25-.75.75-1.49.75h-2.25l-1.51-.75-.75-2.24,1.5,1.49,3.74-4.51Zm7.31-67.52-.75,1.5-.75-2.24,2.24-1.51h2.25l1.51.75.75.75.75,2.24-.74,2.26-.75.75-1.49.75h-2.25l-1.51-.75-.75-2.24,1.5,1.49,3.74-4.51Zm0,7.5-.74,1.5-.76-2.24,2.25-1.51h2.25l1.5.75.75.75.76,2.24-.75,2.26-.75.75-1.49.75h-2.25l-1.51-.75-.75-2.24,1.5,1.49,3.74-4.51Zm.17,60-.74,1.5-.76-2.24,2.25-1.51h2.25l1.5.75.75.75.76,2.24-.75,2.26-.75.75-1.49.75h-2.25l-1.51-.75-.75-2.24,1.5,1.49,3.74-4.51Zm7.31-67.52-.75,1.5-.75-2.25,2.24-1.5h2.25l1.51.75.75.75.75,2.24-.74,2.26-.75.75-1.49.75h-2.25l-1.51-.75-.75-2.25,1.5,1.5,3.74-4.51Zm0,7.5-.74,1.5-.76-2.25,2.25-1.5h2.25l1.5.75.75.75.76,2.24-.75,2.26-.75.75-1.49.75h-2.25l-1.51-.75-.75-2.25,1.5,1.5,3.74-4.51Zm0,7.5-.74,1.5-.76-2.25,2.25-1.5H489l1.5.75.75.75.76,2.24-.75,2.26-.74.75-1.5.75h-2.25l-1.5-.75-.76-2.25,1.5,1.5,3.74-4.51Zm.15,52.5-.74,1.5-.76-2.25,2.25-1.5h2.25l1.5.75.75.74.76,2.25-.75,2.25-.75.76-1.49.75h-2.25l-1.51-.75-.75-2.25,1.5,1.5,3.74-4.51Zm7.33-60-.74,1.5-.76-2.25,2.25-1.5h2.25l1.5.75.75.74.76,2.25-.75,2.25-.75.76-1.49.75h-2.25l-1.51-.75-.75-2.25,1.5,1.5,3.74-4.51Zm0,7.5-.74,1.5-.76-2.25,2.25-1.5h2.25l1.5.75.75.74.76,2.25-.75,2.25-.74.76-1.5.75h-2.25l-1.5-.75-.76-2.25,1.5,1.5,3.74-4.51Zm0,7.5-.74,1.5-.76-2.25,2.25-1.5h2.25l1.5.75.75.74.76,2.25-.75,2.25-.74.76-1.5.75h-2.25l-1.5-.75-.76-2.25,1.5,1.5,3.74-4.51Zm.11,37.5-.75,1.5-.75-2.25,2.24-1.5h2.25l1.51.75.75.74.75,2.25-.74,2.25-.75.76-1.49.75h-2.25l-1.51-.75-.75-2.25,1.5,1.5,3.74-4.51Zm7.37-45-.74,1.5-.76-2.25,2.25-1.51H504l1.5.74.75.75.76,2.25-.75,2.25-.75.75-1.49.76h-2.25l-1.5-.74-.76-2.25,1.5,1.5,3.74-4.51Zm0,7.5-.74,1.5-.76-2.25,2.25-1.51H504l1.5.74.75.75.76,2.25-.75,2.25-.74.75-1.5.76h-2.25l-1.5-.74-.76-2.25,1.5,1.5,3.74-4.51Zm0,7.5-.75,1.5-.76-2.25,2.25-1.51H504l1.5.74.75.75.76,2.25-.74,2.25-.75.75-1.5.76h-2.25l-1.5-.74-.76-2.25,1.51,1.5,3.73-4.51Zm0,7.5-.75,1.5-.76-2.25,2.25-1.51H504l1.5.74.75.75.76,2.25-.74,2.25-.75.75-1.5.76h-2.25l-1.5-.74-.76-2.25,1.51,1.5,3.73-4.51Zm0,7.5-.75,1.5-.75-2.25,2.24-1.51H504l1.5.74.76.75.75,2.25-.74,2.25-.75.75-1.5.76h-2.25l-1.5-.74-.76-2.25,1.51,1.5,3.74-4.51Zm0,7.5-.75,1.5-.75-2.25,2.24-1.51h2.25l1.5.74.76.75.75,2.25-.74,2.25-.75.75-1.5.76h-2.25l-1.5-.74-.75-2.25,1.5,1.5,3.74-4.51Zm7.41-30-.74,1.5L507,1531l2.25-1.51h2.25l1.5.74.75.75.76,2.25-.75,2.25-.74.75-1.5.76h-2.25l-1.5-.74L507,1534l1.5,1.5,3.74-4.51Zm0,7.5-.75,1.5-.76-2.25,2.25-1.51h2.25l1.5.74.75.75.76,2.25-.74,2.25-.75.75-1.5.76h-2.25l-1.5-.74-.76-2.25,1.51,1.5,3.73-4.51Zm0,7.5-.75,1.5L507,1546l2.25-1.51h2.25l1.5.74.75.75.76,2.25-.74,2.25-.75.75-1.5.76h-2.25l-1.5-.74L507,1549l1.51,1.5,3.73-4.51Zm0,7.5-.75,1.5-.75-2.25,2.24-1.51h2.25l1.5.74.76.75.75,2.25-.74,2.25-.75.75-1.5.76h-2.25l-1.5-.74-.76-2.25,1.51,1.5,3.74-4.51Z"/><path class="cls-1" d="M985.43,1764.87l-.74,1.5-.76-2.25,2.25-1.51h2.25l1.5.74.75.75.76,2.25-.75,2.25-.74.75-1.5.76H986.2l-1.5-.74-.76-2.25,1.5,1.5,3.74-4.52Zm7.5,0-.74,1.51-.76-2.25,2.25-1.51h2.25l1.5.74.75.75.76,2.25-.75,2.25-.74.75-1.5.76H993.7l-1.5-.74-.76-2.25,1.5,1.49,3.74-4.51Zm7.44-22.52-.75,1.51-.75-2.25,2.24-1.51h2.25l1.51.74.75.75.75,2.25-.74,2.25-.75.75-1.5.76h-2.25l-1.5-.74-.75-2.25,1.5,1.49,3.74-4.51Zm0,7.5-.74,1.51-.76-2.25,2.24-1.51h2.25l1.51.74.75.75.76,2.25-.75,2.25-.75.75-1.49.75h-2.25l-1.51-.74-.75-2.25,1.5,1.49,3.74-4.51Zm0,7.5-.74,1.51-.76-2.25,2.25-1.51h2.25l1.5.75.75.75.76,2.25-.75,2.25-.74.75-1.5.75h-2.25l-1.5-.74-.76-2.25,1.5,1.49,3.74-4.51Zm0,7.5-.74,1.51-.76-2.25,2.25-1.51h2.25l1.5.75.75.75.76,2.25-.75,2.25-.74.75-1.5.75h-2.25l-1.5-.74-.76-2.25,1.5,1.49,3.74-4.51Zm0,7.5-.74,1.51-.76-2.25,2.25-1.51h2.25l1.5.75.75.75.76,2.25-.74,2.25-.75.75-1.5.75h-2.25l-1.5-.74-.76-2.25,1.51,1.49,3.73-4.51Zm0,7.5-.75,1.51-.76-2.25,2.25-1.51h2.25l1.5.75.75.75.76,2.25-.74,2.25-.75.75-1.5.75h-2.25l-1.5-.74-.76-2.25,1.51,1.49,3.73-4.51Zm0,7.5-.75,1.51-.75-2.25,2.24-1.51h2.25l1.5.75.76.75.75,2.25-.74,2.25-.75.75-1.5.75h-2.25l-1.5-.74-.76-2.25,1.51,1.49,3.74-4.51Zm0,7.5-.75,1.51-.75-2.25,2.24-1.51h2.25l1.5.75.76.75.75,2.25-.74,2.25-.75.75-1.5.75h-2.25l-1.5-.74-.75-2.25,1.5,1.49,3.74-4.51Zm0,7.5-.75,1.51-.75-2.25,2.24-1.51h2.25l1.51.75.75.75.75,2.25-.74,2.25-.75.75-1.5.75h-2.25l-1.5-.74-.75-2.25,1.5,1.49,3.74-4.51Zm0,7.5-.74,1.51-.76-2.25,2.24-1.51h2.25l1.51.75.75.75.76,2.25-.75,2.25-.75.75-1.49.75h-2.25l-1.51-.74-.75-2.25,1.5,1.49,3.74-4.51Zm7.29-75-.75,1.5-.75-2.24,2.24-1.51h2.25l1.5.75.76.75.75,2.25-.74,2.25-.75.75-1.5.75h-2.25l-1.5-.75-.76-2.24,1.51,1.49,3.74-4.51Zm0,7.5-.75,1.5-.75-2.24,2.24-1.51h2.25l1.51.75.75.75.75,2.25-.74,2.25-.75.75-1.5.75h-2.25l-1.5-.75-.75-2.24,1.5,1.49,3.74-4.51Zm0,7.5-.74,1.5-.76-2.24,2.24-1.51h2.25l1.51.75.75.75.76,2.24-.75,2.26-.75.75-1.49.75h-2.25l-1.51-.75-.75-2.24,1.5,1.49,3.74-4.51Zm0,7.5-.74,1.5-.76-2.24,2.25-1.51h2.25l1.5.75.75.75.76,2.24-.75,2.26-.74.75-1.5.75h-2.25l-1.5-.75-.76-2.24,1.5,1.49,3.74-4.51Zm0,7.5-.74,1.5-.76-2.24,2.25-1.51h2.25l1.5.75.75.75.76,2.24-.75,2.26-.74.75-1.5.75h-2.25l-1.5-.75-.76-2.24,1.5,1.49,3.74-4.51Zm0,7.5-.74,1.5-.76-2.24,2.25-1.51H1011l1.5.75.75.75.76,2.24-.74,2.26-.75.75-1.5.75h-2.25l-1.5-.75-.76-2.24,1.51,1.49,3.73-4.51Zm0,7.5-.75,1.5-.76-2.24,2.25-1.51H1011l1.5.75.75.75.76,2.24-.74,2.26-.75.75-1.5.75h-2.25l-1.5-.75-.76-2.24,1.51,1.49,3.73-4.51Zm0,7.5-.75,1.5-.75-2.24,2.24-1.51H1011l1.5.75.76.75.75,2.24-.74,2.26-.75.75-1.5.75h-2.25l-1.5-.75-.76-2.24,1.51,1.49,3.74-4.51Zm0,7.5-.75,1.5-.75-2.24,2.24-1.51H1011l1.5.75.76.75.75,2.24-.74,2.26-.75.75-1.5.75h-2.25l-1.5-.75-.75-2.24,1.5,1.49,3.74-4.51Zm0,7.5-.75,1.5-.75-2.24,2.24-1.51H1011l1.51.75.75.75.75,2.24-.74,2.26-.75.75-1.5.75h-2.25l-1.5-.75-.75-2.24,1.5,1.49,3.74-4.51Zm0,7.5-.74,1.5-.76-2.24,2.24-1.51h2.25l1.51.75.75.75.76,2.24-.75,2.26-.75.75-1.49.75h-2.25l-1.51-.75-.75-2.24,1.5,1.49,3.74-4.51Zm0,7.5-.74,1.5-.76-2.24,2.25-1.51h2.25l1.5.75.75.75.76,2.24-.75,2.26-.74.75-1.5.75h-2.25l-1.5-.75-.76-2.24,1.5,1.49,3.74-4.51Zm7.35-52.52-.74,1.5-.76-2.25,2.25-1.5h2.25l1.5.75.75.75.76,2.24-.75,2.26-.74.75-1.5.75h-2.25l-1.5-.75-.76-2.25,1.5,1.5,3.74-4.51Zm.15,52.5-.74,1.5-.76-2.25,2.25-1.5h2.25l1.5.75.75.74.76,2.25-.75,2.25-.75.76-1.49.75h-2.25l-1.5-.75-.76-2.25,1.5,1.5,3.74-4.51Zm7.35-52.52-.74,1.5-.76-2.25,2.25-1.5h2.25l1.5.75.75.74.76,2.25-.75,2.25-.74.76-1.5.75h-2.25l-1.5-.75-.76-2.25,1.5,1.5,3.74-4.51Zm.15,52.5-.74,1.5-.76-2.25,2.25-1.5h2.25l1.5.75.75.74.76,2.25-.75,2.25-.75.76-1.49.75h-2.25l-1.51-.75-.75-2.25,1.5,1.5,3.74-4.51Zm7.48-7.52-.74,1.5-.76-2.25,2.24-1.5h2.25l1.51.74.75.75.75,2.25-.74,2.25-.75.75-1.49.76h-2.25l-1.51-.75-.75-2.25,1.5,1.5,3.74-4.51Z"/><path class="cls-2" d="M888,918.89l-45.77,92.2-46.42-138,137.83-92.45,138.09-.39,92.2,45.77L1210.1,872l46.42,138-45.64,138.22L1165,1194.3l-91.93,46.29L935,1241l-92.2-45.77-46.42-138,92.32,91.8L1118,872.21Z"/></g></g></svg>