<svg xmlns="http://www.w3.org/2000/svg" viewBox="0 0 2019 2019"><defs><style>.cls-1{fill:darkgreen;}.cls-2,.cls-3{fill:none;stroke:darkgreen;stroke-width:3px;}.cls-2{stroke-miterlimit:10;}.cls-3{stroke-linecap:round;stroke-linejoin:round;}</style></defs><g id="Layer_2" data-name="Layer 2"><g id="Layer_1-2" data-name="Layer 1"><path class="cls-1" d="M979.5,223.41v-1.5l1.5,3.75,2.25.75,2.25-.75,1.5-3.75v7.5h-7.5v-6Zm0,7.5v-1.5l1.5,3.75,2.25.75,2.25-.75,1.5-3.75v7.5h-7.5v-6Zm0,30v-1.5l1.5,3.75,2.25.75,2.25-.75,1.5-3.75v7.5h-7.5v-6Zm0,7.5v-1.5l1.5,3.75,2.25.75,2.25-.75,1.5-3.75v7.5h-7.5v-6Zm7.5-52.5v-1.5l1.5,3.75,2.25.75,2.25-.75,1.5-3.75v7.5H987v-6Zm0,7.5v-1.5l1.5,3.75,2.25.75,2.25-.75,1.5-3.75v7.5H987v-6Zm0,7.5v-1.5l1.5,3.75,2.25.75,2.25-.75,1.5-3.75v7.5H987v-6Zm0,7.5v-1.5l1.5,3.75,2.25.75,2.25-.75,1.5-3.75v7.5H987v-6Zm0,30v-1.5l1.5,3.75,2.25.75,2.25-.75,1.5-3.75v7.5H987v-6Zm0,7.5v-1.5l1.5,3.75,2.25.75,2.25-.75,1.5-3.75v7.5H987v-6Zm7.5-67.5v-1.5l1.5,3.75,2.25.75,2.25-.75,1.5-3.75v7.5h-7.5v-6Zm0,22.5v-1.5l1.5,3.75,2.25.75,2.25-.75,1.5-3.75v7.5h-7.5v-6Zm0,7.5v-1.5l1.5,3.75,2.25.75,2.25-.75,1.5-3.75v7.5h-7.5v-6Zm0,37.5v-1.5l1.5,3.75,2.25.75,2.25-.75,1.5-3.75v7.5h-7.5v-6Zm7.5-67.5v-1.5l1.5,3.75,2.25.75,2.25-.75,1.5-3.75v7.5H1002v-6Zm0,30v-1.5l1.5,3.75,2.25.75,2.25-.75,1.5-3.75v7.5H1002v-6Zm0,7.5v-1.5l1.5,3.75,2.25.75,2.25-.75,1.5-3.75v7.5H1002v-6Zm0,30v-1.5l1.5,3.75,2.25.75,2.25-.75,1.5-3.75v7.5H1002v-6Zm7.5-67.5v-1.5l1.5,3.75,2.25.75,2.25-.75,1.5-3.75v7.5h-7.5v-6Zm0,7.5v-1.5l1.5,3.75,2.25.75,2.25-.75,1.5-3.75v7.5h-7.5v-6Zm0,30v-1.5l1.5,3.75,2.25.75,2.25-.75,1.5-3.75v7.5h-7.5v-6Zm0,7.5v-1.5l1.5,3.75,2.25.75,2.25-.75,1.5-3.75v7.5h-7.5v-6Zm0,15v-1.5l1.5,3.75,2.25.75,2.25-.75,1.5-3.75v7.5h-7.5v-6Zm0,7.5v-1.5l1.5,3.75,2.25.75,2.25-.75,1.5-3.75v7.5h-7.5v-6Zm7.5-60v-1.5l1.5,3.75,2.25.75,2.25-.75,1.5-3.75v7.5H1017v-6Zm0,7.5v-1.5l1.5,3.75,2.25.75,2.25-.75,1.5-3.75v7.5H1017v-6Zm0,22.5v-1.5l1.5,3.75,2.25.75,2.25-.75,1.5-3.75v7.5H1017v-6Zm0,7.5v-1.5l1.5,3.75,2.25.75,2.25-.75,1.5-3.75v7.5H1017v-6Zm0,7.5v-1.5l1.5,3.75,2.25.75,2.25-.75,1.5-3.75v7.5H1017v-6Zm0,7.5v-1.5l1.5,3.75,2.25.75,2.25-.75,1.5-3.75v7.5H1017v-6Zm0,7.5v-1.5l1.5,3.75,2.25.75,2.25-.75,1.5-3.75v7.5H1017v-6Zm7.5-52.5v-1.5l1.5,3.75,2.25.75,2.25-.75,1.5-3.75v7.5h-7.5v-6Zm0,7.5v-1.5l1.5,3.75,2.25.75,2.25-.75,1.5-3.75v7.5h-7.5v-6Zm0,22.5v-1.5l1.5,3.75,2.25.75,2.25-.75,1.5-3.75v7.5h-7.5v-6Zm0,7.5v-1.5l1.5,3.75,2.25.75,2.25-.75,1.5-3.75v7.5h-7.5v-6Zm0,7.5v-1.5l1.5,3.75,2.25.75,2.25-.75,1.5-3.75v7.5h-7.5v-6Zm7.5-52.5v-1.5l1.5,3.75,2.25.75,2.25-.75,1.5-3.75v7.5H1032v-6Zm0,7.5v-1.5l1.5,3.75,2.25.75,2.25-.75,1.5-3.75v7.5H1032v-6Zm0,37.5v-1.5l1.5,3.75,2.25.75,2.25-.75,1.5-3.75v7.5H1032v-6Z"/><path class="cls-1" d="M1688.75,659.14v-1.5l1.5,3.75,2.25.75,2.25-.75,1.5-3.75v7.5h-7.5v-6Zm0,7.5v-1.5l1.5,3.75,2.25.75,2.25-.75,1.5-3.75v7.5h-7.5v-6Zm7.5,0v-1.5l1.5,3.75,2.25.75,2.25-.75,1.5-3.75v7.5h-7.5v-6Zm0,105v-1.5l1.5,3.75,2.25.75,2.25-.75,1.5-3.75v7.5h-7.5v-6Zm7.5-105v-1.5l1.5,3.75,2.25.75,2.25-.75,1.5-3.75v7.5h-7.5v-6Zm0,105v-1.5l1.5,3.75,2.25.75,2.25-.75,1.5-3.75v7.5h-7.5v-6Zm7.5-112.5v-1.5l1.5,3.75,2.25.75,2.25-.75,1.5-3.75v7.5h-7.5v-6Zm0,7.5v-1.5l1.5,3.75,2.25.75,2.25-.75,1.5-3.75v7.5h-7.5v-6Zm0,7.5v-1.5l1.5,3.75,2.25.75,2.25-.75,1.5-3.75v7.5h-7.5v-6Zm0,7.5v-1.5l1.5,3.75,2.25.75,2.25-.75,1.5-3.75v7.5h-7.5v-6Zm0,7.5v-1.5l1.5,3.75,2.25.75,2.25-.75,1.5-3.75v7.5h-7.5v-6Zm0,7.5v-1.5l1.5,3.75,2.25.75,2.25-.75,1.5-3.75v7.5h-7.5v-6Zm0,7.5v-1.5l1.5,3.75,2.25.75,2.25-.75,1.5-3.75v7.5h-7.5v-6Zm0,7.5v-1.5l1.5,3.75,2.25.75,2.25-.75,1.5-3.75v7.5h-7.5v-6Zm0,7.5v-1.5l1.5,3.75,2.25.75,2.25-.75,1.5-3.75v7.5h-7.5v-6Zm0,7.5v-1.5l1.5,3.75,2.25.75,2.25-.75,1.5-3.75v7.5h-7.5v-6Zm0,7.5v-1.5l1.5,3.75,2.25.75,2.25-.75,1.5-3.75v7.5h-7.5v-6Zm0,7.5v-1.5l1.5,3.75,2.25.75,2.25-.75,1.5-3.75v7.5h-7.5v-6Zm0,7.5v-1.5l1.5,3.75,2.25.75,2.25-.75,1.5-3.75v7.5h-7.5v-6Zm0,7.5v-1.5l1.5,3.75,2.25.75,2.25-.75,1.5-3.75v7.5h-7.5v-6Zm0,7.5v-1.5l1.5,3.75,2.25.75,2.25-.75,1.5-3.75v7.5h-7.5v-6Zm0,7.5v-1.5l1.5,3.75,2.25.75,2.25-.75,1.5-3.75v7.5h-7.5v-6Zm7.5-112.5v-1.5l1.5,3.75,2.25.75,2.25-.75,1.5-3.75v7.5h-7.5v-6Zm0,7.5v-1.5l1.5,3.75,2.25.75,2.25-.75,1.5-3.75v7.5h-7.5v-6Zm0,7.5v-1.5l1.5,3.75,2.25.75,2.25-.75,1.5-3.75v7.5h-7.5v-6Zm0,7.5v-1.5l1.5,3.75,2.25.75,2.25-.75,1.5-3.75v7.5h-7.5v-6Zm0,7.5v-1.5l1.5,3.75,2.25.75,2.25-.75,1.5-3.75v7.5h-7.5v-6Zm0,7.5v-1.5l1.5,3.75,2.25.75,2.25-.75,1.5-3.75v7.5h-7.5v-6Zm0,7.5v-1.5l1.5,3.75,2.25.75,2.25-.75,1.5-3.75v7.5h-7.5v-6Zm0,7.5v-1.5l1.5,3.75,2.25.75,2.25-.75,1.5-3.75v7.5h-7.5v-6Zm0,7.5v-1.5l1.5,3.75,2.25.75,2.25-.75,1.5-3.75v7.5h-7.5v-6Zm0,7.5v-1.5l1.5,3.75,2.25.75,2.25-.75,1.5-3.75v7.5h-7.5v-6Zm0,7.5v-1.5l1.5,3.75,2.25.75,2.25-.75,1.5-3.75v7.5h-7.5v-6Zm0,7.5v-1.5l1.5,3.75,2.25.75,2.25-.75,1.5-3.75v7.5h-7.5v-6Zm0,7.5v-1.5l1.5,3.75,2.25.75,2.25-.75,1.5-3.75v7.5h-7.5v-6Zm0,7.5v-1.5l1.5,3.75,2.25.75,2.25-.75,1.5-3.75v7.5h-7.5v-6Zm0,7.5v-1.5l1.5,3.75,2.25.75,2.25-.75,1.5-3.75v7.5h-7.5v-6Zm0,7.5v-1.5l1.5,3.75,2.25.75,2.25-.75,1.5-3.75v7.5h-7.5v-6Zm7.5,0v-1.5l1.5,3.75,2.25.75,2.25-.75,1.5-3.75v7.5h-7.5v-6Zm7.5,0v-1.5l1.5,3.75,2.25.75,2.25-.75,1.5-3.75v7.5h-7.5v-6Zm7.5-7.5v-1.5l1.5,3.75,2.25.75,2.25-.75,1.5-3.75v7.5h-7.5v-6Z"/><path class="cls-2" d="M1630.07,694.07q1.07-4.19,2.51-8.2"/><path class="cls-2" d="M1657.5,649.05a89.46,89.46,0,0,0-24.92,36.82"/><line class="cls-2" x1="1632.58" y1="579.39" x2="1632.58" y2="685.87"/><line class="cls-2" x1="1388.31" y1="452.31" x2="1484.73" y2="492.25"/><line class="cls-2" x1="1484.73" y1="492.25" x2="1440.89" y2="386.42"/><line class="cls-2" x1="1532.95" y1="538.13" x2="1574.54" y2="638.54"/><line class="cls-2" x1="1484.73" y1="492.25" x2="1497.68" y2="523.52"/><path class="cls-2" d="M1059.17,316c-.57.38-1.13.78-1.7,1.14A89.29,89.29,0,0,1,1028.08,329"/><line class="cls-2" x1="1166.7" y1="386.42" x2="1229.25" y2="386.42"/><line class="cls-2" x1="1106.53" y1="361.5" x2="1169.08" y2="361.5"/><line class="cls-2" x1="1326.85" y1="426.85" x2="1229.25" y2="386.42"/><line class="cls-2" x1="1286.42" y1="386.42" x2="1229.25" y2="386.42"/><line class="cls-2" x1="1286.99" y1="739.36" x2="1460.6" y2="560.6"/><line class="cls-2" x1="1166.7" y1="386.42" x2="1371.08" y2="471.08"/><line class="cls-2" x1="1009.5" y1="386.42" x2="1166.7" y2="386.42"/><line class="cls-2" x1="1271.38" y1="617.47" x2="1460.6" y2="560.6"/><line class="cls-2" x1="1280.3" y1="1287.65" x2="1401.72" y2="1272.1"/><line class="cls-2" x1="1286.99" y1="739.36" x2="1400.43" y2="751.67"/><line class="cls-2" x1="1271.38" y1="617.47" x2="1286.99" y2="739.36"/><polyline class="cls-2" points="1098.88 549.72 1247.94 434.51 1271.38 617.47"/><path class="cls-2" d="M1630.07,694.07c-.42,1.65-.8,3.31-1.12,5a90.26,90.26,0,0,0-.87,29"/><line class="cls-2" x1="1630.07" y1="694.07" x2="1574.54" y2="638.54"/><line class="cls-2" x1="1432.53" y1="496.53" x2="1371.08" y2="471.08"/><line class="cls-2" x1="1574.54" y1="638.54" x2="1524.67" y2="588.67"/><line class="cls-2" x1="1460.6" y1="560.6" x2="1371.08" y2="471.08"/><path class="cls-2" d="M1632.58,746.72a89.45,89.45,0,0,1-4.13-16c-.14-.86-.25-1.73-.37-2.6"/><line class="cls-2" x1="1628.08" y1="728.08" x2="1599.99" y2="699.99"/><line class="cls-2" x1="1497.68" y1="523.52" x2="1432.53" y2="496.53"/><line class="cls-2" x1="1524.67" y1="588.67" x2="1497.68" y2="523.52"/><line class="cls-2" x1="1524.67" y1="588.67" x2="1432.53" y2="496.53"/><path class="cls-2" d="M1657.5,783.54a90.34,90.34,0,0,1-18.11-22.17,89.14,89.14,0,0,1-6.81-14.65"/><line class="cls-2" x1="1632.58" y1="746.72" x2="1632.58" y2="778.66"/><path class="cls-2" d="M956.89,314c.83.61,1.67,1.21,2.52,1.78a89.74,89.74,0,0,0,28.05,12.5"/><line class="cls-2" x1="907.13" y1="361.5" x2="846.96" y2="386.42"/><line class="cls-2" x1="781.93" y1="386.42" x2="697.68" y2="421.32"/><path class="cls-2" d="M478,1450.34a89.71,89.71,0,0,1,27.94,5"/><path class="cls-2" d="M557.43,1579.53a89.72,89.72,0,0,1-14.24,21.13l-2,2"/><path class="cls-2" d="M566.32,1544.6a89.29,89.29,0,0,1-8.89,34.93"/><line class="cls-2" x1="579.41" y1="1632.58" x2="557.43" y2="1579.53"/><line class="cls-2" x1="452.36" y1="1388.36" x2="426.9" y2="1326.9"/><line class="cls-2" x1="386.42" y1="1229.18" x2="426.9" y2="1326.9"/><line class="cls-2" x1="426.9" y1="1326.9" x2="386.42" y2="1286.42"/><line class="cls-2" x1="696.58" y1="1632.58" x2="638.49" y2="1574.49"/><line class="cls-2" x1="757.5" y1="1657.5" x2="732.58" y2="1632.58"/><line class="cls-2" x1="1104.28" y1="1657.5" x2="909.39" y2="1657.5"/><line class="cls-2" x1="732.58" y1="386.42" x2="697.68" y2="421.32"/><line class="cls-2" x1="651.69" y1="467.31" x2="697.68" y2="421.32"/><line class="cls-2" x1="859.07" y1="1759.07" x2="757.5" y2="1657.5"/><line class="cls-2" x1="838.9" y1="1657.5" x2="757.5" y2="1657.5"/><path class="cls-2" d="M386.42,691.17c.36,1.47.68,3,1,4.45"/><path class="cls-2" d="M361.5,647.63a90,90,0,1,0-79.26,153.13"/><line class="cls-2" x1="470.44" y1="648.56" x2="495.9" y2="587.1"/><line class="cls-2" x1="442.2" y1="640.8" x2="485.56" y2="536.12"/><line class="cls-2" x1="361.5" y1="1106.5" x2="321.13" y2="1009.03"/><line class="cls-2" x1="590.24" y1="492.76" x2="495.9" y2="587.1"/><line class="cls-2" x1="523.53" y1="520.39" x2="495.9" y2="587.1"/><path class="cls-2" d="M361.5,776.86l4.2-4.2a89.74,89.74,0,0,0,20.72-39.19"/><line class="cls-2" x1="361.5" y1="1106.5" x2="386.42" y2="1166.67"/><line class="cls-2" x1="386.42" y1="775.46" x2="386.42" y2="851.39"/><line class="cls-2" x1="361.5" y1="1106.5" x2="361.5" y2="911.56"/><path class="cls-2" d="M361.5,776.86l-2.23,2.22a89.68,89.68,0,0,1-40.33,21"/><line class="cls-2" x1="361.5" y1="776.86" x2="361.5" y2="835.63"/><path class="cls-2" d="M318.94,800.06a90.45,90.45,0,0,1-35.27,1l-1.43-.26"/><line class="cls-2" x1="248.74" y1="834.26" x2="282.24" y2="800.76"/><line class="cls-2" x1="318.94" y1="800.06" x2="259.28" y2="859.72"/><path class="cls-2" d="M506,1455.29a90.23,90.23,0,0,1,56.48,58.5"/><line class="cls-2" x1="505.97" y1="1455.29" x2="496.56" y2="1432.56"/><path class="cls-2" d="M386.67,732.33a89.87,89.87,0,0,0,2.26-20,90.89,90.89,0,0,0-1.55-16.69"/><line class="cls-2" x1="387.38" y1="695.62" x2="442.2" y2="640.8"/><line class="cls-2" x1="416.74" y1="702.26" x2="442.2" y2="640.8"/><line class="cls-2" x1="699.94" y1="1599.94" x2="732.58" y2="1632.58"/><line class="cls-2" x1="732.58" y1="1632.58" x2="778.73" y2="1632.58"/><path class="cls-2" d="M1457.39,1511.24a89.49,89.49,0,0,1,11.68-22.85,89.93,89.93,0,0,1,45-33.44"/><path class="cls-2" d="M1452.6,1541.39c0-.36,0-.71,0-1.07a89.8,89.8,0,0,1,4.81-29.08"/><line class="cls-2" x1="1457.39" y1="1511.24" x2="1434.13" y2="1520.87"/><line class="cls-2" x1="1470.11" y1="386.42" x2="1519.99" y2="506.85"/><path class="cls-2" d="M1028.08,329c-1,.21-2,.43-3,.6a90.59,90.59,0,0,1-33.2-.38c-1.48-.29-3-.63-4.42-1"/><line class="cls-2" x1="1028.08" y1="329" x2="1106.53" y2="361.5"/><line class="cls-2" x1="907.13" y1="361.5" x2="1106.53" y2="361.5"/><line class="cls-2" x1="987.46" y1="328.23" x2="907.13" y2="361.5"/><line class="cls-2" x1="1098.88" y1="549.72" x2="1009.5" y2="386.42"/><line class="cls-2" x1="1098.88" y1="549.72" x2="1009.5" y2="624.64"/><polyline class="cls-2" points="561.07 557.93 561.07 557.93 561.07 557.93"/><line class="cls-2" x1="416.74" y1="702.26" x2="386.42" y2="775.46"/><line class="cls-2" x1="386.42" y1="733.47" x2="386.42" y2="775.46"/><line class="cls-2" x1="386.67" y1="732.33" x2="416.74" y2="702.26"/><path class="cls-2" d="M541.15,1602.71l-4.38,4.38a89.67,89.67,0,0,1-60.35,23.23,91.23,91.23,0,0,1-15.25-1.29,90,90,0,0,1-73.6-74.31,91.15,91.15,0,0,1-1.15-14.4"/><line class="cls-2" x1="553.52" y1="1632.58" x2="541.15" y2="1602.71"/><line class="cls-2" x1="833.61" y1="1769.61" x2="721.5" y2="1657.5"/><line class="cls-2" x1="470.44" y1="648.56" x2="561.07" y2="557.93"/><line class="cls-2" x1="386.42" y1="851.39" x2="470.44" y2="648.56"/><line class="cls-2" x1="386.42" y1="851.39" x2="386.42" y2="1009.5"/><path class="cls-2" d="M566.32,1544.6c.07-1.42.1-2.85.1-4.28a90.13,90.13,0,0,0-4-26.53"/><line class="cls-2" x1="566.32" y1="1544.6" x2="638.49" y2="1574.49"/><line class="cls-2" x1="638.49" y1="1574.49" x2="699.94" y2="1599.94"/><line class="cls-2" x1="849.22" y1="1632.58" x2="778.73" y2="1632.58"/><line class="cls-2" x1="562.45" y1="1513.79" x2="588.64" y2="1524.64"/><line class="cls-2" x1="699.94" y1="1599.94" x2="778.73" y2="1632.58"/><line class="cls-2" x1="471.1" y1="1371.1" x2="496.56" y2="1432.56"/><line class="cls-2" x1="588.64" y1="1524.64" x2="496.56" y2="1432.56"/><line class="cls-2" x1="588.64" y1="1524.64" x2="650.1" y2="1550.1"/><polyline class="cls-2" points="1006.83 1697.86 1024.95 1690.36 1104.28 1657.5"/><line class="cls-2" x1="1104.28" y1="1657.5" x2="1164.45" y2="1632.58"/><line class="cls-2" x1="732.01" y1="1280.97" x2="561.44" y2="1459.76"/><line class="cls-2" x1="1009.5" y1="1397.87" x2="1100.15" y2="1466.96"/><line class="cls-2" x1="1009.5" y1="1397.87" x2="1009.5" y2="1632.58"/><polyline class="cls-2" points="1268.04 1400.62 1247.94 1585.81 1100.15 1466.96"/><line class="cls-2" x1="1009.5" y1="1632.58" x2="1164.45" y2="1632.58"/><line class="cls-2" x1="1372.67" y1="1546.33" x2="1164.45" y2="1632.58"/><line class="cls-2" x1="1009.5" y1="1632.58" x2="1100.15" y2="1466.96"/><line class="cls-2" x1="386.42" y1="1009.5" x2="548.9" y2="920.57"/><line class="cls-2" x1="622.89" y1="1011.25" x2="386.42" y2="1009.5"/><line class="cls-2" x1="471.1" y1="1371.1" x2="386.42" y2="1166.67"/><line class="cls-2" x1="1009.5" y1="1632.58" x2="849.22" y2="1632.58"/><line class="cls-2" x1="386.42" y1="1166.67" x2="386.42" y2="1009.5"/><line class="cls-2" x1="618.22" y1="1268.62" x2="561.44" y2="1459.76"/><line class="cls-2" x1="849.22" y1="1632.58" x2="650.1" y2="1550.1"/><line class="cls-2" x1="471.1" y1="1371.1" x2="650.1" y2="1550.1"/><line class="cls-2" x1="386.42" y1="1009.5" x2="552.87" y2="1100.61"/><line class="cls-2" x1="920.63" y1="1470.21" x2="1009.5" y2="1632.58"/><line class="cls-2" x1="747.46" y1="1401.57" x2="561.44" y2="1459.76"/><line class="cls-2" x1="1009.5" y1="624.64" x2="1009.5" y2="386.42"/><polyline class="cls-2" points="617.62 748.18 433.85 771.72 548.89 920.57"/><line class="cls-2" x1="622.89" y1="1011.25" x2="548.9" y2="920.57"/><line class="cls-2" x1="1009.5" y1="624.64" x2="918.34" y2="552.96"/><path class="cls-2" d="M1009.5,1397.87c213.52,0,386.61-173.1,386.61-386.62S1223,624.64,1009.5,624.64"/><path class="cls-2" d="M1009.5,624.64c-213.52,0-386.61,173.09-386.61,386.61"/><line class="cls-2" x1="732.01" y1="1280.97" x2="618.22" y2="1268.62"/><line class="cls-2" x1="622.89" y1="1011.25" x2="552.87" y2="1100.61"/><line class="cls-2" x1="920.63" y1="1470.21" x2="1009.5" y2="1397.87"/><line class="cls-2" x1="732.01" y1="1280.97" x2="747.46" y2="1401.57"/><polyline class="cls-2" points="552.87 1100.61 433.85 1248.6 618.22 1268.62"/><polyline class="cls-2" points="920.63 1470.21 771.06 1585.81 747.46 1401.57"/><path class="cls-2" d="M622.89,1011.25c0,213.52,173.09,386.62,386.61,386.62"/><line class="cls-2" x1="1280.3" y1="1287.65" x2="1461.07" y2="1457.93"/><line class="cls-2" x1="1268.04" y1="1400.62" x2="1280.3" y2="1287.65"/><line class="cls-2" x1="1268.04" y1="1400.62" x2="1461.07" y2="1457.93"/><line class="cls-2" x1="846.96" y1="386.42" x2="1009.5" y2="386.42"/><line class="cls-2" x1="846.96" y1="386.42" x2="651.69" y2="467.31"/><line class="cls-2" x1="651.69" y1="467.31" x2="561.07" y2="557.93"/><line class="cls-2" x1="918.34" y1="552.96" x2="1009.5" y2="386.42"/><polyline class="cls-2" points="751.1 618.42 771.06 434.51 918.34 552.96"/><line class="cls-2" x1="561.07" y1="557.93" x2="561.07" y2="557.93"/><line class="cls-2" x1="617.62" y1="748.18" x2="561.07" y2="557.93"/><line class="cls-2" x1="617.62" y1="748.18" x2="738.7" y2="732.67"/><line class="cls-2" x1="738.7" y1="732.67" x2="751.1" y2="618.42"/><line class="cls-2" x1="751.1" y1="618.42" x2="561.07" y2="557.93"/><line class="cls-2" x1="738.7" y1="732.67" x2="561.07" y2="557.93"/><line class="cls-2" x1="732.58" y1="386.42" x2="781.93" y2="386.42"/><line class="cls-2" x1="842.1" y1="361.5" x2="781.93" y2="386.42"/><line class="cls-2" x1="732.58" y1="386.42" x2="696.58" y2="386.42"/><line class="cls-2" x1="589.34" y1="361.5" x2="721.5" y2="361.5"/><path class="cls-2" d="M386.42,691.17a89.89,89.89,0,0,0-24.92-43.54"/><line class="cls-2" x1="386.42" y1="691.17" x2="386.42" y2="577.18"/><line class="cls-2" x1="361.5" y1="647.63" x2="361.5" y2="587.51"/><polyline class="cls-2" points="547.57 386.42 386.42 386.42 386.42 550.25"/><polyline class="cls-2" points="248.74 834.26 178.01 663.51 361.5 587.51"/><line class="cls-2" x1="259.28" y1="859.72" x2="305.4" y2="971.06"/><line class="cls-2" x1="248.74" y1="834.26" x2="259.28" y2="859.72"/><line class="cls-2" x1="361.5" y1="560.57" x2="361.5" y2="587.51"/><line class="cls-2" x1="361.5" y1="1169.01" x2="308.18" y2="1040.29"/><line class="cls-2" x1="240.97" y1="878.03" x2="292.45" y2="1002.32"/><path class="cls-2" d="M1705.51,805.51a89.64,89.64,0,0,0,34-2"/><line class="cls-2" x1="1791.84" y1="1163.16" x2="1945.5" y2="1009.5"/><line class="cls-2" x1="321.13" y1="1009.03" x2="308.18" y2="1040.29"/><line class="cls-2" x1="321.13" y1="1009.03" x2="361.5" y2="911.56"/><line class="cls-2" x1="361.5" y1="911.56" x2="361.5" y2="835.63"/><line class="cls-2" x1="361.5" y1="835.63" x2="305.4" y2="971.06"/><line class="cls-2" x1="292.45" y1="1002.32" x2="305.4" y2="971.06"/><line class="cls-2" x1="308.18" y1="1040.29" x2="259.01" y2="1159.01"/><line class="cls-2" x1="236.76" y1="1136.76" x2="292.45" y2="1002.32"/><path class="cls-2" d="M921.29,258.86a90,90,0,1,1,177-3.49"/><path class="cls-2" d="M921.29,258.86c.14.68.28,1.35.43,2a89.54,89.54,0,0,0,12.39,29.2"/><polyline class="cls-2" points="921.29 258.86 920.53 258.55 878.05 240.95"/><line class="cls-2" x1="1232.45" y1="1632.58" x2="1324.59" y2="1594.41"/><line class="cls-2" x1="361.5" y1="1169.01" x2="386.42" y2="1229.18"/><line class="cls-2" x1="386.42" y1="1322.42" x2="386.42" y2="1286.42"/><line class="cls-2" x1="386.42" y1="1229.18" x2="386.42" y2="1286.42"/><line class="cls-2" x1="361.5" y1="1297.5" x2="361.5" y2="1430.56"/><line class="cls-2" x1="361.5" y1="1169.01" x2="361.5" y2="1261.5"/><line class="cls-2" x1="636.23" y1="446.77" x2="696.58" y2="386.42"/><line class="cls-2" x1="579.02" y1="386.42" x2="696.58" y2="386.42"/><path class="cls-2" d="M1098.32,255.37c-.16,1-.32,2-.52,3a89.43,89.43,0,0,1-11,28.68"/><path class="cls-2" d="M1366.83,144.15l3.53,1.46"/><line class="cls-2" x1="1164.12" y1="228.12" x2="1366.83" y2="144.15"/><line class="cls-2" x1="1098.32" y1="255.37" x2="1138.66" y2="238.66"/><path class="cls-2" d="M956.89,314a90.4,90.4,0,0,1-21.08-21.32c-.59-.84-1.14-1.7-1.7-2.55"/><line class="cls-2" x1="956.89" y1="313.95" x2="842.1" y2="361.5"/><line class="cls-2" x1="757.5" y1="361.5" x2="842.1" y2="361.5"/><line class="cls-2" x1="934.11" y1="290.08" x2="859.73" y2="259.27"/><line class="cls-2" x1="1945.5" y1="1009.5" x2="1787.64" y2="851.64"/><line class="cls-2" x1="1370.36" y1="145.61" x2="1459.78" y2="361.5"/><line class="cls-2" x1="590.24" y1="492.76" x2="636.23" y2="446.77"/><line class="cls-2" x1="386.42" y1="577.18" x2="485.56" y2="536.12"/><line class="cls-2" x1="523.53" y1="520.39" x2="485.56" y2="536.12"/><line class="cls-2" x1="523.53" y1="520.39" x2="590.24" y2="492.76"/><line class="cls-2" x1="386.42" y1="577.18" x2="386.42" y2="550.25"/><line class="cls-2" x1="386.42" y1="550.25" x2="499.03" y2="503.6"/><line class="cls-2" x1="537" y1="487.88" x2="636.23" y2="446.77"/><polyline class="cls-2" points="1040.83 1711.95 1059.96 1704.03 1172.28 1657.5"/><polyline class="cls-2" points="1006.83 1697.86 990.96 1691.29 909.39 1657.5"/><line class="cls-2" x1="909.39" y1="1657.5" x2="838.9" y2="1657.5"/><polyline class="cls-2" points="971.59 1712.46 957.24 1706.52 838.9 1657.5"/><line class="cls-2" x1="1006.83" y1="1697.86" x2="1040.83" y2="1711.95"/><polyline class="cls-2" points="1158.37 1760.63 1086.34 1730.8 1040.83 1711.95"/><polyline class="cls-2" points="1137.72 1781.28 1099.36 1765.39 1005.59 1726.55"/><path class="cls-2" d="M1476.89,1601.84a90.08,90.08,0,0,1-12.22-16.44c-.92-1.59-1.78-3.22-2.6-4.87"/><polyline class="cls-2" points="1183.83 1771.17 1353.91 1841.63 1430.18 1657.5"/><line class="cls-2" x1="833.61" y1="1769.61" x2="859.07" y2="1759.07"/><polyline class="cls-2" points="971.59 1712.46 937.21 1726.7 859.07 1759.07"/><polyline class="cls-2" points="589.73 1657.5 665.09 1839.42 833.61 1769.61"/><line class="cls-2" x1="971.59" y1="1712.46" x2="1005.59" y2="1726.55"/><polyline class="cls-2" points="1005.59 1726.55 922.18 1761.1 878.99 1778.99"/><path class="cls-2" d="M478,1450.34l-1.61,0a89.75,89.75,0,0,0-42.05,10.42"/><line class="cls-2" x1="478.03" y1="1450.34" x2="452.36" y2="1388.36"/><line class="cls-2" x1="452.36" y1="1388.36" x2="386.42" y2="1322.42"/><line class="cls-2" x1="386.42" y1="1440.88" x2="386.42" y2="1322.42"/><line class="cls-2" x1="1232.45" y1="1632.58" x2="1172.28" y2="1657.5"/><line class="cls-2" x1="1232.45" y1="1632.58" x2="1286.42" y2="1632.58"/><line class="cls-2" x1="1261.5" y1="1657.5" x2="1172.28" y2="1657.5"/><line class="cls-2" x1="1297.5" y1="1657.5" x2="1430.18" y2="1657.5"/><line class="cls-2" x1="1440.51" y1="1632.58" x2="1430.18" y2="1657.5"/><line class="cls-2" x1="1777.09" y1="877.09" x2="1760.37" y2="860.37"/><line class="cls-2" x1="1632.58" y1="1286.42" x2="1632.58" y2="1225.98"/><line class="cls-2" x1="1657.5" y1="1108.71" x2="1657.5" y2="1165.81"/><line class="cls-2" x1="579.41" y1="1632.58" x2="553.52" y2="1632.58"/><line class="cls-2" x1="579.41" y1="1632.58" x2="696.58" y2="1632.58"/><line class="cls-2" x1="721.5" y1="1657.5" x2="696.58" y2="1632.58"/><polyline class="cls-2" points="553.52 1632.58 386.42 1632.58 386.42 1540.32"/><line class="cls-2" x1="589.73" y1="1657.5" x2="721.5" y2="1657.5"/><line class="cls-2" x1="589.73" y1="1657.5" x2="563.84" y2="1657.5"/><path class="cls-2" d="M1847.61,1071.39a90.71,90.71,0,0,1-6.43,6.43"/><line class="cls-2" x1="1632.58" y1="1286.42" x2="1589.84" y2="1329.16"/><line class="cls-2" x1="1657.5" y1="1261.5" x2="1632.58" y2="1286.42"/><path class="cls-2" d="M409.84,1479.78a88.46,88.46,0,0,0-6.93,8.61,89.42,89.42,0,0,0-14.83,34.71,90.42,90.42,0,0,0-1.66,17.22"/><line class="cls-2" x1="386.42" y1="1470.08" x2="386.42" y2="1540.32"/><line class="cls-2" x1="1771.19" y1="1183.81" x2="1657.5" y2="1297.5"/><path class="cls-2" d="M1657.5,649.05c2.29-2,4.66-4,7.15-5.76a90,90,0,0,1,119.41,133.34l-6.42,6.42a89.75,89.75,0,0,1-38.14,20.45"/><line class="cls-2" x1="1657.5" y1="649.05" x2="1657.5" y2="589.72"/><line class="cls-2" x1="1770.91" y1="834.91" x2="1739.5" y2="803.5"/><line class="cls-2" x1="1401.72" y1="1272.1" x2="1461.07" y2="1457.93"/><polyline class="cls-2" points="1469.38 1098.83 1585.15 1248.6 1401.72 1272.1"/><line class="cls-2" x1="1632.58" y1="1009.5" x2="1632.58" y2="1168.88"/><path class="cls-2" d="M1539.63,1450.37a89.67,89.67,0,0,0-20.26,3c-1.79.47-3.55,1-5.29,1.6"/><line class="cls-2" x1="1524.01" y1="1430.99" x2="1514.08" y2="1454.95"/><line class="cls-2" x1="1589.84" y1="1329.16" x2="1632.58" y2="1225.98"/><line class="cls-2" x1="1632.58" y1="1168.88" x2="1632.58" y2="1225.98"/><line class="cls-2" x1="1564.38" y1="1390.62" x2="1589.84" y2="1329.16"/><line class="cls-2" x1="1549.46" y1="1369.54" x2="1632.58" y2="1168.88"/><path class="cls-2" d="M1632.58,1540.32a89.7,89.7,0,0,0-25.61-62.87"/><path class="cls-2" d="M1582.25,1459.52a90.36,90.36,0,0,1,24.72,17.93"/><line class="cls-2" x1="1632.58" y1="1466.84" x2="1606.97" y2="1477.45"/><path class="cls-2" d="M1539.63,1450.37c1,0,2,0,2.95,0a89.59,89.59,0,0,1,39.67,9.2"/><line class="cls-2" x1="1632.58" y1="1322.42" x2="1564.38" y2="1390.62"/><line class="cls-2" x1="1539.63" y1="1450.37" x2="1564.38" y2="1390.62"/><line class="cls-2" x1="1632.58" y1="1438.67" x2="1582.25" y2="1459.52"/><line class="cls-2" x1="1158.37" y1="1760.63" x2="1261.5" y2="1657.5"/><line class="cls-2" x1="1137.72" y1="1781.28" x2="1158.37" y2="1760.63"/><polyline class="cls-2" points="1137.72 1781.28 1009.5 1909.5 878.99 1778.99"/><line class="cls-2" x1="1297.5" y1="1657.5" x2="1183.82" y2="1771.18"/><line class="cls-2" x1="1163.18" y1="1791.82" x2="1183.82" y2="1771.18"/><line class="cls-2" x1="853.53" y1="1789.53" x2="878.99" y2="1778.99"/><line class="cls-2" x1="1261.5" y1="1657.5" x2="1297.5" y2="1657.5"/><line class="cls-2" x1="1466.87" y1="918.8" x2="1396.11" y2="1009.5"/><line class="cls-2" x1="1469.39" y1="1098.83" x2="1396.11" y2="1009.5"/><line class="cls-2" x1="1469.39" y1="1098.83" x2="1632.58" y2="1009.5"/><line class="cls-2" x1="1632.58" y1="1009.5" x2="1396.11" y2="1009.5"/><polyline class="cls-2" points="1453.84 1657.5 1363.78 1874.91 1163.18 1791.82"/><line class="cls-2" x1="1163.18" y1="1791.82" x2="1009.5" y2="1945.5"/><path class="cls-2" d="M1462.07,1580.53a89.13,89.13,0,0,1-8.34-25.81,90.11,90.11,0,0,1-1.13-13.33"/><line class="cls-2" x1="1452.6" y1="1541.39" x2="1386.04" y2="1568.96"/><line class="cls-2" x1="1462.07" y1="1580.53" x2="1440.51" y2="1632.58"/><line class="cls-2" x1="1440.51" y1="1632.58" x2="1322.42" y2="1632.58"/><circle class="cls-2" cx="1009.5" cy="1009.5" r="1008"/><polyline class="cls-2" points="647.04 146.28 647.4 145.41 648.26 145.77"/><polyline class="cls-2" points="142.8 1363.61 140.84 1368.36 145.6 1370.33"/><path class="cls-2" d="M1945.5,1009.5a933.24,933.24,0,0,1-70,355.7"/><polyline class="cls-2" points="1370.36 145.61 1369.33 143.11 1366.84 144.15"/><path class="cls-2" d="M1366.83,144.15A933.09,933.09,0,0,0,1009.5,73.5"/><path class="cls-2" d="M1945.5,1009.5c0-389-237.35-722.62-575.14-863.89"/><path class="cls-2" d="M1875,1366.41c-140.31,339.89-475,579.09-865.53,579.09"/><line class="cls-2" x1="1524.01" y1="1430.99" x2="1434.13" y2="1520.87"/><line class="cls-2" x1="1386.04" y1="1568.96" x2="1434.13" y2="1520.87"/><line class="cls-2" x1="1372.67" y1="1546.33" x2="1324.59" y2="1594.41"/><line class="cls-2" x1="1372.67" y1="1546.33" x2="1461.07" y2="1457.93"/><line class="cls-2" x1="1461.07" y1="1457.93" x2="1461.07" y2="1457.93"/><line class="cls-2" x1="1286.42" y1="1632.58" x2="1324.59" y2="1594.41"/><line class="cls-2" x1="1286.42" y1="1632.58" x2="1322.42" y2="1632.58"/><line class="cls-2" x1="1549.46" y1="1369.54" x2="1461.07" y2="1457.93"/><line class="cls-2" x1="1524.01" y1="1430.99" x2="1549.46" y2="1369.54"/><line class="cls-2" x1="1386.04" y1="1568.96" x2="1322.42" y2="1632.58"/><path class="cls-2" d="M1476.89,1601.84a90.64,90.64,0,0,0,15.39,13.13,89.68,89.68,0,0,0,35,14.06,91.35,91.35,0,0,0,15.26,1.29,89.63,89.63,0,0,0,60.34-23.23l6.43-6.43a89.68,89.68,0,0,0,23.23-60.34"/><line class="cls-2" x1="1476.89" y1="1601.84" x2="1464.16" y2="1632.58"/><polyline class="cls-2" points="1875.03 1366.41 1875.89 1366.06 1875.53 1365.2"/><polyline class="cls-2" points="1760.64 1158.36 1730.54 1085.69 1710.79 1038.02"/><polyline class="cls-2" points="1725.22 1002.32 1765.58 1099.76 1781.3 1137.7"/><line class="cls-2" x1="1791.84" y1="1163.16" x2="1875.53" y2="1365.2"/><line class="cls-2" x1="1791.84" y1="1163.16" x2="1781.3" y2="1137.7"/><line class="cls-2" x1="1841.18" y1="1077.82" x2="1781.3" y2="1137.7"/><polyline class="cls-2" points="1847.61 1071.39 1909.5 1009.5 1777.09 877.09"/><polyline class="cls-2" points="1777.09 877.09 1757.63 924.08 1702.93 1056.13 1657.5 1165.81"/><line class="cls-2" x1="1657.5" y1="1165.81" x2="1657.5" y2="1261.5"/><line class="cls-2" x1="1847.61" y1="1071.39" x2="1841.18" y2="1077.82"/><line class="cls-2" x1="1771.19" y1="1183.81" x2="1760.64" y2="1158.36"/><line class="cls-2" x1="1760.64" y1="1158.36" x2="1657.5" y2="1261.5"/><polyline class="cls-2" points="1771.18 1183.82 1840.99 1352.34 1657.5 1428.35"/><line class="cls-2" x1="1875.03" y1="1366.41" x2="1657.5" y2="1456.52"/><path class="cls-2" d="M1875,1366.41c.17-.4.34-.8.5-1.21"/><path class="cls-2" d="M1086.78,287.09q-1.15,1.94-2.42,3.83A90.48,90.48,0,0,1,1059.17,316"/><line class="cls-2" x1="1059.17" y1="315.97" x2="1169.08" y2="361.5"/><line class="cls-2" x1="1169.08" y1="361.5" x2="1261.5" y2="361.5"/><line class="cls-2" x1="1157.71" y1="257.71" x2="1086.78" y2="287.09"/><polyline class="cls-2" points="853.53 1789.53 652.94 1872.62 563.84 1657.5"/><polyline class="cls-2" points="563.84 1657.5 361.5 1657.5 361.5 1459.76"/><line class="cls-2" x1="853.53" y1="1789.53" x2="1009.5" y2="1945.5"/><path class="cls-2" d="M1009.5,1945.5c-389,0-722.65-237.37-863.9-575.17"/><line class="cls-2" x1="1632.58" y1="579.39" x2="1532.95" y2="538.13"/><line class="cls-2" x1="1632.58" y1="579.39" x2="1657.5" y2="589.72"/><line class="cls-2" x1="1519.99" y1="506.85" x2="1532.95" y2="538.13"/><line class="cls-2" x1="1632.58" y1="553.49" x2="1519.99" y2="506.85"/><line class="cls-2" x1="1770.91" y1="834.91" x2="1787.64" y2="851.64"/><polyline class="cls-2" points="1657.5 563.81 1870.34 651.97 1787.64 851.63"/><polyline class="cls-2" points="1657.5 589.72 1840.99 665.72 1770.91 834.91"/><line class="cls-2" x1="1464.16" y1="1632.58" x2="1453.84" y2="1657.5"/><line class="cls-2" x1="1657.5" y1="1297.5" x2="1632.58" y2="1322.42"/><line class="cls-2" x1="1657.5" y1="1297.5" x2="1657.5" y2="1428.35"/><line class="cls-2" x1="1632.58" y1="1540.32" x2="1632.58" y2="1466.84"/><line class="cls-2" x1="1632.58" y1="1466.84" x2="1632.58" y2="1438.67"/><line class="cls-2" x1="1632.58" y1="1438.67" x2="1632.58" y2="1322.42"/><polyline class="cls-2" points="1453.84 1657.5 1657.5 1657.5 1657.5 1456.52"/><polyline class="cls-2" points="1464.16 1632.58 1632.58 1632.58 1632.58 1540.32"/><line class="cls-2" x1="1657.5" y1="1428.35" x2="1657.5" y2="1456.52"/><line class="cls-2" x1="834.27" y1="248.73" x2="721.5" y2="361.5"/><line class="cls-2" x1="721.5" y1="361.5" x2="757.5" y2="361.5"/><line class="cls-2" x1="1009.5" y1="73.5" x2="1164.12" y2="228.12"/><polyline class="cls-2" points="1138.66 238.66 1009.5 109.5 878.05 240.95"/><line class="cls-2" x1="859.73" y1="259.27" x2="878.05" y2="240.95"/><line class="cls-2" x1="1138.66" y1="238.66" x2="1164.12" y2="228.12"/><line class="cls-2" x1="859.73" y1="259.27" x2="757.5" y2="361.5"/><polyline class="cls-2" points="1183.16 247.16 1353.91 176.44 1430.57 361.5"/><path class="cls-2" d="M409.84,1479.78a89.57,89.57,0,0,1,24.53-19"/><path class="cls-2" d="M142.8,1363.61c.92,2.24,1.86,4.48,2.8,6.72"/><polyline class="cls-2" points="361.5 1430.56 178.01 1354.55 248.46 1184.46"/><line class="cls-2" x1="386.42" y1="1440.88" x2="361.5" y2="1430.56"/><line class="cls-2" x1="386.42" y1="1440.88" x2="434.37" y2="1460.74"/><line class="cls-2" x1="361.5" y1="1459.76" x2="386.42" y2="1470.08"/><line class="cls-2" x1="409.84" y1="1479.78" x2="386.42" y2="1470.08"/><line class="cls-2" x1="361.5" y1="1459.76" x2="145.6" y2="1370.33"/><path class="cls-2" d="M1009.5,73.5a933.18,933.18,0,0,0-361.24,72.27"/><line class="cls-2" x1="852.59" y1="230.41" x2="1009.5" y2="73.5"/><line class="cls-2" x1="1322.42" y1="386.42" x2="1440.89" y2="386.42"/><line class="cls-2" x1="1470.11" y1="386.42" x2="1440.89" y2="386.42"/><polyline class="cls-2" points="1632.58 553.49 1632.58 386.42 1470.11 386.42"/><line class="cls-2" x1="1430.57" y1="361.5" x2="1459.78" y2="361.5"/><polyline class="cls-2" points="1657.5 563.81 1657.5 361.5 1459.79 361.5"/><line class="cls-2" x1="1632.58" y1="553.49" x2="1657.5" y2="563.81"/><line class="cls-2" x1="1297.5" y1="361.5" x2="1430.57" y2="361.5"/><line class="cls-2" x1="1322.42" y1="386.42" x2="1388.31" y2="452.31"/><line class="cls-2" x1="1326.85" y1="426.85" x2="1388.31" y2="452.31"/><line class="cls-2" x1="1261.5" y1="361.5" x2="1286.42" y2="386.42"/><line class="cls-2" x1="1326.85" y1="426.85" x2="1286.42" y2="386.42"/><line class="cls-2" x1="1157.71" y1="257.71" x2="1183.16" y2="247.16"/><line class="cls-2" x1="1157.71" y1="257.71" x2="1261.5" y2="361.5"/><line class="cls-2" x1="1183.16" y1="247.16" x2="1297.5" y2="361.5"/><line class="cls-2" x1="1297.5" y1="361.5" x2="1322.42" y2="386.42"/><polyline class="cls-2" points="1698.79 1009.03 1692.49 993.83 1657.5 909.36"/><line class="cls-2" x1="1599.99" y1="699.99" x2="1550.12" y2="650.12"/><line class="cls-2" x1="1599.99" y1="699.99" x2="1632.58" y2="778.66"/><line class="cls-2" x1="1657.5" y1="838.83" x2="1632.58" y2="778.66"/><polyline class="cls-2" points="1713.39 973.77 1691.99 1025.45 1657.5 1108.71"/><line class="cls-2" x1="1657.5" y1="909.36" x2="1632.58" y2="849.19"/><line class="cls-2" x1="1657.5" y1="909.36" x2="1657.5" y2="1108.71"/><path class="cls-2" d="M647,146.28l1.22-.51"/><polyline class="cls-2" points="834.27 248.73 665.09 178.65 589.34 361.5"/><line class="cls-2" x1="579.02" y1="386.42" x2="589.34" y2="361.5"/><line class="cls-2" x1="557.89" y1="361.5" x2="547.57" y2="386.42"/><line class="cls-2" x1="547.57" y1="386.42" x2="499.03" y2="503.6"/><line class="cls-2" x1="579.02" y1="386.42" x2="537" y2="487.88"/><line class="cls-2" x1="499.03" y1="503.6" x2="537" y2="487.88"/><line class="cls-2" x1="834.27" y1="248.73" x2="852.59" y2="230.41"/><line class="cls-2" x1="648.26" y1="145.77" x2="852.59" y2="230.41"/><path class="cls-2" d="M1705.51,805.51c-1.16-.15-2.32-.32-3.47-.52a89.47,89.47,0,0,1-35-14.06,90.5,90.5,0,0,1-9.5-7.39"/><line class="cls-2" x1="1657.5" y1="838.83" x2="1657.5" y2="783.54"/><line class="cls-2" x1="1705.51" y1="805.51" x2="1760.37" y2="860.37"/><polyline class="cls-2" points="1713.39 973.77 1728.19 938.05 1760.37 860.37"/><polyline class="cls-2" points="1713.39 973.77 1707.33 959.12 1657.5 838.83"/><line class="cls-2" x1="1400.43" y1="751.67" x2="1460.6" y2="560.6"/><polyline class="cls-2" points="1466.87 918.8 1585.15 771.72 1400.43 751.67"/><line class="cls-2" x1="1550.12" y1="650.12" x2="1460.6" y2="560.6"/><line class="cls-2" x1="1632.58" y1="849.19" x2="1632.58" y2="1009.5"/><line class="cls-2" x1="1632.58" y1="1009.5" x2="1466.87" y2="918.8"/><line class="cls-2" x1="1632.58" y1="849.19" x2="1550.12" y2="650.12"/><polyline class="cls-2" points="361.5 560.57 361.5 361.5 557.89 361.5"/><polyline class="cls-2" points="230.43 852.57 146.38 649.67 361.5 560.57"/><path class="cls-2" d="M647,146.28C310.1,287.93,73.5,621.08,73.5,1009.5"/><line class="cls-2" x1="557.89" y1="361.5" x2="647.04" y2="146.28"/><line class="cls-2" x1="361.5" y1="1297.5" x2="248.46" y2="1184.46"/><line class="cls-2" x1="230.43" y1="852.57" x2="240.97" y2="878.03"/><line class="cls-2" x1="361.5" y1="1261.5" x2="259.01" y2="1159.01"/><polyline class="cls-2" points="240.97 878.03 205.46 913.54 108.48 1009.03 192.3 1092.3 236.76 1136.77"/><line class="cls-2" x1="236.76" y1="1136.76" x2="259.01" y2="1159.01"/><line class="cls-2" x1="361.5" y1="1261.5" x2="361.5" y2="1297.5"/><line class="cls-2" x1="226.22" y1="1162.22" x2="248.46" y2="1184.46"/><polyline class="cls-2" points="230.43 852.57 167.75 915.25 103.55 979.45 73.5 1009.5"/><path class="cls-2" d="M73.5,1009.5a933.45,933.45,0,0,0,69.3,354.11"/><line class="cls-2" x1="226.22" y1="1162.22" x2="142.8" y2="1363.61"/><polyline class="cls-2" points="226.22 1162.22 142.19 1078.19 114.74 1050.74 73.5 1009.5"/><polyline class="cls-3" points="386.68 732.33 386.42 732.58 386.42 733.47"/><path class="cls-3" d="M386.67,732.33c-.08.38-.16.76-.25,1.14"/><path class="cls-1" d="M1506.87,1526.76v-1.5l1.5,3.75,2.25.75,2.25-.75,1.5-3.75v7.5h-7.5v-6Zm0,7.5v-1.5l1.5,3.75,2.25.75,2.25-.75,1.5-3.75v7.5h-7.5v-6Zm0,7.5v-1.5l1.5,3.75,2.25.75,2.25-.75,1.5-3.75v7.5h-7.5v-6Zm0,7.5v-1.5l1.5,3.75,2.25.75,2.25-.75,1.5-3.75v7.5h-7.5v-6Zm7.5-30v-1.5l1.5,3.75,2.25.75,2.25-.75,1.5-3.75v7.5h-7.5v-6Zm0,7.5v-1.5l1.5,3.75,2.25.75,2.25-.75,1.5-3.75v7.5h-7.5v-6Zm0,7.5v-1.5l1.5,3.75,2.25.75,2.25-.75,1.5-3.75v7.5h-7.5v-6Zm0,7.5v-1.5l1.5,3.75,2.25.75,2.25-.75,1.5-3.75v7.5h-7.5v-6Zm0,7.5v-1.5l1.5,3.75,2.25.75,2.25-.75,1.5-3.75v7.5h-7.5v-6Zm0,7.5v-1.5l1.5,3.75,2.25.75,2.25-.75,1.5-3.75v7.5h-7.5v-6Zm7.5-45v-1.5l1.5,3.75,2.25.75,2.25-.75,1.5-3.75v7.5h-7.5v-6Zm0,37.5v-1.5l1.5,3.75,2.25.75,2.25-.75,1.5-3.75v7.5h-7.5v-6Zm0,7.5v-1.5l1.5,3.75,2.25.75,2.25-.75,1.5-3.75v7.5h-7.5v-6Zm0,7.5v-1.5l1.5,3.75,2.25.75,2.25-.75,1.5-3.75v7.5h-7.5v-6Zm7.5-60v-1.5l1.5,3.75,2.25.75,2.25-.75,1.5-3.75v7.5h-7.5v-6Zm0,52.5v-1.5l1.5,3.75,2.25.75,2.25-.75,1.5-3.75v7.5h-7.5v-6Zm0,7.5v-1.5l1.5,3.75,2.25.75,2.25-.75,1.5-3.75v7.5h-7.5v-6Zm0,7.5v-1.5l1.5,3.75,2.25.75,2.25-.75,1.5-3.75v7.5h-7.5v-6Zm7.5-67.5v-1.5l1.5,3.75,2.25.75,2.25-.75,1.5-3.75v7.5h-7.5v-6Zm0,60v-1.5l1.5,3.75,2.25.75,2.25-.75,1.5-3.75v7.5h-7.5v-6Zm0,7.5v-1.5l1.5,3.75,2.25.75,2.25-.75,1.5-3.75v7.5h-7.5v-6Zm7.5-67.5v-1.5l1.5,3.75,2.25.75,2.25-.75,1.5-3.75v7.5h-7.5v-6Zm0,7.5v-1.5l1.5,3.75,2.25.75,2.25-.75,1.5-3.75v7.5h-7.5v-6Zm0,60v-1.5l1.5,3.75,2.25.75,2.25-.75,1.5-3.75v7.5h-7.5v-6Zm7.5-67.5v-1.5l1.5,3.75,2.25.75,2.25-.75,1.5-3.75v7.5h-7.5v-6Zm0,7.5v-1.5l1.5,3.75,2.25.75,2.25-.75,1.5-3.75v7.5h-7.5v-6Zm0,7.5v-1.5l1.5,3.75,2.25.75,2.25-.75,1.5-3.75v7.5h-7.5v-6Zm0,52.5v-1.5l1.5,3.75,2.25.75,2.25-.75,1.5-3.75v7.5h-7.5v-6Zm7.5-60v-1.5l1.5,3.75,2.25.75,2.25-.75,1.5-3.75v7.5h-7.5v-6Zm0,7.5v-1.5l1.5,3.75,2.25.75,2.25-.75,1.5-3.75v7.5h-7.5v-6Zm0,7.5v-1.5l1.5,3.75,2.25.75,2.25-.75,1.5-3.75v7.5h-7.5v-6Zm0,37.5v-1.5l1.5,3.75,2.25.75,2.25-.75,1.5-3.75v7.5h-7.5v-6Zm7.5-45v-1.5l1.5,3.75,2.25.75,2.25-.75,1.5-3.75v7.5h-7.5v-6Zm0,7.5v-1.5l1.5,3.75,2.25.75,2.25-.75,1.5-3.75v7.5h-7.5v-6Zm0,7.5v-1.5l1.5,3.75,2.25.75,2.25-.75,1.5-3.75v7.5h-7.5v-6Zm0,7.5v-1.5l1.5,3.75,2.25.75,2.25-.75,1.5-3.75v7.5h-7.5v-6Zm0,7.5v-1.5l1.5,3.75,2.25.75,2.25-.75,1.5-3.75v7.5h-7.5v-6Zm0,7.5v-1.5l1.5,3.75,2.25.75,2.25-.75,1.5-3.75v7.5h-7.5v-6Zm7.5-30v-1.5l1.5,3.75,2.25.75,2.25-.75,1.5-3.75v7.5h-7.5v-6Zm0,7.5v-1.5l1.5,3.75,2.25.75,2.25-.75,1.5-3.75v7.5h-7.5v-6Zm0,7.5v-1.5l1.5,3.75,2.25.75,2.25-.75,1.5-3.75v7.5h-7.5v-6Zm0,7.5v-1.5l1.5,3.75,2.25.75,2.25-.75,1.5-3.75v7.5h-7.5v-6Z"/><path class="cls-1" d="M450.28,1525.46V1524l1.5,3.75,2.25.75,2.25-.75,1.5-3.75v7.5h-7.5v-6Zm7.5,0V1524l1.5,3.75,2.25.75,2.25-.75,1.5-3.75v7.5h-7.5v-6Zm7.5-22.5v-1.5l1.5,3.75,2.25.75,2.25-.75,1.5-3.75v7.5h-7.5v-6Zm0,7.5V1509l1.5,3.75,2.25.75,2.25-.75,1.5-3.75v7.5h-7.5v-6Zm0,7.5v-1.5l1.5,3.75,2.25.75,2.25-.75,1.5-3.75v7.5h-7.5v-6Zm0,7.5V1524l1.5,3.75,2.25.75,2.25-.75,1.5-3.75v7.5h-7.5v-6Zm0,7.5v-1.5l1.5,3.75,2.25.75,2.25-.75,1.5-3.75v7.5h-7.5v-6Zm0,7.5V1539l1.5,3.75,2.25.75,2.25-.75,1.5-3.75v7.5h-7.5v-6Zm0,7.5v-1.5l1.5,3.75,2.25.75,2.25-.75,1.5-3.75v7.5h-7.5v-6Zm0,7.5V1554l1.5,3.75,2.25.75,2.25-.75,1.5-3.75v7.5h-7.5v-6Zm0,7.5v-1.5l1.5,3.75,2.25.75,2.25-.75,1.5-3.75v7.5h-7.5v-6Zm0,7.5V1569l1.5,3.75,2.25.75,2.25-.75,1.5-3.75v7.5h-7.5v-6Zm7.5-75V1494l1.5,3.75,2.25.75,2.25-.75,1.5-3.75v7.5h-7.5v-6Zm0,7.5v-1.5l1.5,3.75,2.25.75,2.25-.75,1.5-3.75v7.5h-7.5v-6Zm0,7.5V1509l1.5,3.75,2.25.75,2.25-.75,1.5-3.75v7.5h-7.5v-6Zm0,7.5v-1.5l1.5,3.75,2.25.75,2.25-.75,1.5-3.75v7.5h-7.5v-6Zm0,7.5V1524l1.5,3.75,2.25.75,2.25-.75,1.5-3.75v7.5h-7.5v-6Zm0,7.5v-1.5l1.5,3.75,2.25.75,2.25-.75,1.5-3.75v7.5h-7.5v-6Zm0,7.5V1539l1.5,3.75,2.25.75,2.25-.75,1.5-3.75v7.5h-7.5v-6Zm0,7.5v-1.5l1.5,3.75,2.25.75,2.25-.75,1.5-3.75v7.5h-7.5v-6Zm0,7.5V1554l1.5,3.75,2.25.75,2.25-.75,1.5-3.75v7.5h-7.5v-6Zm0,7.5v-1.5l1.5,3.75,2.25.75,2.25-.75,1.5-3.75v7.5h-7.5v-6Zm0,7.5V1569l1.5,3.75,2.25.75,2.25-.75,1.5-3.75v7.5h-7.5v-6Zm0,7.5v-1.5l1.5,3.75,2.25.75,2.25-.75,1.5-3.75v7.5h-7.5v-6Zm7.5-52.5V1524l1.5,3.75,2.25.75,2.25-.75,1.5-3.75v7.5h-7.5v-6Zm0,52.5v-1.5l1.5,3.75,2.25.75,2.25-.75,1.5-3.75v7.5h-7.5v-6Zm7.5-52.5V1524l1.5,3.75,2.25.75,2.25-.75,1.5-3.75v7.5h-7.5v-6Zm0,52.5v-1.5l1.5,3.75,2.25.75,2.25-.75,1.5-3.75v7.5h-7.5v-6Zm7.5-7.5V1569l1.5,3.75,2.25.75,2.25-.75,1.5-3.75v7.5h-7.5v-6Z"/><path class="cls-1" d="M250.23,651.86v-1.5l1.5,3.75,2.25.75,2.25-.75,1.5-3.75v7.5h-7.5v-6Zm0,7.5v-1.5l1.5,3.75,2.25.75,2.25-.75,1.5-3.75v7.5h-7.5v-6Zm7.5,0v-1.5l1.5,3.75,2.25.75,2.25-.75,1.5-3.75v7.5h-7.5v-6Zm0,105v-1.5l1.5,3.75,2.25.75,2.25-.75,1.5-3.75v7.5h-7.5v-6Zm7.5-105v-1.5l1.5,3.75,2.25.75,2.25-.75,1.5-3.75v7.5h-7.5v-6Zm0,105v-1.5l1.5,3.75,2.25.75,2.25-.75,1.5-3.75v7.5h-7.5v-6Zm7.5-112.5v-1.5l1.5,3.75,2.25.75,2.25-.75,1.5-3.75v7.5h-7.5v-6Zm0,7.5v-1.5l1.5,3.75,2.25.75,2.25-.75,1.5-3.75v7.5h-7.5v-6Zm0,7.5v-1.5l1.5,3.75,2.25.75,2.25-.75,1.5-3.75v7.5h-7.5v-6Zm0,7.5v-1.5l1.5,3.75,2.25.75,2.25-.75,1.5-3.75v7.5h-7.5v-6Zm0,7.5v-1.5l1.5,3.75,2.25.75,2.25-.75,1.5-3.75v7.5h-7.5v-6Zm0,7.5v-1.5l1.5,3.75,2.25.75,2.25-.75,1.5-3.75v7.5h-7.5v-6Zm0,7.5v-1.5l1.5,3.75,2.25.75,2.25-.75,1.5-3.75v7.5h-7.5v-6Zm0,7.5v-1.5l1.5,3.75,2.25.75,2.25-.75,1.5-3.75v7.5h-7.5v-6Zm0,7.5v-1.5l1.5,3.75,2.25.75,2.25-.75,1.5-3.75v7.5h-7.5v-6Zm0,7.5v-1.5l1.5,3.75,2.25.75,2.25-.75,1.5-3.75v7.5h-7.5v-6Zm0,7.5v-1.5l1.5,3.75,2.25.75,2.25-.75,1.5-3.75v7.5h-7.5v-6Zm0,7.5v-1.5l1.5,3.75,2.25.75,2.25-.75,1.5-3.75v7.5h-7.5v-6Zm0,7.5v-1.5l1.5,3.75,2.25.75,2.25-.75,1.5-3.75v7.5h-7.5v-6Zm0,7.5v-1.5l1.5,3.75,2.25.75,2.25-.75,1.5-3.75v7.5h-7.5v-6Zm0,7.5v-1.5l1.5,3.75,2.25.75,2.25-.75,1.5-3.75v7.5h-7.5v-6Zm0,7.5v-1.5l1.5,3.75,2.25.75,2.25-.75,1.5-3.75v7.5h-7.5v-6Zm7.5-112.5v-1.5l1.5,3.75,2.25.75,2.25-.75,1.5-3.75v7.5h-7.5v-6Zm0,7.5v-1.5l1.5,3.75,2.25.75,2.25-.75,1.5-3.75v7.5h-7.5v-6Zm0,7.5v-1.5l1.5,3.75,2.25.75,2.25-.75,1.5-3.75v7.5h-7.5v-6Zm0,7.5v-1.5l1.5,3.75,2.25.75,2.25-.75,1.5-3.75v7.5h-7.5v-6Zm0,7.5v-1.5l1.5,3.75,2.25.75,2.25-.75,1.5-3.75v7.5h-7.5v-6Zm0,7.5v-1.5l1.5,3.75,2.25.75,2.25-.75,1.5-3.75v7.5h-7.5v-6Zm0,7.5v-1.5l1.5,3.75,2.25.75,2.25-.75,1.5-3.75v7.5h-7.5v-6Zm0,7.5v-1.5l1.5,3.75,2.25.75,2.25-.75,1.5-3.75v7.5h-7.5v-6Zm0,7.5v-1.5l1.5,3.75,2.25.75,2.25-.75,1.5-3.75v7.5h-7.5v-6Zm0,7.5v-1.5l1.5,3.75,2.25.75,2.25-.75,1.5-3.75v7.5h-7.5v-6Zm0,7.5v-1.5l1.5,3.75,2.25.75,2.25-.75,1.5-3.75v7.5h-7.5v-6Zm0,7.5v-1.5l1.5,3.75,2.25.75,2.25-.75,1.5-3.75v7.5h-7.5v-6Zm0,7.5v-1.5l1.5,3.75,2.25.75,2.25-.75,1.5-3.75v7.5h-7.5v-6Zm0,7.5v-1.5l1.5,3.75,2.25.75,2.25-.75,1.5-3.75v7.5h-7.5v-6Zm0,7.5v-1.5l1.5,3.75,2.25.75,2.25-.75,1.5-3.75v7.5h-7.5v-6Zm0,7.5v-1.5l1.5,3.75,2.25.75,2.25-.75,1.5-3.75v7.5h-7.5v-6Zm7.5-52.5v-1.5l1.5,3.75,2.25.75,2.25-.75,1.5-3.75v7.5h-7.5v-6Zm0,45v-1.5l1.5,3.75,2.25.75,2.25-.75,1.5-3.75v7.5h-7.5v-6Zm7.5-52.5v-1.5l1.5,3.75,2.25.75,2.25-.75,1.5-3.75v7.5h-7.5v-6Zm7.5-7.5v-1.5l1.5,3.75,2.25.75,2.25-.75,1.5-3.75v7.5h-7.5v-6Zm7.5,0v-1.5l1.5,3.75,2.25.75,2.25-.75,1.5-3.75v7.5h-7.5v-6Zm0,7.5v-1.5l1.5,3.75,2.25.75,2.25-.75,1.5-3.75v7.5h-7.5v-6Zm7.5-7.5v-1.5l1.5,3.75,2.25.75,2.25-.75,1.5-3.75v7.5h-7.5v-6Zm0,7.5v-1.5l1.5,3.75,2.25.75,2.25-.75,1.5-3.75v7.5h-7.5v-6Zm0,7.5v-1.5l1.5,3.75,2.25.75,2.25-.75,1.5-3.75v7.5h-7.5v-6Zm0,7.5v-1.5l1.5,3.75,2.25.75,2.25-.75,1.5-3.75v7.5h-7.5v-6Zm0,7.5v-1.5l1.5,3.75,2.25.75,2.25-.75,1.5-3.75v7.5h-7.5v-6Zm0,7.5v-1.5l1.5,3.75,2.25.75,2.25-.75,1.5-3.75v7.5h-7.5v-6Zm0,7.5v-1.5l1.5,3.75,2.25.75,2.25-.75,1.5-3.75v7.5h-7.5v-6Zm0,7.5v-1.5l1.5,3.75,2.25.75,2.25-.75,1.5-3.75v7.5h-7.5v-6Zm0,7.5v-1.5l1.5,3.75,2.25.75,2.25-.75,1.5-3.75v7.5h-7.5v-6Zm0,7.5v-1.5l1.5,3.75,2.25.75,2.25-.75,1.5-3.75v7.5h-7.5v-6Zm7.5-60v-1.5l1.5,3.75,2.25.75,2.25-.75,1.5-3.75v7.5h-7.5v-6Zm0,7.5v-1.5l1.5,3.75,2.25.75,2.25-.75,1.5-3.75v7.5h-7.5v-6Zm0,7.5v-1.5l1.5,3.75,2.25.75,2.25-.75,1.5-3.75v7.5h-7.5v-6Zm0,7.5v-1.5l1.5,3.75,2.25.75,2.25-.75,1.5-3.75v7.5h-7.5v-6Zm0,7.5v-1.5l1.5,3.75,2.25.75,2.25-.75,1.5-3.75v7.5h-7.5v-6Zm0,7.5v-1.5l1.5,3.75,2.25.75,2.25-.75,1.5-3.75v7.5h-7.5v-6Zm0,7.5v-1.5l1.5,3.75,2.25.75,2.25-.75,1.5-3.75v7.5h-7.5v-6Zm0,7.5v-1.5l1.5,3.75,2.25.75,2.25-.75,1.5-3.75v7.5h-7.5v-6Zm0,7.5v-1.5l1.5,3.75,2.25.75,2.25-.75,1.5-3.75v7.5h-7.5v-6Zm7.5,0v-1.5l1.5,3.75,2.25.75,2.25-.75,1.5-3.75v7.5h-7.5v-6Zm7.5,0v-1.5l1.5,3.75,2.25.75,2.25-.75,1.5-3.75v7.5h-7.5v-6Zm7.5-7.5v-1.5l1.5,3.75,2.25.75,2.25-.75,1.5-3.75v7.5h-7.5v-6Z"/><path class="cls-2" d="M777.58,881.12V788.35l92.77,231.93,139.16,46.38,139.15-46.38,92.77-231.93V1252.2H777.58V881.12Z"/></g></g></svg>