<svg xmlns="http://www.w3.org/2000/svg" viewBox="0 0 2019 2019"><defs><style>.cls-1{fill:none;stroke:crimson;stroke-miterlimit:10;stroke-width:3px;}.cls-2{fill:crimson;}</style></defs><g id="Layer_2" data-name="Layer 2"><g id="Layer_1-2" data-name="Layer 1"><polygon class="cls-1" points="1168.37 1218.46 1112.34 1218.46 1112.34 1162.49 1168.37 1106.47 1224.28 994.48 1224.28 882.48 1112.34 770.49 1000.29 882.48 888.36 770.49 776.31 882.48 776.31 994.48 832.33 1106.47 888.36 1162.49 1056.32 1274.49 1168.37 1274.49 1280.31 1162.49 1168.37 1218.46"/><path class="cls-2" d="M981.64,181.16v-1.5l1.5-1.5,1.5,1.5,1.5-1.5,1.5,1.5v1.5l-.75,1.5-.75.75v.75h.75l1.5-.75-1.5,1.5h-1.5l-2.25-1.5-.75-.75Zm0,7.5v-1.5l1.5-1.5,1.5,1.5,1.5-1.5,1.5,1.5v1.5l-.75,1.5-.75.75v.75h.75l1.5-.75-1.5,1.5h-1.5l-2.25-1.5-.75-.75Zm7.5,0v-1.5l1.5-1.5,1.5,1.5,1.5-1.5,1.5,1.5v1.5l-.75,1.5-.75.75v.75h.75l1.5-.75-1.5,1.5h-1.5l-2.25-1.5-.75-.75Zm0,105v-1.5l1.5-1.5,1.5,1.5,1.5-1.5,1.5,1.5v1.5l-.75,1.5-.75.75v.75h.75l1.5-.75-1.5,1.5h-1.5l-2.25-1.5-.75-.75Zm7.5-105v-1.5l1.5-1.5,1.5,1.5,1.5-1.5,1.5,1.5v1.5l-.75,1.5-.75.75v.75h.75l1.5-.75-1.5,1.5h-1.5l-2.25-1.5-.75-.75Zm0,105v-1.5l1.5-1.5,1.5,1.5,1.5-1.5,1.5,1.5v1.5l-.75,1.5-.75.75v.75h.75l1.5-.75-1.5,1.5h-1.5l-2.25-1.5-.75-.75Zm7.5-112.5v-1.5l1.5-1.5,1.5,1.5,1.5-1.5,1.5,1.5v1.5l-.75,1.5-.75.75v.75h.75l1.5-.75-1.5,1.5h-1.5l-2.25-1.5-.75-.75Zm0,7.5v-1.5l1.5-1.5,1.5,1.5,1.5-1.5,1.5,1.5v1.5l-.75,1.5-.75.75v.75h.75l1.5-.75-1.5,1.5h-1.5l-2.25-1.5-.75-.75Zm0,7.5v-1.5l1.5-1.5,1.5,1.5,1.5-1.5,1.5,1.5v1.5l-.75,1.5-.75.75v.75h.75l1.5-.75-1.5,1.5h-1.5l-2.25-1.5-.75-.75Zm0,7.5v-1.5l1.5-1.5,1.5,1.5,1.5-1.5,1.5,1.5v1.5l-.75,1.5-.75.75v.75h.75l1.5-.75-1.5,1.5h-1.5l-2.25-1.5-.75-.75Zm0,7.5v-1.5l1.5-1.5,1.5,1.5,1.5-1.5,1.5,1.5v1.5l-.75,1.5-.75.75v.75h.75l1.5-.75-1.5,1.5h-1.5l-2.25-1.5-.75-.75Zm0,7.5v-1.5l1.5-1.5,1.5,1.5,1.5-1.5,1.5,1.5v1.5l-.75,1.5-.75.75v.75h.75l1.5-.75-1.5,1.5h-1.5l-2.25-1.5-.75-.75Zm0,7.5v-1.5l1.5-1.5,1.5,1.5,1.5-1.5,1.5,1.5v1.5l-.75,1.5-.75.75v.75h.75l1.5-.75-1.5,1.5h-1.5l-2.25-1.5-.75-.75Zm0,7.5v-1.5l1.5-1.5,1.5,1.5,1.5-1.5,1.5,1.5v1.5l-.75,1.5-.75.75v.75h.75l1.5-.75-1.5,1.5h-1.5l-2.25-1.5-.75-.75Zm0,7.5v-1.5l1.5-1.5,1.5,1.5,1.5-1.5,1.5,1.5v1.5l-.75,1.5-.75.75v.75h.75l1.5-.75-1.5,1.5h-1.5l-2.25-1.5-.75-.75Zm0,7.5v-1.5l1.5-1.5,1.5,1.5,1.5-1.5,1.5,1.5v1.5l-.75,1.5-.75.75v.75h.75l1.5-.75-1.5,1.5h-1.5l-2.25-1.5-.75-.75Zm0,7.5v-1.5l1.5-1.5,1.5,1.5,1.5-1.5,1.5,1.5v1.5l-.75,1.5-.75.75v.75h.75l1.5-.75-1.5,1.5h-1.5l-2.25-1.5-.75-.75Zm0,7.5v-1.5l1.5-1.5,1.5,1.5,1.5-1.5,1.5,1.5v1.5l-.75,1.5-.75.75v.75h.75l1.5-.75-1.5,1.5h-1.5l-2.25-1.5-.75-.75Zm0,7.5v-1.5l1.5-1.5,1.5,1.5,1.5-1.5,1.5,1.5v1.5l-.75,1.5-.75.75v.75h.75l1.5-.75-1.5,1.5h-1.5l-2.25-1.5-.75-.75Zm0,7.5v-1.5l1.5-1.5,1.5,1.5,1.5-1.5,1.5,1.5v1.5l-.75,1.5-.75.75v.75h.75l1.5-.75-1.5,1.5h-1.5l-2.25-1.5-.75-.75Zm0,7.5v-1.5l1.5-1.5,1.5,1.5,1.5-1.5,1.5,1.5v1.5l-.75,1.5-.75.75v.75h.75l1.5-.75-1.5,1.5h-1.5l-2.25-1.5-.75-.75Zm0,7.5v-1.5l1.5-1.5,1.5,1.5,1.5-1.5,1.5,1.5v1.5l-.75,1.5-.75.75v.75h.75l1.5-.75-1.5,1.5h-1.5l-2.25-1.5-.75-.75Zm7.5-112.5v-1.5l1.5-1.5,1.5,1.5,1.5-1.5,1.5,1.5v1.5l-.75,1.5-.75.75v.75h.75l1.5-.75-1.5,1.5h-1.5l-2.25-1.5-.75-.75Zm0,7.5v-1.5l1.5-1.5,1.5,1.5,1.5-1.5,1.5,1.5v1.5l-.75,1.5-.75.75v.75h.75l1.5-.75-1.5,1.5h-1.5l-2.25-1.5-.75-.75Zm0,7.5v-1.5l1.5-1.5,1.5,1.5,1.5-1.5,1.5,1.5v1.5l-.75,1.5-.75.75v.75h.75l1.5-.75-1.5,1.5h-1.5l-2.25-1.5-.75-.75Zm0,7.5v-1.5l1.5-1.5,1.5,1.5,1.5-1.5,1.5,1.5v1.5l-.75,1.5-.75.75v.75h.75l1.5-.75-1.5,1.5h-1.5l-2.25-1.5-.75-.75Zm0,7.5v-1.5l1.5-1.5,1.5,1.5,1.5-1.5,1.5,1.5v1.5l-.75,1.5-.75.75v.75h.75l1.5-.75-1.5,1.5h-1.5l-2.25-1.5-.75-.75Zm0,7.5v-1.5l1.5-1.5,1.5,1.5,1.5-1.5,1.5,1.5v1.5l-.75,1.5-.75.75v.75h.75l1.5-.75-1.5,1.5h-1.5l-2.25-1.5-.75-.75Zm0,7.5v-1.5l1.5-1.5,1.5,1.5,1.5-1.5,1.5,1.5v1.5l-.75,1.5-.75.75v.75h.75l1.5-.75-1.5,1.5h-1.5l-2.25-1.5-.75-.75Zm0,7.5v-1.5l1.5-1.5,1.5,1.5,1.5-1.5,1.5,1.5v1.5l-.75,1.5-.75.75v.75h.75l1.5-.75-1.5,1.5h-1.5l-2.25-1.5-.75-.75Zm0,7.5v-1.5l1.5-1.5,1.5,1.5,1.5-1.5,1.5,1.5v1.5l-.75,1.5-.75.75v.75h.75l1.5-.75-1.5,1.5h-1.5l-2.25-1.5-.75-.75Zm0,7.5v-1.5l1.5-1.5,1.5,1.5,1.5-1.5,1.5,1.5v1.5l-.75,1.5-.75.75v.75h.75l1.5-.75-1.5,1.5h-1.5l-2.25-1.5-.75-.75Zm0,7.5v-1.5l1.5-1.5,1.5,1.5,1.5-1.5,1.5,1.5v1.5l-.75,1.5-.75.75v.75h.75l1.5-.75-1.5,1.5h-1.5l-2.25-1.5-.75-.75Zm0,7.5v-1.5l1.5-1.5,1.5,1.5,1.5-1.5,1.5,1.5v1.5l-.75,1.5-.75.75v.75h.75l1.5-.75-1.5,1.5h-1.5l-2.25-1.5-.75-.75Zm0,7.5v-1.5l1.5-1.5,1.5,1.5,1.5-1.5,1.5,1.5v1.5l-.75,1.5-.75.75v.75h.75l1.5-.75-1.5,1.5h-1.5l-2.25-1.5-.75-.75Zm0,7.5v-1.5l1.5-1.5,1.5,1.5,1.5-1.5,1.5,1.5v1.5l-.75,1.5-.75.75v.75h.75l1.5-.75-1.5,1.5h-1.5l-2.25-1.5-.75-.75Zm0,7.5v-1.5l1.5-1.5,1.5,1.5,1.5-1.5,1.5,1.5v1.5l-.75,1.5-.75.75v.75h.75l1.5-.75-1.5,1.5h-1.5l-2.25-1.5-.75-.75Zm0,7.5v-1.5l1.5-1.5,1.5,1.5,1.5-1.5,1.5,1.5v1.5l-.75,1.5-.75.75v.75h.75l1.5-.75-1.5,1.5h-1.5l-2.25-1.5-.75-.75Zm7.5,0v-1.5l1.5-1.5,1.5,1.5,1.5-1.5,1.5,1.5v1.5l-.75,1.5-.75.75v.75h.75l1.5-.75-1.5,1.5h-1.5l-2.25-1.5-.75-.75Zm7.5,0v-1.5l1.5-1.5,1.5,1.5,1.5-1.5,1.5,1.5v1.5l-.75,1.5-.75.75v.75h.75l1.5-.75-1.5,1.5h-1.5l-2.25-1.5-.75-.75Zm7.5-7.5v-1.5l1.5-1.5,1.5,1.5,1.5-1.5,1.5,1.5v1.5l-.75,1.5-.75.75v.75h.75l1.5-.75-1.5,1.5h-1.5l-2.25-1.5-.75-.75Z"/><path class="cls-2" d="M1732,980.39v-1.5l1.5-1.5,1.5,1.5,1.5-1.5,1.5,1.5v1.5l-.75,1.5-.75.75v.75h.75l1.5-.75-1.5,1.5h-1.5l-2.25-1.5-.75-.75Zm7.5,0v-1.5l1.5-1.5,1.5,1.5,1.5-1.5,1.5,1.5v1.5l-.75,1.5-.75.75v.75h.75l1.5-.75-1.5,1.5h-1.5l-2.25-1.5-.75-.75Zm7.5,0v-1.5l1.5-1.5,1.5,1.5,1.5-1.5,1.5,1.5v1.5l-.75,1.5-.75.75v.75h.75l1.5-.75-1.5,1.5h-1.5l-2.25-1.5-.75-.75Zm0,7.5v-1.5l1.5-1.5,1.5,1.5,1.5-1.5,1.5,1.5v1.5l-.75,1.5-.75.75v.75h.75l1.5-.75-1.5,1.5h-1.5l-2.25-1.5-.75-.75Zm0,7.5v-1.5l1.5-1.5,1.5,1.5,1.5-1.5,1.5,1.5v1.5l-.75,1.5-.75.75v.75h.75l1.5-.75-1.5,1.5h-1.5l-2.25-1.5-.75-.75Zm0,7.5v-1.5l1.5-1.5,1.5,1.5,1.5-1.5,1.5,1.5v1.5l-.75,1.5-.75.75v.75h.75l1.5-.75-1.5,1.5h-1.5l-2.25-1.5-.75-.75Zm0,7.5v-1.5l1.5-1.5,1.5,1.5,1.5-1.5,1.5,1.5v1.5l-.75,1.5-.75.75v.75h.75l1.5-.75-1.5,1.5h-1.5l-2.25-1.5-.75-.75Zm0,7.5v-1.5l1.5-1.5,1.5,1.5,1.5-1.5,1.5,1.5v1.5l-.75,1.5-.75.75v.75h.75l1.5-.75-1.5,1.5h-1.5l-2.25-1.5-.75-.75Zm0,7.5v-1.5l1.5-1.5,1.5,1.5,1.5-1.5,1.5,1.5v1.5l-.75,1.5-.75.75v.75h.75l1.5-.75-1.5,1.5h-1.5l-2.25-1.5-.75-.75Zm0,7.5v-1.5l1.5-1.5,1.5,1.5,1.5-1.5,1.5,1.5v1.5l-.75,1.5-.75.75v.75h.75l1.5-.75-1.5,1.5h-1.5l-2.25-1.5-.75-.75Zm7.5-52.5v-1.5l1.5-1.5,1.5,1.5,1.5-1.5,1.5,1.5v1.5l-.75,1.5-.75.75v.75h.75l1.5-.75-1.5,1.5h-1.5l-2.25-1.5-.75-.75Zm0,7.5v-1.5l1.5-1.5,1.5,1.5,1.5-1.5,1.5,1.5v1.5l-.75,1.5-.75.75v.75h.75l1.5-.75-1.5,1.5h-1.5l-2.25-1.5-.75-.75Zm0,7.5v-1.5l1.5-1.5,1.5,1.5,1.5-1.5,1.5,1.5v1.5l-.75,1.5-.75.75v.75h.75l1.5-.75-1.5,1.5h-1.5l-2.25-1.5-.75-.75Zm0,7.5v-1.5l1.5-1.5,1.5,1.5,1.5-1.5,1.5,1.5v1.5l-.75,1.5-.75.75v.75h.75l1.5-.75-1.5,1.5h-1.5l-2.25-1.5-.75-.75Zm0,7.5v-1.5l1.5-1.5,1.5,1.5,1.5-1.5,1.5,1.5v1.5l-.75,1.5-.75.75v.75h.75l1.5-.75-1.5,1.5h-1.5l-2.25-1.5-.75-.75Zm0,7.5v-1.5l1.5-1.5,1.5,1.5,1.5-1.5,1.5,1.5v1.5l-.75,1.5-.75.75v.75h.75l1.5-.75-1.5,1.5h-1.5l-2.25-1.5-.75-.75Zm0,7.5v-1.5l1.5-1.5,1.5,1.5,1.5-1.5,1.5,1.5v1.5l-.75,1.5-.75.75v.75h.75l1.5-.75-1.5,1.5h-1.5l-2.25-1.5-.75-.75Zm0,7.5v-1.5l1.5-1.5,1.5,1.5,1.5-1.5,1.5,1.5v1.5l-.75,1.5-.75.75v.75h.75l1.5-.75-1.5,1.5h-1.5l-2.25-1.5-.75-.75Zm0,7.5v-1.5l1.5-1.5,1.5,1.5,1.5-1.5,1.5,1.5v1.5l-.75,1.5-.75.75v.75h.75l1.5-.75-1.5,1.5h-1.5l-2.25-1.5-.75-.75Zm7.5-52.5v-1.5l1.5-1.5,1.5,1.5,1.5-1.5,1.5,1.5v1.5l-.75,1.5-.75.75v.75h.75l1.5-.75-1.5,1.5h-1.5l-2.25-1.5-.75-.75Zm0,52.5v-1.5l1.5-1.5,1.5,1.5,1.5-1.5,1.5,1.5v1.5l-.75,1.5-.75.75v.75h.75l1.5-.75-1.5,1.5h-1.5l-2.25-1.5-.75-.75Zm0,7.5v-1.5l1.5-1.5,1.5,1.5,1.5-1.5,1.5,1.5v1.5l-.75,1.5-.75.75v.75h.75l1.5-.75-1.5,1.5h-1.5l-2.25-1.5-.75-.75Zm7.5,0v-1.5l1.5-1.5,1.5,1.5,1.5-1.5,1.5,1.5v1.5l-.75,1.5-.75.75v.75h.75l1.5-.75-1.5,1.5h-1.5l-2.25-1.5-.75-.75Zm7.5,0v-1.5l1.5-1.5,1.5,1.5,1.5-1.5,1.5,1.5v1.5l-.75,1.5-.75.75v.75h.75l1.5-.75-1.5,1.5h-1.5l-2.25-1.5-.75-.75Zm7.5-67.5v-1.5l1.5-1.5,1.5,1.5,1.5-1.5,1.5,1.5v1.5l-.75,1.5-.75.75v.75h.75l1.5-.75-1.5,1.5h-1.5l-2.25-1.5-.75-.75Zm0,60v-1.5l1.5-1.5,1.5,1.5,1.5-1.5,1.5,1.5v1.5l-.75,1.5-.75.75v.75h.75l1.5-.75-1.5,1.5h-1.5l-2.25-1.5-.75-.75Zm7.5-60v-1.5l1.5-1.5,1.5,1.5,1.5-1.5,1.5,1.5v1.5l-.75,1.5-.75.75v.75h.75l1.5-.75-1.5,1.5h-1.5l-2.25-1.5-.75-.75Zm0,7.5v-1.5l1.5-1.5,1.5,1.5,1.5-1.5,1.5,1.5v1.5l-.75,1.5-.75.75v.75h.75l1.5-.75-1.5,1.5h-1.5l-2.25-1.5-.75-.75Zm0,7.5v-1.5l1.5-1.5,1.5,1.5,1.5-1.5,1.5,1.5v1.5l-.75,1.5-.75.75v.75h.75l1.5-.75-1.5,1.5h-1.5l-2.25-1.5-.75-.75Zm0,7.5v-1.5l1.5-1.5,1.5,1.5,1.5-1.5,1.5,1.5v1.5l-.75,1.5-.75.75v.75h.75l1.5-.75-1.5,1.5h-1.5l-2.25-1.5-.75-.75Zm0,7.5v-1.5l1.5-1.5,1.5,1.5,1.5-1.5,1.5,1.5v1.5l-.75,1.5-.75.75v.75h.75l1.5-.75-1.5,1.5h-1.5l-2.25-1.5-.75-.75Zm0,7.5v-1.5l1.5-1.5,1.5,1.5,1.5-1.5,1.5,1.5v1.5l-.75,1.5-.75.75v.75h.75l1.5-.75-1.5,1.5h-1.5l-2.25-1.5-.75-.75Zm0,7.5v-1.5l1.5-1.5,1.5,1.5,1.5-1.5,1.5,1.5v1.5l-.75,1.5-.75.75v.75h.75l1.5-.75-1.5,1.5h-1.5l-2.25-1.5-.75-.75Zm0,7.5v-1.5l1.5-1.5,1.5,1.5,1.5-1.5,1.5,1.5v1.5l-.75,1.5-.75.75v.75h.75l1.5-.75-1.5,1.5h-1.5l-2.25-1.5-.75-.75Zm0,7.5v-1.5l1.5-1.5,1.5,1.5,1.5-1.5,1.5,1.5v1.5l-.75,1.5-.75.75v.75h.75l1.5-.75-1.5,1.5h-1.5l-2.25-1.5-.75-.75Zm0,7.5v-1.5l1.5-1.5,1.5,1.5,1.5-1.5,1.5,1.5v1.5l-.75,1.5-.75.75v.75h.75l1.5-.75-1.5,1.5h-1.5l-2.25-1.5-.75-.75Zm7.5-67.5v-1.5l1.5-1.5,1.5,1.5,1.5-1.5,1.5,1.5v1.5l-.75,1.5-.75.75v.75h.75l1.5-.75-1.5,1.5h-1.5l-2.25-1.5-.75-.75Zm0,7.5v-1.5l1.5-1.5,1.5,1.5,1.5-1.5,1.5,1.5v1.5l-.75,1.5-.75.75v.75h.75l1.5-.75-1.5,1.5h-1.5l-2.25-1.5-.75-.75Zm0,7.5v-1.5l1.5-1.5,1.5,1.5,1.5-1.5,1.5,1.5v1.5l-.75,1.5-.75.75v.75h.75l1.5-.75-1.5,1.5h-1.5l-2.25-1.5-.75-.75Zm0,7.5v-1.5l1.5-1.5,1.5,1.5,1.5-1.5,1.5,1.5v1.5l-.75,1.5-.75.75v.75h.75l1.5-.75-1.5,1.5h-1.5l-2.25-1.5-.75-.75Zm0,7.5v-1.5l1.5-1.5,1.5,1.5,1.5-1.5,1.5,1.5v1.5l-.75,1.5-.75.75v.75h.75l1.5-.75-1.5,1.5h-1.5l-2.25-1.5-.75-.75Zm0,7.5v-1.5l1.5-1.5,1.5,1.5,1.5-1.5,1.5,1.5v1.5l-.75,1.5-.75.75v.75h.75l1.5-.75-1.5,1.5h-1.5l-2.25-1.5-.75-.75Zm0,7.5v-1.5l1.5-1.5,1.5,1.5,1.5-1.5,1.5,1.5v1.5l-.75,1.5-.75.75v.75h.75l1.5-.75-1.5,1.5h-1.5l-2.25-1.5-.75-.75Zm0,7.5v-1.5l1.5-1.5,1.5,1.5,1.5-1.5,1.5,1.5v1.5l-.75,1.5-.75.75v.75h.75l1.5-.75-1.5,1.5h-1.5l-2.25-1.5-.75-.75Zm0,7.5v-1.5l1.5-1.5,1.5,1.5,1.5-1.5,1.5,1.5v1.5l-.75,1.5-.75.75v.75h.75l1.5-.75-1.5,1.5h-1.5l-2.25-1.5-.75-.75Zm0,7.5v-1.5l1.5-1.5,1.5,1.5,1.5-1.5,1.5,1.5v1.5l-.75,1.5-.75.75v.75h.75l1.5-.75-1.5,1.5h-1.5l-2.25-1.5-.75-.75Zm7.5-60v-1.5l1.5-1.5,1.5,1.5,1.5-1.5,1.5,1.5v1.5l-.75,1.5-.75.75v.75h.75l1.5-.75-1.5,1.5h-1.5l-2.25-1.5-.75-.75Zm0,60v-1.5l1.5-1.5,1.5,1.5,1.5-1.5,1.5,1.5v1.5l-.75,1.5-.75.75v.75h.75l1.5-.75-1.5,1.5h-1.5l-2.25-1.5-.75-.75Zm7.5,0v-1.5l1.5-1.5,1.5,1.5,1.5-1.5,1.5,1.5v1.5l-.75,1.5-.75.75v.75h.75l1.5-.75-1.5,1.5h-1.5l-2.25-1.5-.75-.75Zm7.5-7.5v-1.5l1.5-1.5,1.5,1.5,1.5-1.5,1.5,1.5v1.5l-.75,1.5-.75.75v.75h.75l1.5-.75-1.5,1.5h-1.5l-2.25-1.5-.75-.75Z"/><path class="cls-2" d="M210.71,998.8v-1.5l1.5-1.5,1.5,1.5,1.5-1.5,1.5,1.5v1.5l-.75,1.5-.75.75v.75H216l1.5-.75-1.5,1.5h-1.5l-2.25-1.5-.75-.75Zm7.5,0v-1.5l1.5-1.5,1.5,1.5,1.5-1.5,1.5,1.5v1.5l-.75,1.5-.75.75v.75h.75l1.5-.75-1.5,1.5H222l-2.25-1.5-.75-.75Zm7.5-22.5v-1.5l1.5-1.5,1.5,1.5,1.5-1.5,1.5,1.5v1.5l-.75,1.5-.75.75v.75H231l1.5-.75-1.5,1.5h-1.5l-2.25-1.5-.75-.75Zm0,7.5v-1.5l1.5-1.5,1.5,1.5,1.5-1.5,1.5,1.5v1.5l-.75,1.5-.75.75v.75H231l1.5-.75-1.5,1.5h-1.5l-2.25-1.5-.75-.75Zm0,7.5v-1.5l1.5-1.5,1.5,1.5,1.5-1.5,1.5,1.5v1.5l-.75,1.5-.75.75v.75H231l1.5-.75-1.5,1.5h-1.5l-2.25-1.5-.75-.75Zm0,7.5v-1.5l1.5-1.5,1.5,1.5,1.5-1.5,1.5,1.5v1.5l-.75,1.5-.75.75v.75H231l1.5-.75-1.5,1.5h-1.5l-2.25-1.5-.75-.75Zm0,7.5v-1.5l1.5-1.5,1.5,1.5,1.5-1.5,1.5,1.5v1.5l-.75,1.5-.75.75v.75H231l1.5-.75-1.5,1.5h-1.5l-2.25-1.5-.75-.75Zm0,7.5v-1.5l1.5-1.5,1.5,1.5,1.5-1.5,1.5,1.5v1.5l-.75,1.5-.75.75v.75H231l1.5-.75-1.5,1.5h-1.5l-2.25-1.5-.75-.75Zm0,7.5v-1.5l1.5-1.5,1.5,1.5,1.5-1.5,1.5,1.5v1.5l-.75,1.5-.75.75v.75H231l1.5-.75-1.5,1.5h-1.5l-2.25-1.5-.75-.75Zm0,7.5v-1.5l1.5-1.5,1.5,1.5,1.5-1.5,1.5,1.5v1.5l-.75,1.5-.75.75v.75H231l1.5-.75-1.5,1.5h-1.5l-2.25-1.5-.75-.75Zm0,7.5v-1.5l1.5-1.5,1.5,1.5,1.5-1.5,1.5,1.5v1.5l-.75,1.5-.75.75v.75H231l1.5-.75-1.5,1.5h-1.5l-2.25-1.5-.75-.75Zm0,7.5v-1.5l1.5-1.5,1.5,1.5,1.5-1.5,1.5,1.5v1.5l-.75,1.5-.75.75v.75H231l1.5-.75-1.5,1.5h-1.5l-2.25-1.5-.75-.75Zm7.5-75v-1.5l1.5-1.5,1.5,1.5,1.5-1.5,1.5,1.5v1.5l-.75,1.5-.75.75v.75h.75l1.5-.75-1.5,1.5H237l-2.25-1.5-.75-.75Zm0,7.5v-1.5l1.5-1.5,1.5,1.5,1.5-1.5,1.5,1.5v1.5l-.75,1.5-.75.75v.75h.75l1.5-.75-1.5,1.5H237l-2.25-1.5-.75-.75Zm0,7.5v-1.5l1.5-1.5,1.5,1.5,1.5-1.5,1.5,1.5v1.5l-.75,1.5-.75.75v.75h.75l1.5-.75-1.5,1.5H237l-2.25-1.5-.75-.75Zm0,7.5v-1.5l1.5-1.5,1.5,1.5,1.5-1.5,1.5,1.5v1.5l-.75,1.5-.75.75v.75h.75l1.5-.75-1.5,1.5H237l-2.25-1.5-.75-.75Zm0,7.5v-1.5l1.5-1.5,1.5,1.5,1.5-1.5,1.5,1.5v1.5l-.75,1.5-.75.75v.75h.75l1.5-.75-1.5,1.5H237l-2.25-1.5-.75-.75Zm0,7.5v-1.5l1.5-1.5,1.5,1.5,1.5-1.5,1.5,1.5v1.5l-.75,1.5-.75.75v.75h.75l1.5-.75-1.5,1.5H237l-2.25-1.5-.75-.75Zm0,7.5v-1.5l1.5-1.5,1.5,1.5,1.5-1.5,1.5,1.5v1.5l-.75,1.5-.75.75v.75h.75l1.5-.75-1.5,1.5H237l-2.25-1.5-.75-.75Zm0,7.5v-1.5l1.5-1.5,1.5,1.5,1.5-1.5,1.5,1.5v1.5l-.75,1.5-.75.75v.75h.75l1.5-.75-1.5,1.5H237l-2.25-1.5-.75-.75Zm0,7.5v-1.5l1.5-1.5,1.5,1.5,1.5-1.5,1.5,1.5v1.5l-.75,1.5-.75.75v.75h.75l1.5-.75-1.5,1.5H237l-2.25-1.5-.75-.75Zm0,7.5v-1.5l1.5-1.5,1.5,1.5,1.5-1.5,1.5,1.5v1.5l-.75,1.5-.75.75v.75h.75l1.5-.75-1.5,1.5H237l-2.25-1.5-.75-.75Zm0,7.5v-1.5l1.5-1.5,1.5,1.5,1.5-1.5,1.5,1.5v1.5l-.75,1.5-.75.75v.75h.75l1.5-.75-1.5,1.5H237l-2.25-1.5-.75-.75Zm0,7.5v-1.5l1.5-1.5,1.5,1.5,1.5-1.5,1.5,1.5v1.5l-.75,1.5-.75.75v.75h.75l1.5-.75-1.5,1.5H237l-2.25-1.5-.75-.75Zm7.5-52.5v-1.5l1.5-1.5,1.5,1.5,1.5-1.5,1.5,1.5v1.5l-.75,1.5-.75.75v.75H246l1.5-.75-1.5,1.5h-1.5l-2.25-1.5-.75-.75Zm0,52.5v-1.5l1.5-1.5,1.5,1.5,1.5-1.5,1.5,1.5v1.5l-.75,1.5-.75.75v.75H246l1.5-.75-1.5,1.5h-1.5l-2.25-1.5-.75-.75Zm7.5-52.5v-1.5l1.5-1.5,1.5,1.5,1.5-1.5,1.5,1.5v1.5l-.75,1.5-.75.75v.75h.75l1.5-.75-1.5,1.5H252l-2.25-1.5-.75-.75Zm0,52.5v-1.5l1.5-1.5,1.5,1.5,1.5-1.5,1.5,1.5v1.5l-.75,1.5-.75.75v.75h.75l1.5-.75-1.5,1.5H252l-2.25-1.5-.75-.75Zm7.5-7.5v-1.5l1.5-1.5,1.5,1.5,1.5-1.5,1.5,1.5v1.5l-.75,1.5-.75.75v.75H261l1.5-.75-1.5,1.5h-1.5l-2.25-1.5-.75-.75Z"/><path class="cls-2" d="M983.42,1761.8v-1.5l1.5-1.5,1.5,1.5,1.51-1.5,1.5,1.5v1.5l-.75,1.5-.75.75v.75h.75l1.5-.75-1.5,1.5h-1.5l-2.26-1.5-.75-.75Zm0,7.5v-1.5l1.5-1.5,1.5,1.5,1.51-1.5,1.5,1.5v1.5l-.75,1.5-.75.75v.75h.75l1.5-.75-1.5,1.5h-1.5l-2.26-1.5-.75-.75Zm0,30v-1.5l1.5-1.5,1.5,1.5,1.51-1.5,1.5,1.5v1.5l-.75,1.5-.75.75v.75h.75l1.5-.75-1.5,1.5h-1.5l-2.26-1.5-.75-.75Zm0,7.5v-1.5l1.5-1.5,1.5,1.5,1.51-1.5,1.5,1.5v1.5l-.75,1.5-.75.75v.75h.75l1.5-.75-1.5,1.5h-1.5l-2.26-1.5-.75-.75Zm7.51-52.5v-1.5l1.51-1.5,1.5,1.5,1.5-1.5,1.51,1.5v1.5l-.75,1.5-.76.75v.75h.76l1.5-.75-1.5,1.5h-1.51l-2.25-1.5-.75-.75Zm0,7.5v-1.5l1.51-1.5,1.5,1.5,1.5-1.5,1.51,1.5v1.5l-.75,1.5-.76.75v.75h.76l1.5-.75-1.5,1.5h-1.51l-2.25-1.5-.75-.75Zm0,7.5v-1.5l1.51-1.5,1.5,1.5,1.5-1.5,1.51,1.5v1.5l-.75,1.5-.76.75v.75h.76l1.5-.75-1.5,1.5h-1.51l-2.25-1.5-.75-.75Zm0,7.5v-1.5l1.51-1.5,1.5,1.5,1.5-1.5,1.51,1.5v1.5l-.75,1.5-.76.75v.75h.76l1.5-.75-1.5,1.5h-1.51l-2.25-1.5-.75-.75Zm0,30v-1.5l1.51-1.5,1.5,1.5,1.5-1.5,1.51,1.5v1.5l-.75,1.5-.76.75v.75h.76l1.5-.75-1.5,1.5h-1.51l-2.25-1.5-.75-.75Zm0,7.5v-1.5l1.51-1.5,1.5,1.5,1.5-1.5,1.51,1.5v1.5l-.75,1.5-.76.75v.75h.76l1.5-.75-1.5,1.5h-1.51l-2.25-1.5-.75-.75Zm7.52-67.5v-1.5l1.5-1.5,1.51,1.5,1.5-1.5,1.5,1.5v1.5l-.75,1.5-.75.75v.75h.75l1.51-.75-1.51,1.5h-1.5l-2.26-1.5-.75-.75Zm0,22.5v-1.5l1.5-1.5,1.51,1.5,1.5-1.5,1.5,1.5v1.5l-.75,1.5-.75.75v.75h.75l1.51-.75-1.51,1.5h-1.5l-2.26-1.5-.75-.75Zm0,7.5v-1.5l1.5-1.5,1.51,1.5,1.5-1.5,1.5,1.5v1.5l-.75,1.5-.75.75v.75h.75l1.51-.75-1.51,1.5h-1.5l-2.26-1.5-.75-.75Zm0,37.5v-1.5l1.5-1.5,1.51,1.5,1.5-1.5,1.5,1.5v1.5l-.75,1.5-.75.75v.75h.75l1.51-.75-1.51,1.5h-1.5l-2.26-1.5-.75-.75Zm7.52-67.5v-1.5l1.5-1.5,1.5,1.5,1.51-1.5,1.5,1.5v1.5l-.75,1.5-.75.75v.75h.75l1.5-.75-1.5,1.5h-1.5l-2.26-1.5-.75-.75Zm0,30v-1.5l1.5-1.5,1.5,1.5,1.51-1.5,1.5,1.5v1.5l-.75,1.5-.75.75v.75h.75l1.5-.75-1.5,1.5h-1.5l-2.26-1.5-.75-.75Zm0,7.5v-1.5l1.5-1.5,1.5,1.5,1.51-1.5,1.5,1.5v1.5l-.75,1.5-.75.75v.75h.75l1.5-.75-1.5,1.5h-1.5l-2.26-1.5-.75-.75Zm0,30v-1.5l1.5-1.5,1.5,1.5,1.51-1.5,1.5,1.5v1.5l-.75,1.5-.75.75v.75h.75l1.5-.75-1.5,1.5h-1.5l-2.26-1.5-.75-.75Zm7.51-67.5v-1.5l1.51-1.5,1.5,1.5,1.5-1.5,1.51,1.5v1.5l-.76,1.5-.75.75v.75h.75l1.51-.75-1.51,1.5h-1.5l-2.25-1.5-.75-.75Zm0,7.5v-1.5l1.51-1.5,1.5,1.5,1.5-1.5,1.51,1.5v1.5l-.76,1.5-.75.75v.75h.75l1.51-.75-1.51,1.5h-1.5l-2.25-1.5-.75-.75Zm0,30v-1.5l1.51-1.5,1.5,1.5,1.5-1.5,1.51,1.5v1.5l-.76,1.5-.75.75v.75h.75l1.51-.75-1.51,1.5h-1.5l-2.25-1.5-.75-.75Zm0,7.5v-1.5l1.51-1.5,1.5,1.5,1.5-1.5,1.51,1.5v1.5l-.76,1.5-.75.75v.75h.75l1.51-.75-1.51,1.5h-1.5l-2.25-1.5-.75-.75Zm0,15v-1.5l1.51-1.5,1.5,1.5,1.5-1.5,1.51,1.5v1.5l-.76,1.5-.75.75v.75h.75l1.51-.75-1.51,1.5h-1.5l-2.25-1.5-.75-.75Zm0,7.5v-1.5l1.51-1.5,1.5,1.5,1.5-1.5,1.51,1.5v1.5l-.76,1.5-.75.75v.75h.75l1.51-.75-1.51,1.5h-1.5l-2.25-1.5-.75-.75Zm7.52-60v-1.5l1.5-1.5,1.51,1.5,1.5-1.5,1.5,1.5v1.5l-.75,1.5-.75.75v.75h.75l1.5-.75-1.5,1.5h-1.5l-2.26-1.5-.75-.75Zm0,7.5v-1.5l1.5-1.5,1.51,1.5,1.5-1.5,1.5,1.5v1.5l-.75,1.5-.75.75v.75h.75l1.5-.75-1.5,1.5h-1.5l-2.26-1.5-.75-.75Zm0,22.5v-1.5l1.5-1.5,1.51,1.5,1.5-1.5,1.5,1.5v1.5l-.75,1.5-.75.75v.75h.75l1.5-.75-1.5,1.5h-1.5l-2.26-1.5-.75-.75Zm0,7.5v-1.5l1.5-1.5,1.51,1.5,1.5-1.5,1.5,1.5v1.5l-.75,1.5-.75.75v.75h.75l1.5-.75-1.5,1.5h-1.5l-2.26-1.5-.75-.75Zm0,7.5v-1.5l1.5-1.5,1.51,1.5,1.5-1.5,1.5,1.5v1.5l-.75,1.5-.75.75v.75h.75l1.5-.75-1.5,1.5h-1.5l-2.26-1.5-.75-.75Zm0,7.5v-1.5l1.5-1.5,1.51,1.5,1.5-1.5,1.5,1.5v1.5l-.75,1.5-.75.75v.75h.75l1.5-.75-1.5,1.5h-1.5l-2.26-1.5-.75-.75Zm0,7.5v-1.5l1.5-1.5,1.51,1.5,1.5-1.5,1.5,1.5v1.5l-.75,1.5-.75.75v.75h.75l1.5-.75-1.5,1.5h-1.5l-2.26-1.5-.75-.75Zm7.52-52.5v-1.5l1.5-1.5,1.5,1.5,1.51-1.5,1.5,1.5v1.5l-.75,1.5-.75.75v.75h.75l1.5-.75-1.5,1.5h-1.51l-2.25-1.5-.75-.75Zm0,7.5v-1.5l1.5-1.5,1.5,1.5,1.51-1.5,1.5,1.5v1.5l-.75,1.5-.75.75v.75h.75l1.5-.75-1.5,1.5h-1.51l-2.25-1.5-.75-.75Zm0,22.5v-1.5l1.5-1.5,1.5,1.5,1.51-1.5,1.5,1.5v1.5l-.75,1.5-.75.75v.75h.75l1.5-.75-1.5,1.5h-1.51l-2.25-1.5-.75-.75Zm0,7.5v-1.5l1.5-1.5,1.5,1.5,1.51-1.5,1.5,1.5v1.5l-.75,1.5-.75.75v.75h.75l1.5-.75-1.5,1.5h-1.51l-2.25-1.5-.75-.75Zm0,7.5v-1.5l1.5-1.5,1.5,1.5,1.51-1.5,1.5,1.5v1.5l-.75,1.5-.75.75v.75h.75l1.5-.75-1.5,1.5h-1.51l-2.25-1.5-.75-.75Zm7.51-52.5v-1.5l1.51-1.5,1.5,1.5,1.5-1.5,1.51,1.5v1.5l-.76,1.5-.75.75v.75h.75l1.51-.75-1.51,1.5h-1.5l-2.25-1.5-.76-.75Zm0,7.5v-1.5l1.51-1.5,1.5,1.5,1.5-1.5,1.51,1.5v1.5l-.76,1.5-.75.75v.75h.75l1.51-.75-1.51,1.5h-1.5l-2.25-1.5-.76-.75Zm0,37.5v-1.5l1.51-1.5,1.5,1.5,1.5-1.5,1.51,1.5v1.5l-.76,1.5-.75.75v.75h.75l1.51-.75-1.51,1.5h-1.5l-2.25-1.5-.76-.75Z"/><circle class="cls-1" cx="1009.5" cy="1009.5" r="1008"/><path class="cls-1" d="M647,146.28C310.1,287.93,73.5,621.08,73.5,1009.5"/><polyline class="cls-1" points="142.8 1363.61 140.84 1368.36 145.6 1370.33"/><polyline class="cls-1" points="1366.84 144.15 1369.33 143.11 1370.36 145.61"/><polyline class="cls-1" points="1875.03 1366.41 1875.89 1366.06 1875.53 1365.2"/><polyline class="cls-1" points="647.04 146.28 647.4 145.41 648.26 145.77"/><path class="cls-1" d="M958.22,313.4a89.7,89.7,0,0,0,32.47,13.49"/><line class="cls-1" x1="697.68" y1="421.32" x2="781.93" y2="386.42"/><line class="cls-1" x1="697.68" y1="421.32" x2="651.69" y2="467.31"/><line class="cls-1" x1="697.68" y1="421.32" x2="732.58" y2="386.42"/><line class="cls-1" x1="590.24" y1="492.76" x2="495.9" y2="587.1"/><line class="cls-1" x1="495.9" y1="587.1" x2="470.44" y2="648.56"/><line class="cls-1" x1="523.53" y1="520.39" x2="495.9" y2="587.1"/><line class="cls-1" x1="442.2" y1="640.8" x2="485.56" y2="536.12"/><line class="cls-1" x1="1484.73" y1="492.25" x2="1440.89" y2="386.42"/><line class="cls-1" x1="1229.25" y1="386.42" x2="1326.85" y2="426.85"/><line class="cls-1" x1="1484.73" y1="492.25" x2="1388.31" y2="452.31"/><line class="cls-1" x1="1484.73" y1="492.25" x2="1497.68" y2="523.52"/><line class="cls-1" x1="846.96" y1="386.42" x2="907.13" y2="361.5"/><line class="cls-1" x1="1229.25" y1="386.42" x2="1286.42" y2="386.42"/><line class="cls-1" x1="1229.25" y1="386.42" x2="1166.7" y2="386.42"/><line class="cls-1" x1="386.42" y1="696.58" x2="442.2" y2="640.8"/><line class="cls-1" x1="416.74" y1="702.26" x2="442.2" y2="640.8"/><path class="cls-1" d="M1056.28,314.78a89.49,89.49,0,0,1-32.39,12.49"/><line class="cls-1" x1="1106.53" y1="361.5" x2="1169.08" y2="361.5"/><path class="cls-1" d="M937.21,1726.7a90.23,90.23,0,0,1,20-20.18"/><path class="cls-1" d="M1025,1690.36a89.56,89.56,0,0,1,35,13.67"/><line class="cls-1" x1="696.58" y1="1632.58" x2="638.49" y2="1574.49"/><line class="cls-1" x1="859.07" y1="1759.07" x2="757.5" y2="1657.5"/><line class="cls-1" x1="1532.95" y1="538.13" x2="1574.54" y2="638.54"/><line class="cls-1" x1="361.5" y1="757.5" x2="259.28" y2="859.72"/><line class="cls-1" x1="1372.67" y1="1546.33" x2="1324.59" y2="1594.41"/><line class="cls-1" x1="1386.04" y1="1568.96" x2="1434.13" y2="1520.87"/><line class="cls-1" x1="1386.04" y1="1568.96" x2="1322.42" y2="1632.58"/><line class="cls-1" x1="1386.04" y1="1568.96" x2="1483.6" y2="1528.55"/><line class="cls-1" x1="1324.59" y1="1594.41" x2="1232.45" y2="1632.58"/><line class="cls-1" x1="1324.59" y1="1594.41" x2="1286.42" y2="1632.58"/><line class="cls-1" x1="386.42" y1="775.46" x2="386.42" y2="851.39"/><line class="cls-1" x1="361.5" y1="757.5" x2="386.42" y2="732.58"/><line class="cls-1" x1="361.5" y1="835.63" x2="361.5" y2="757.5"/><line class="cls-1" x1="538.13" y1="1532.92" x2="638.49" y2="1574.49"/><line class="cls-1" x1="638.49" y1="1574.49" x2="699.94" y2="1599.94"/><line class="cls-1" x1="236.76" y1="1136.76" x2="252.9" y2="1097.82"/><line class="cls-1" x1="361.5" y1="835.63" x2="311.35" y2="956.7"/><line class="cls-1" x1="361.5" y1="835.63" x2="361.5" y2="911.56"/><line class="cls-1" x1="361.5" y1="911.56" x2="361.5" y2="1106.5"/><line class="cls-1" x1="361.5" y1="911.56" x2="327" y2="994.85"/><line class="cls-1" x1="523.53" y1="1497.67" x2="588.64" y2="1524.64"/><line class="cls-1" x1="588.64" y1="1524.64" x2="650.1" y2="1550.1"/><line class="cls-1" x1="588.64" y1="1524.64" x2="496.56" y2="1432.56"/><line class="cls-1" x1="1526.23" y1="1482.72" x2="1632.58" y2="1438.67"/><line class="cls-1" x1="386.42" y1="1166.67" x2="386.42" y2="1009.5"/><line class="cls-1" x1="650.1" y1="1550.1" x2="849.22" y2="1632.58"/><line class="cls-1" x1="471.1" y1="1371.1" x2="650.1" y2="1550.1"/><path class="cls-1" d="M1023.89,327.27a90.59,90.59,0,0,1-33.2-.38"/><line class="cls-1" x1="990.69" y1="326.89" x2="907.13" y2="361.5"/><line class="cls-1" x1="1106.53" y1="361.5" x2="907.13" y2="361.5"/><line class="cls-1" x1="1106.53" y1="361.5" x2="1023.89" y2="327.27"/><line class="cls-1" x1="838.9" y1="1657.5" x2="757.5" y2="1657.5"/><line class="cls-1" x1="1104.28" y1="1657.5" x2="1164.45" y2="1632.58"/><line class="cls-1" x1="757.5" y1="1657.5" x2="732.58" y2="1632.58"/><line class="cls-1" x1="849.22" y1="1632.58" x2="778.73" y2="1632.58"/><line class="cls-1" x1="1009.5" y1="1632.58" x2="849.22" y2="1632.58"/><line class="cls-1" x1="1497.68" y1="523.52" x2="1524.67" y2="588.67"/><line class="cls-1" x1="1497.68" y1="523.52" x2="1432.53" y2="496.53"/><line class="cls-1" x1="416.74" y1="702.26" x2="386.42" y2="775.46"/><line class="cls-1" x1="386.42" y1="732.58" x2="416.74" y2="702.26"/><line class="cls-1" x1="386.42" y1="732.58" x2="386.42" y2="775.46"/><path class="cls-1" d="M622.89,1011.25c0-213.52,173.09-386.61,386.61-386.61"/><path class="cls-1" d="M1009.5,1397.87c213.52,0,386.61-173.1,386.61-386.62S1223,624.64,1009.5,624.64"/><line class="cls-1" x1="1524.01" y1="1430.99" x2="1434.13" y2="1520.87"/><line class="cls-1" x1="1434.13" y1="1520.87" x2="1497.68" y2="1494.55"/><path class="cls-1" d="M1025,1690.36a90.47,90.47,0,0,0-34,.93"/><line class="cls-1" x1="1024.95" y1="1690.36" x2="1104.28" y2="1657.5"/><line class="cls-1" x1="1104.28" y1="1657.5" x2="909.39" y2="1657.5"/><line class="cls-1" x1="361.5" y1="721.5" x2="248.74" y2="834.26"/><line class="cls-1" x1="1470.11" y1="386.42" x2="1519.99" y2="506.85"/><line class="cls-1" x1="1166.7" y1="386.42" x2="1371.08" y2="471.08"/><line class="cls-1" x1="1166.7" y1="386.42" x2="1009.5" y2="386.42"/><polyline class="cls-1" points="1271.38 617.47 1247.94 434.51 1098.88 549.72"/><path class="cls-1" d="M991,1691.29a89.59,89.59,0,0,0-33.72,15.23"/><line class="cls-1" x1="838.9" y1="1657.5" x2="957.24" y2="1706.52"/><line class="cls-1" x1="909.39" y1="1657.5" x2="838.9" y2="1657.5"/><line class="cls-1" x1="909.39" y1="1657.5" x2="990.96" y2="1691.29"/><line class="cls-1" x1="699.94" y1="1599.94" x2="732.58" y2="1632.58"/><line class="cls-1" x1="699.94" y1="1599.94" x2="778.73" y2="1632.58"/><line class="cls-1" x1="732.58" y1="1632.58" x2="778.73" y2="1632.58"/><path class="cls-1" d="M1692.49,993.83a90.7,90.7,0,0,0-.5,31.62"/><line class="cls-1" x1="1461.07" y1="1457.93" x2="1549.46" y2="1369.54"/><polyline class="cls-1" points="1401.72 1272.1 1585.15 1248.6 1469.38 1098.83"/><line class="cls-1" x1="1164.45" y1="1632.58" x2="1372.67" y2="1546.33"/><line class="cls-1" x1="1372.67" y1="1546.33" x2="1461.07" y2="1457.93"/><line class="cls-1" x1="1164.45" y1="1632.58" x2="1009.5" y2="1632.58"/><polyline class="cls-1" points="1268.04 1400.62 1247.94 1585.81 1100.15 1466.96"/><line class="cls-1" x1="651.69" y1="467.31" x2="846.96" y2="386.42"/><line class="cls-1" x1="651.69" y1="467.31" x2="561.07" y2="557.93"/><line class="cls-1" x1="1009.5" y1="386.42" x2="846.96" y2="386.42"/><polyline class="cls-1" points="751.1 618.42 771.06 434.51 918.34 552.96"/><path class="cls-1" d="M1875.53,1365.2a933.24,933.24,0,0,0,70-355.7"/><line class="cls-1" x1="1524.67" y1="588.67" x2="1574.54" y2="638.54"/><line class="cls-1" x1="1371.08" y1="471.08" x2="1432.53" y2="496.53"/><line class="cls-1" x1="1574.54" y1="638.54" x2="1632.58" y2="696.58"/><line class="cls-1" x1="1432.53" y1="496.53" x2="1524.67" y2="588.67"/><line class="cls-1" x1="1460.6" y1="560.6" x2="1371.08" y2="471.08"/><line class="cls-1" x1="1599.99" y1="699.99" x2="1632.58" y2="732.58"/><path class="cls-1" d="M1692.49,993.83a89.43,89.43,0,0,1,14.84-34.71"/><line class="cls-1" x1="1692.49" y1="993.83" x2="1657.5" y2="909.36"/><line class="cls-1" x1="1599.99" y1="699.99" x2="1550.12" y2="650.12"/><line class="cls-1" x1="1599.99" y1="699.99" x2="1632.58" y2="778.66"/><polyline class="cls-1" points="1466.87 918.8 1585.15 771.72 1400.43 751.67"/><line class="cls-1" x1="1460.6" y1="560.6" x2="1550.12" y2="650.12"/><line class="cls-1" x1="1632.58" y1="849.19" x2="1550.12" y2="650.12"/><line class="cls-1" x1="1632.58" y1="1466.84" x2="1512.15" y2="1516.72"/><path class="cls-1" d="M1757.63,924.08a90,90,0,0,1,90,147.31"/><line class="cls-1" x1="833.61" y1="1769.61" x2="721.5" y2="1657.5"/><line class="cls-1" x1="561.07" y1="557.93" x2="470.44" y2="648.56"/><line class="cls-1" x1="470.44" y1="648.56" x2="386.42" y2="851.39"/><line class="cls-1" x1="386.42" y1="1009.5" x2="386.42" y2="851.39"/><polyline class="cls-1" points="617.62 748.18 433.85 771.72 548.89 920.57"/><path class="cls-1" d="M622.89,1011.25c0,213.52,173.09,386.62,386.61,386.62"/><polyline class="cls-1" points="552.87 1100.61 433.85 1248.6 618.22 1268.62"/><polyline class="cls-1" points="920.63 1470.21 771.06 1585.81 747.46 1401.57"/><path class="cls-1" d="M1757.63,924.08a89.39,89.39,0,0,0-29.44,14"/><line class="cls-1" x1="1777.09" y1="877.09" x2="1757.63" y2="924.08"/><line class="cls-1" x1="647.04" y1="146.28" x2="557.89" y2="361.5"/><path class="cls-1" d="M647,146.28l1.22-.51"/><polyline class="cls-1" points="589.34 361.5 665.09 178.65 834.27 248.73"/><line class="cls-1" x1="538.13" y1="1532.92" x2="579.41" y2="1632.58"/><line class="cls-1" x1="386.42" y1="1166.67" x2="361.5" y2="1106.5"/><line class="cls-1" x1="538.13" y1="1532.92" x2="523.53" y2="1497.67"/><line class="cls-1" x1="361.5" y1="1106.5" x2="327" y2="1023.22"/><line class="cls-1" x1="523.53" y1="1497.67" x2="496.56" y2="1432.56"/><line class="cls-1" x1="471.1" y1="1371.1" x2="496.56" y2="1432.56"/><line class="cls-1" x1="386.42" y1="1166.67" x2="471.1" y2="1371.1"/><line class="cls-1" x1="386.42" y1="1229.18" x2="426.9" y2="1326.9"/><line class="cls-1" x1="553.52" y1="1632.58" x2="506.87" y2="1519.97"/><path class="cls-1" d="M1099.36,1765.39a88.91,88.91,0,0,0-13-34.59"/><line class="cls-1" x1="579.41" y1="1632.58" x2="696.58" y2="1632.58"/><line class="cls-1" x1="721.5" y1="1657.5" x2="696.58" y2="1632.58"/><line class="cls-1" x1="589.73" y1="1657.5" x2="721.5" y2="1657.5"/><polyline class="cls-1" points="553.51 1632.58 386.42 1632.58 386.42 1470.08"/><line class="cls-1" x1="579.41" y1="1632.58" x2="553.52" y2="1632.58"/><path class="cls-1" d="M922.18,1761.1a89.29,89.29,0,0,1,15-34.4"/><line class="cls-1" x1="859.07" y1="1759.07" x2="937.21" y2="1726.7"/><line class="cls-1" x1="833.61" y1="1769.61" x2="859.07" y2="1759.07"/><polyline class="cls-1" points="589.73 1657.5 665.09 1839.42 833.61 1769.61"/><line class="cls-1" x1="589.73" y1="1657.5" x2="563.84" y2="1657.5"/><path class="cls-1" d="M1099.36,1765.39a90,90,0,1,1-177.18-4.29"/><line class="cls-1" x1="1099.36" y1="1765.39" x2="1137.72" y2="1781.28"/><line class="cls-1" x1="878.99" y1="1778.99" x2="922.18" y2="1761.1"/><line class="cls-1" x1="167.75" y1="915.25" x2="230.43" y2="852.57"/><line class="cls-1" x1="205.46" y1="913.54" x2="240.97" y2="878.03"/><line class="cls-1" x1="258.96" y1="921.46" x2="240.97" y2="878.03"/><polyline class="cls-1" points="361.5 560.57 146.38 649.67 230.43 852.57"/><line class="cls-1" x1="248.74" y1="834.26" x2="259.28" y2="859.72"/><line class="cls-1" x1="290.94" y1="936.17" x2="259.28" y2="859.72"/><polyline class="cls-1" points="248.74 834.26 178.01 663.51 361.5 587.51"/><line class="cls-1" x1="240.97" y1="878.03" x2="230.43" y2="852.57"/><line class="cls-1" x1="103.55" y1="979.45" x2="73.5" y2="1009.5"/><line class="cls-1" x1="386.42" y1="1229.18" x2="386.42" y2="1286.42"/><line class="cls-1" x1="386.42" y1="1229.18" x2="361.5" y2="1169.01"/><line class="cls-1" x1="361.5" y1="1430.56" x2="361.5" y2="1297.5"/><line class="cls-1" x1="192.3" y1="1092.3" x2="236.76" y2="1136.76"/><line class="cls-1" x1="236.76" y1="1136.76" x2="259.01" y2="1159.01"/><line class="cls-1" x1="248.46" y1="1184.46" x2="361.5" y2="1297.5"/><line class="cls-1" x1="361.5" y1="1297.5" x2="361.5" y2="1261.5"/><line class="cls-1" x1="492.27" y1="1484.73" x2="452.36" y2="1388.36"/><line class="cls-1" x1="386.42" y1="1322.42" x2="386.42" y2="1440.88"/><line class="cls-1" x1="1524.01" y1="1430.99" x2="1549.46" y2="1369.54"/><line class="cls-1" x1="1526.23" y1="1482.72" x2="1497.68" y2="1494.55"/><line class="cls-1" x1="1526.23" y1="1482.72" x2="1564.38" y2="1390.62"/><line class="cls-1" x1="1524.01" y1="1430.99" x2="1497.68" y2="1494.55"/><line class="cls-1" x1="1632.58" y1="1168.88" x2="1549.46" y2="1369.54"/><path class="cls-1" d="M1370.36,145.61c337.79,141.27,575.14,474.85,575.14,863.89"/><path class="cls-1" d="M1083.17,288.58a89.33,89.33,0,0,0,13.44-32.5"/><path class="cls-1" d="M1366.83,144.15l3.53,1.46"/><line class="cls-1" x1="1459.78" y1="361.5" x2="1370.36" y2="145.61"/><line class="cls-1" x1="721.5" y1="361.5" x2="834.27" y2="248.73"/><line class="cls-1" x1="834.27" y1="248.73" x2="852.59" y2="230.41"/><line class="cls-1" x1="1164.12" y1="228.12" x2="1138.66" y2="238.66"/><path class="cls-1" d="M1366.83,144.15A933.09,933.09,0,0,0,1009.5,73.5"/><line class="cls-1" x1="1366.83" y1="144.15" x2="1164.12" y2="228.12"/><line class="cls-1" x1="1009.5" y1="73.5" x2="1164.12" y2="228.12"/><line class="cls-1" x1="1791.84" y1="1163.16" x2="1945.5" y2="1009.5"/><polyline class="cls-1" points="1777.09 877.09 1909.5 1009.5 1847.61 1071.39"/><line class="cls-1" x1="1777.09" y1="877.09" x2="1760.37" y2="860.37"/><line class="cls-1" x1="1787.64" y1="851.64" x2="1945.5" y2="1009.5"/><path class="cls-1" d="M1702.93,1056.13a90.62,90.62,0,0,0,27.61,29.57"/><polyline class="cls-1" points="361.5 560.57 361.5 361.5 557.89 361.5"/><line class="cls-1" x1="386.42" y1="696.58" x2="386.42" y2="577.18"/><line class="cls-1" x1="361.5" y1="721.5" x2="386.42" y2="696.58"/><line class="cls-1" x1="361.5" y1="721.5" x2="361.5" y2="587.51"/><line class="cls-1" x1="557.89" y1="361.5" x2="547.57" y2="386.42"/><line class="cls-1" x1="361.5" y1="587.51" x2="361.5" y2="560.57"/><line class="cls-1" x1="1172.28" y1="1657.5" x2="1232.45" y2="1632.58"/><line class="cls-1" x1="1286.42" y1="1632.58" x2="1322.42" y2="1632.58"/><line class="cls-1" x1="1322.42" y1="1632.58" x2="1440.51" y2="1632.58"/><line class="cls-1" x1="1232.45" y1="1632.58" x2="1286.42" y2="1632.58"/><line class="cls-1" x1="1430.18" y1="1657.5" x2="1297.5" y2="1657.5"/><path class="cls-1" d="M1086.34,1730.8A90.37,90.37,0,0,0,1060,1704"/><line class="cls-1" x1="1059.96" y1="1704.03" x2="1172.28" y2="1657.5"/><line class="cls-1" x1="1086.34" y1="1730.8" x2="1158.37" y2="1760.63"/><line class="cls-1" x1="1172.28" y1="1657.5" x2="1261.5" y2="1657.5"/><path class="cls-1" d="M648.26,145.77A933.18,933.18,0,0,1,1009.5,73.5"/><line class="cls-1" x1="648.26" y1="145.77" x2="852.59" y2="230.41"/><line class="cls-1" x1="852.59" y1="230.41" x2="1009.5" y2="73.5"/><line class="cls-1" x1="1512.15" y1="1516.72" x2="1483.6" y2="1528.55"/><line class="cls-1" x1="1440.51" y1="1632.58" x2="1483.6" y2="1528.55"/><line class="cls-1" x1="1512.15" y1="1516.72" x2="1464.16" y2="1632.58"/><line class="cls-1" x1="1430.18" y1="1657.5" x2="1440.51" y2="1632.58"/><polyline class="cls-1" points="1183.83 1771.17 1353.91 1841.63 1430.18 1657.5"/><line class="cls-1" x1="1632.58" y1="1322.42" x2="1564.38" y2="1390.62"/><line class="cls-1" x1="1589.84" y1="1329.16" x2="1564.38" y2="1390.62"/><line class="cls-1" x1="1760.64" y1="1158.36" x2="1657.5" y2="1261.5"/><line class="cls-1" x1="1771.19" y1="1183.81" x2="1657.5" y2="1297.5"/><line class="cls-1" x1="1632.58" y1="1466.84" x2="1632.58" y2="1438.67"/><line class="cls-1" x1="1632.58" y1="1438.67" x2="1632.58" y2="1322.42"/><polyline class="cls-1" points="1632.58 1466.84 1632.58 1632.58 1464.16 1632.58"/><line class="cls-1" x1="1464.16" y1="1632.58" x2="1453.84" y2="1657.5"/><line class="cls-1" x1="1657.5" y1="1428.35" x2="1657.5" y2="1297.5"/><line class="cls-1" x1="1657.5" y1="1297.5" x2="1632.58" y2="1322.42"/><line class="cls-1" x1="1632.58" y1="579.39" x2="1632.58" y2="696.58"/><line class="cls-1" x1="1632.58" y1="732.58" x2="1632.58" y2="696.58"/><line class="cls-1" x1="1632.58" y1="778.66" x2="1632.58" y2="732.58"/><line class="cls-1" x1="1657.5" y1="838.83" x2="1632.58" y2="778.66"/><line class="cls-1" x1="1657.5" y1="721.5" x2="1657.5" y2="757.5"/><path class="cls-1" d="M1707.33,959.12a90.5,90.5,0,0,1,20.86-21.07"/><line class="cls-1" x1="1707.33" y1="959.12" x2="1657.5" y2="838.83"/><line class="cls-1" x1="1728.19" y1="938.05" x2="1760.37" y2="860.37"/><line class="cls-1" x1="1760.37" y1="860.37" x2="1657.5" y2="757.5"/><line class="cls-1" x1="1657.5" y1="757.5" x2="1657.5" y2="838.83"/><path class="cls-1" d="M1765.58,1099.76a91.35,91.35,0,0,0,15.26,1.29,89.68,89.68,0,0,0,60.34-23.23"/><line class="cls-1" x1="1781.3" y1="1137.7" x2="1841.18" y2="1077.82"/><path class="cls-1" d="M142.8,1363.61c.92,2.24,1.86,4.48,2.8,6.72"/><line class="cls-1" x1="506.87" y1="1519.97" x2="386.42" y2="1470.08"/><line class="cls-1" x1="506.87" y1="1519.97" x2="492.27" y2="1484.73"/><line class="cls-1" x1="361.5" y1="1459.76" x2="386.42" y2="1470.08"/><polyline class="cls-1" points="248.46 1184.46 178.01 1354.55 361.5 1430.56"/><line class="cls-1" x1="386.42" y1="1440.88" x2="361.5" y2="1430.56"/><line class="cls-1" x1="226.22" y1="1162.22" x2="248.46" y2="1184.46"/><line class="cls-1" x1="386.42" y1="1440.88" x2="492.27" y2="1484.73"/><path class="cls-1" d="M73.5,1009.5a933.45,933.45,0,0,0,69.3,354.11"/><line class="cls-1" x1="73.5" y1="1009.5" x2="114.74" y2="1050.74"/><line class="cls-1" x1="226.22" y1="1162.22" x2="142.19" y2="1078.19"/><line class="cls-1" x1="226.22" y1="1162.22" x2="142.8" y2="1363.61"/><line class="cls-1" x1="1440.89" y1="386.42" x2="1322.42" y2="386.42"/><line class="cls-1" x1="1470.11" y1="386.42" x2="1440.89" y2="386.42"/><polyline class="cls-1" points="1470.11 386.42 1632.58 386.42 1632.58 553.49"/><polyline class="cls-1" points="1657.5 563.81 1657.5 361.5 1459.79 361.5"/><line class="cls-1" x1="1430.57" y1="361.5" x2="1459.78" y2="361.5"/><line class="cls-1" x1="1770.91" y1="834.91" x2="1657.5" y2="721.5"/><line class="cls-1" x1="1657.5" y1="589.72" x2="1657.5" y2="721.5"/><line class="cls-1" x1="1519.99" y1="506.85" x2="1532.95" y2="538.13"/><line class="cls-1" x1="1532.95" y1="538.13" x2="1632.58" y2="579.39"/><line class="cls-1" x1="1519.99" y1="506.85" x2="1632.58" y2="553.49"/><polyline class="cls-1" points="1657.5 563.81 1870.34 651.97 1787.63 851.63"/><line class="cls-1" x1="1770.91" y1="834.91" x2="1787.64" y2="851.64"/><line class="cls-1" x1="1657.5" y1="589.72" x2="1632.58" y2="579.39"/><line class="cls-1" x1="1657.5" y1="563.81" x2="1632.58" y2="553.49"/><polyline class="cls-1" points="1770.91 834.91 1840.99 665.72 1657.5 589.72"/><polyline class="cls-1" points="1430.57 361.5 1353.91 176.44 1183.16 247.16"/><line class="cls-1" x1="1430.57" y1="361.5" x2="1297.5" y2="361.5"/><path class="cls-1" d="M1765.58,1099.76a89.68,89.68,0,0,1-35-14.06"/><path class="cls-1" d="M1875,1366.41c.17-.4.34-.8.5-1.21"/><line class="cls-1" x1="1791.84" y1="1163.16" x2="1875.53" y2="1365.2"/><line class="cls-1" x1="1781.3" y1="1137.7" x2="1791.84" y2="1163.16"/><line class="cls-1" x1="1730.54" y1="1085.7" x2="1760.64" y2="1158.36"/><polyline class="cls-1" points="1657.5 1428.35 1840.99 1352.34 1771.18 1183.82"/><line class="cls-1" x1="1771.19" y1="1183.81" x2="1760.64" y2="1158.36"/><line class="cls-1" x1="1657.5" y1="1456.52" x2="1657.5" y2="1428.35"/><line class="cls-1" x1="1765.58" y1="1099.76" x2="1781.3" y2="1137.7"/><line class="cls-1" x1="1657.5" y1="909.36" x2="1657.5" y2="1108.71"/><line class="cls-1" x1="1632.58" y1="1168.88" x2="1632.58" y2="1009.5"/><line class="cls-1" x1="1632.58" y1="849.19" x2="1657.5" y2="909.36"/><line class="cls-1" x1="1632.58" y1="1009.5" x2="1632.58" y2="849.19"/><line class="cls-1" x1="1632.58" y1="1225.98" x2="1632.58" y2="1168.88"/><line class="cls-1" x1="1657.5" y1="1261.5" x2="1657.5" y2="1165.81"/><line class="cls-1" x1="1632.58" y1="1286.42" x2="1657.5" y2="1261.5"/><line class="cls-1" x1="1589.84" y1="1329.16" x2="1632.58" y2="1225.98"/><line class="cls-1" x1="1632.58" y1="1286.42" x2="1589.84" y2="1329.16"/><line class="cls-1" x1="1632.58" y1="1286.42" x2="1632.58" y2="1225.98"/><path class="cls-1" d="M1009.5,1945.5c-389,0-722.65-237.37-863.9-575.17"/><polyline class="cls-1" points="563.84 1657.5 361.5 1657.5 361.5 1459.76"/><polyline class="cls-1" points="853.53 1789.53 652.94 1872.62 563.84 1657.5"/><line class="cls-1" x1="361.5" y1="1459.76" x2="145.6" y2="1370.33"/><line class="cls-1" x1="259.01" y1="1159.01" x2="290.95" y2="1081.9"/><line class="cls-1" x1="361.5" y1="1169.01" x2="314.77" y2="1056.21"/><line class="cls-1" x1="361.5" y1="1169.01" x2="361.5" y2="1261.5"/><line class="cls-1" x1="361.5" y1="1261.5" x2="259.01" y2="1159.01"/><line class="cls-1" x1="1137.72" y1="1781.28" x2="1158.37" y2="1760.63"/><line class="cls-1" x1="853.53" y1="1789.53" x2="878.99" y2="1778.99"/><polyline class="cls-1" points="1137.72 1781.28 1009.5 1909.5 878.99 1778.99"/><line class="cls-1" x1="1297.5" y1="1657.5" x2="1261.5" y2="1657.5"/><line class="cls-1" x1="1183.82" y1="1771.18" x2="1297.5" y2="1657.5"/><line class="cls-1" x1="1158.37" y1="1760.63" x2="1261.5" y2="1657.5"/><line class="cls-1" x1="1163.18" y1="1791.82" x2="1183.82" y2="1771.18"/><line class="cls-1" x1="853.53" y1="1789.53" x2="1009.5" y2="1945.5"/><path class="cls-1" d="M1875,1366.41c-140.31,339.89-475,579.09-865.53,579.09"/><polyline class="cls-1" points="1163.18 1791.82 1363.78 1874.91 1453.84 1657.5"/><polyline class="cls-1" points="1657.5 1456.52 1657.5 1657.5 1453.84 1657.5"/><line class="cls-1" x1="1657.5" y1="1456.52" x2="1875.03" y2="1366.41"/><line class="cls-1" x1="1009.5" y1="1945.5" x2="1163.18" y2="1791.82"/><path class="cls-1" d="M1692,1025.45a89.43,89.43,0,0,0,10.94,30.68"/><line class="cls-1" x1="1691.99" y1="1025.45" x2="1657.5" y2="1108.71"/><line class="cls-1" x1="1702.93" y1="1056.13" x2="1657.5" y2="1165.81"/><line class="cls-1" x1="1657.5" y1="1108.71" x2="1657.5" y2="1165.81"/><path class="cls-1" d="M920.53,258.55a89.56,89.56,0,0,0,14.09,31.74"/><line class="cls-1" x1="878.05" y1="240.95" x2="859.73" y2="259.27"/><line class="cls-1" x1="781.93" y1="386.42" x2="842.1" y2="361.5"/><line class="cls-1" x1="781.93" y1="386.42" x2="732.58" y2="386.42"/><line class="cls-1" x1="696.58" y1="386.42" x2="732.58" y2="386.42"/><line class="cls-1" x1="589.34" y1="361.5" x2="721.5" y2="361.5"/><line class="cls-1" x1="589.34" y1="361.5" x2="579.02" y2="386.42"/><line class="cls-1" x1="721.5" y1="361.5" x2="757.5" y2="361.5"/><path class="cls-1" d="M934.62,290.29a90.67,90.67,0,0,0,23.6,23.11"/><line class="cls-1" x1="958.22" y1="313.4" x2="842.1" y2="361.5"/><line class="cls-1" x1="757.5" y1="361.5" x2="859.73" y2="259.27"/><line class="cls-1" x1="934.62" y1="290.29" x2="859.73" y2="259.27"/><line class="cls-1" x1="842.1" y1="361.5" x2="757.5" y2="361.5"/><line class="cls-1" x1="696.58" y1="386.42" x2="636.23" y2="446.77"/><line class="cls-1" x1="579.02" y1="386.42" x2="537" y2="487.88"/><line class="cls-1" x1="696.58" y1="386.42" x2="579.02" y2="386.42"/><line class="cls-1" x1="547.57" y1="386.42" x2="499.03" y2="503.6"/><polyline class="cls-1" points="547.57 386.42 386.42 386.42 386.42 550.25"/><line class="cls-1" x1="636.23" y1="446.77" x2="590.24" y2="492.76"/><line class="cls-1" x1="590.24" y1="492.76" x2="523.53" y2="520.39"/><line class="cls-1" x1="386.42" y1="577.18" x2="485.56" y2="536.12"/><line class="cls-1" x1="523.53" y1="520.39" x2="485.56" y2="536.12"/><line class="cls-1" x1="537" y1="487.88" x2="499.03" y2="503.6"/><line class="cls-1" x1="386.42" y1="550.25" x2="386.42" y2="577.18"/><line class="cls-1" x1="636.23" y1="446.77" x2="537" y2="487.88"/><line class="cls-1" x1="386.42" y1="550.25" x2="499.03" y2="503.6"/><path class="cls-1" d="M920.53,258.55a90,90,0,1,1,176.08-2.47"/><line class="cls-1" x1="1138.66" y1="238.66" x2="1096.61" y2="256.08"/><polyline class="cls-1" points="878.05 240.95 1009.5 109.5 1138.66 238.66"/><line class="cls-1" x1="920.53" y1="258.55" x2="878.05" y2="240.95"/><line class="cls-1" x1="1326.85" y1="426.85" x2="1286.42" y2="386.42"/><line class="cls-1" x1="1322.42" y1="386.42" x2="1388.31" y2="452.31"/><line class="cls-1" x1="1326.85" y1="426.85" x2="1388.31" y2="452.31"/><line class="cls-1" x1="1286.42" y1="386.42" x2="1261.5" y2="361.5"/><line class="cls-1" x1="1183.16" y1="247.16" x2="1157.71" y2="257.71"/><line class="cls-1" x1="1297.5" y1="361.5" x2="1322.42" y2="386.42"/><line class="cls-1" x1="1183.16" y1="247.16" x2="1297.5" y2="361.5"/><path class="cls-1" d="M1056.28,314.78a90.65,90.65,0,0,0,26.89-26.2"/><line class="cls-1" x1="1169.08" y1="361.5" x2="1261.5" y2="361.5"/><line class="cls-1" x1="1169.08" y1="361.5" x2="1056.28" y2="314.78"/><line class="cls-1" x1="1157.71" y1="257.71" x2="1083.17" y2="288.58"/><line class="cls-1" x1="1261.5" y1="361.5" x2="1157.71" y2="257.71"/><line class="cls-1" x1="426.9" y1="1326.9" x2="386.42" y2="1286.42"/><line class="cls-1" x1="426.9" y1="1326.9" x2="452.36" y2="1388.36"/><line class="cls-1" x1="386.42" y1="1286.42" x2="386.42" y2="1322.42"/><line class="cls-1" x1="386.42" y1="1322.42" x2="452.36" y2="1388.36"/><line class="cls-1" x1="1841.18" y1="1077.82" x2="1847.61" y2="1071.39"/><path class="cls-1" d="M1841.18,1077.82a90.71,90.71,0,0,0,6.43-6.43"/><line class="cls-1" x1="561.44" y1="1459.76" x2="747.46" y2="1401.57"/><line class="cls-1" x1="732.01" y1="1280.97" x2="747.46" y2="1401.57"/><line class="cls-1" x1="561.44" y1="1459.76" x2="618.22" y2="1268.62"/><line class="cls-1" x1="732.01" y1="1280.97" x2="618.22" y2="1268.62"/><line class="cls-1" x1="732.01" y1="1280.97" x2="561.44" y2="1459.76"/><line class="cls-1" x1="1009.5" y1="624.64" x2="918.34" y2="552.96"/><line class="cls-1" x1="1009.5" y1="386.42" x2="918.34" y2="552.96"/><line class="cls-1" x1="1098.88" y1="549.72" x2="1009.5" y2="624.64"/><line class="cls-1" x1="1098.88" y1="549.72" x2="1009.5" y2="386.42"/><line class="cls-1" x1="1009.5" y1="386.42" x2="1009.5" y2="624.64"/><line class="cls-1" x1="552.87" y1="1100.61" x2="386.42" y2="1009.5"/><line class="cls-1" x1="552.87" y1="1100.61" x2="622.89" y2="1011.25"/><line class="cls-1" x1="622.89" y1="1011.25" x2="548.9" y2="920.57"/><line class="cls-1" x1="548.9" y1="920.57" x2="386.42" y2="1009.5"/><line class="cls-1" x1="622.89" y1="1011.25" x2="386.42" y2="1009.5"/><line class="cls-1" x1="1009.5" y1="1397.87" x2="1100.15" y2="1466.96"/><line class="cls-1" x1="1009.5" y1="1632.58" x2="1100.15" y2="1466.96"/><line class="cls-1" x1="920.63" y1="1470.21" x2="1009.5" y2="1632.58"/><line class="cls-1" x1="920.63" y1="1470.21" x2="1009.5" y2="1397.87"/><line class="cls-1" x1="1009.5" y1="1397.87" x2="1009.5" y2="1632.58"/><line class="cls-1" x1="1280.3" y1="1287.65" x2="1401.72" y2="1272.1"/><line class="cls-1" x1="1461.07" y1="1457.93" x2="1401.72" y2="1272.1"/><line class="cls-1" x1="1461.07" y1="1457.93" x2="1461.07" y2="1457.93"/><line class="cls-1" x1="1461.07" y1="1457.93" x2="1461.07" y2="1457.93"/><line class="cls-1" x1="1280.3" y1="1287.65" x2="1268.04" y2="1400.62"/><line class="cls-1" x1="1461.07" y1="1457.93" x2="1268.04" y2="1400.62"/><line class="cls-1" x1="1280.3" y1="1287.65" x2="1461.07" y2="1457.93"/><line class="cls-1" x1="1461.07" y1="1457.93" x2="1461.07" y2="1457.93"/><line class="cls-1" x1="617.62" y1="748.18" x2="738.7" y2="732.67"/><line class="cls-1" x1="561.07" y1="557.93" x2="617.62" y2="748.18"/><line class="cls-1" x1="751.1" y1="618.42" x2="738.7" y2="732.67"/><line class="cls-1" x1="751.1" y1="618.42" x2="561.07" y2="557.93"/><line class="cls-1" x1="561.07" y1="557.93" x2="738.7" y2="732.67"/><line class="cls-1" x1="561.07" y1="557.93" x2="561.07" y2="557.93"/><line class="cls-1" x1="561.07" y1="557.93" x2="561.07" y2="557.93"/><line class="cls-1" x1="561.07" y1="557.93" x2="561.07" y2="557.93"/><line class="cls-1" x1="1396.11" y1="1009.5" x2="1469.39" y2="1098.83"/><line class="cls-1" x1="1632.58" y1="1009.5" x2="1469.39" y2="1098.83"/><line class="cls-1" x1="1396.11" y1="1009.5" x2="1466.87" y2="918.8"/><line class="cls-1" x1="1632.58" y1="1009.5" x2="1466.87" y2="918.8"/><line class="cls-1" x1="1632.58" y1="1009.5" x2="1396.11" y2="1009.5"/><line class="cls-1" x1="1286.99" y1="739.36" x2="1400.43" y2="751.67"/><line class="cls-1" x1="1400.43" y1="751.67" x2="1460.6" y2="560.6"/><line class="cls-1" x1="1271.38" y1="617.47" x2="1286.99" y2="739.36"/><line class="cls-1" x1="1271.38" y1="617.47" x2="1460.6" y2="560.6"/><line class="cls-1" x1="1286.99" y1="739.36" x2="1460.6" y2="560.6"/><line class="cls-1" x1="142.19" y1="1078.19" x2="114.74" y2="1050.74"/><line class="cls-1" x1="167.75" y1="915.25" x2="103.55" y2="979.45"/><polyline class="cls-1" points="205.46 913.54 116.14 1002.86 109.5 1009.5 192.3 1092.3"/><path class="cls-1" d="M290.94,936.17a89.51,89.51,0,0,0-32-14.71"/><path class="cls-1" d="M252.9,1097.82a89.56,89.56,0,0,0,38-15.92"/><path class="cls-1" d="M327,1023.22a90.39,90.39,0,0,0,0-28.37"/><path class="cls-1" d="M327,1023.22a89.41,89.41,0,0,1-12.23,33"/><path class="cls-1" d="M290.94,936.17a90.37,90.37,0,0,1,20.41,20.53"/><path class="cls-1" d="M314.77,1056.21A90.51,90.51,0,0,1,291,1081.9"/><path class="cls-1" d="M259,921.46a90,90,0,1,0-6.06,176.36"/><path class="cls-1" d="M311.35,956.7A89.49,89.49,0,0,1,327,994.85"/></g></g></svg>